NotoAmalgamated-DisplayLight.ufo
<glyph name="exclam" format="2">
  <advance width="211"/>
  <unicode hex="0021"/>
  <outline>
    <contour>
      <point x="118" y="174" type="line"/>
      <point x="121" y="714" type="line"/>
      <point x="91" y="714" type="line"/>
      <point x="94" y="174" type="line"/>
    </contour>
    <contour>
      <point x="79" y="23" type="curve" smooth="yes"/>
      <point x="79" y="6"/>
      <point x="85" y="-8"/>
      <point x="104" y="-8" type="curve" smooth="yes"/>
      <point x="127" y="-8"/>
      <point x="131" y="6"/>
      <point x="131" y="23" type="curve" smooth="yes"/>
      <point x="131" y="39"/>
      <point x="127" y="54"/>
      <point x="104" y="54" type="curve" smooth="yes"/>
      <point x="85" y="54"/>
      <point x="79" y="39"/>
    </contour>
  </outline>
</glyph>
<glyph name="exclam.serif" format="2">
  <advance width="271"/>
  <unicode hex="0021"/>
  <outline>
    <contour>
      <point x="119" y="200" type="line"/>
      <point x="135" y="200" type="line"/>
      <point x="140" y="714" type="line"/>
      <point x="112" y="714" type="line"/>
    </contour>
    <contour>
      <point x="129" y="-5" type="curve" smooth="yes"/>
      <point x="140" y="-5"/>
      <point x="149" y="4"/>
      <point x="149" y="35" type="curve" smooth="yes"/>
      <point x="149" y="65"/>
      <point x="140" y="73"/>
      <point x="129" y="73" type="curve" smooth="yes"/>
      <point x="119" y="73"/>
      <point x="109" y="65"/>
      <point x="109" y="35" type="curve" smooth="yes"/>
      <point x="109" y="4"/>
      <point x="119" y="-5"/>
    </contour>
  </outline>
</glyph>
<glyph name="quotedbl" format="2">
  <advance width="304"/>
  <unicode hex="0022"/>
  <outline>
    <contour>
      <point x="97" y="714" type="line"/>
      <point x="68" y="714" type="line"/>
      <point x="72" y="456" type="line"/>
      <point x="93" y="456" type="line"/>
    </contour>
    <contour>
      <point x="236" y="714" type="line"/>
      <point x="207" y="714" type="line"/>
      <point x="211" y="456" type="line"/>
      <point x="232" y="456" type="line"/>
    </contour>
  </outline>
</glyph>
<glyph name="numbersign" format="2">
  <advance width="607"/>
  <unicode hex="0023"/>
  <outline>
    <contour>
      <point x="439" y="462" type="line"/>
      <point x="581" y="462" type="line"/>
      <point x="581" y="486" type="line"/>
      <point x="444" y="486" type="line"/>
      <point x="485" y="714" type="line"/>
      <point x="459" y="714" type="line"/>
      <point x="418" y="486" type="line"/>
      <point x="233" y="486" type="line"/>
      <point x="275" y="714" type="line"/>
      <point x="249" y="714" type="line"/>
      <point x="208" y="486" type="line"/>
      <point x="63" y="486" type="line"/>
      <point x="63" y="462" type="line"/>
      <point x="204" y="462" type="line"/>
      <point x="166" y="251" type="line"/>
      <point x="26" y="251" type="line"/>
      <point x="26" y="227" type="line"/>
      <point x="161" y="227" type="line"/>
      <point x="120" y="0" type="line"/>
      <point x="146" y="0" type="line"/>
      <point x="187" y="227" type="line"/>
      <point x="372" y="227" type="line"/>
      <point x="330" y="0" type="line"/>
      <point x="356" y="0" type="line"/>
      <point x="397" y="227" type="line"/>
      <point x="544" y="227" type="line"/>
      <point x="544" y="251" type="line"/>
      <point x="401" y="251" type="line"/>
    </contour>
    <contour>
      <point x="191" y="251" type="line"/>
      <point x="229" y="462" type="line"/>
      <point x="414" y="462" type="line"/>
      <point x="376" y="251" type="line"/>
    </contour>
  </outline>
</glyph>
<glyph name="dollar" format="2">
  <advance width="537"/>
  <unicode hex="0024"/>
  <outline>
    <contour>
      <point x="238" y="10" type="curve"/>
      <point x="238" y="-58" type="line"/>
      <point x="262" y="-58" type="line"/>
      <point x="262" y="10" type="line"/>
      <point x="367" y="16"/>
      <point x="443" y="73"/>
      <point x="443" y="186" type="curve" smooth="yes"/>
      <point x="443" y="292"/>
      <point x="368" y="329"/>
      <point x="262" y="370" type="curve"/>
      <point x="262" y="679" type="line"/>
      <point x="303" y="678"/>
      <point x="352" y="669"/>
      <point x="404" y="644" type="curve"/>
      <point x="415" y="667" type="line"/>
      <point x="364" y="692"/>
      <point x="313" y="703"/>
      <point x="262" y="704" type="curve"/>
      <point x="262" y="759" type="line"/>
      <point x="238" y="759" type="line"/>
      <point x="238" y="704" type="line"/>
      <point x="136" y="698"/>
      <point x="60" y="641"/>
      <point x="60" y="536" type="curve" smooth="yes"/>
      <point x="60" y="428"/>
      <point x="140" y="392"/>
      <point x="238" y="353" type="curve"/>
      <point x="238" y="35" type="line"/>
      <point x="169" y="36"/>
      <point x="106" y="50"/>
      <point x="63" y="68" type="curve"/>
      <point x="63" y="39" type="line"/>
      <point x="102" y="25"/>
      <point x="159" y="11"/>
    </contour>
    <contour>
      <point x="262" y="35" type="curve"/>
      <point x="262" y="343" type="line"/>
      <point x="356" y="304"/>
      <point x="415" y="271"/>
      <point x="415" y="187" type="curve" smooth="yes"/>
      <point x="415" y="87"/>
      <point x="351" y="40"/>
    </contour>
    <contour>
      <point x="238" y="679" type="curve"/>
      <point x="238" y="379" type="line"/>
      <point x="158" y="411"/>
      <point x="88" y="445"/>
      <point x="88" y="538" type="curve" smooth="yes"/>
      <point x="88" y="630"/>
      <point x="154" y="675"/>
    </contour>
  </outline>
</glyph>
<glyph name="dollar.serif" format="2">
  <advance width="549"/>
  <unicode hex="0024"/>
  <outline>
    <contour>
      <point x="270" y="39" type="curve"/>
      <point x="270" y="-79" type="line"/>
      <point x="280" y="-79" type="line"/>
      <point x="280" y="39" type="line"/>
      <point x="387" y="39"/>
      <point x="463" y="97"/>
      <point x="463" y="192" type="curve" smooth="yes"/>
      <point x="463" y="272"/>
      <point x="423" y="332"/>
      <point x="280" y="385" type="curve"/>
      <point x="280" y="678" type="line"/>
      <point x="399" y="678"/>
      <point x="430" y="623"/>
      <point x="430" y="521" type="curve"/>
      <point x="444" y="521"/>
      <point x="451" y="535"/>
      <point x="451" y="567" type="curve" smooth="yes"/>
      <point x="451" y="625"/>
      <point x="403" y="688"/>
      <point x="280" y="688" type="curve"/>
      <point x="280" y="760" type="line"/>
      <point x="270" y="760" type="line"/>
      <point x="270" y="688" type="line"/>
      <point x="170" y="683"/>
      <point x="109" y="627"/>
      <point x="109" y="542" type="curve" smooth="yes"/>
      <point x="109" y="451"/>
      <point x="165" y="406"/>
      <point x="270" y="361" type="curve"/>
      <point x="270" y="49" type="line"/>
      <point x="123" y="49"/>
      <point x="97" y="122"/>
      <point x="97" y="215" type="curve"/>
      <point x="83" y="215"/>
      <point x="76" y="201"/>
      <point x="76" y="169" type="curve" smooth="yes"/>
      <point x="76" y="123"/>
      <point x="111" y="39"/>
    </contour>
    <contour>
      <point x="280" y="49" type="curve"/>
      <point x="280" y="357" type="line"/>
      <point x="400" y="310"/>
      <point x="435" y="261"/>
      <point x="435" y="191" type="curve" smooth="yes"/>
      <point x="435" y="103"/>
      <point x="379" y="49"/>
    </contour>
    <contour>
      <point x="270" y="678" type="curve"/>
      <point x="270" y="390" type="line"/>
      <point x="179" y="434"/>
      <point x="137" y="462"/>
      <point x="137" y="547" type="curve" smooth="yes"/>
      <point x="137" y="625"/>
      <point x="184" y="673"/>
    </contour>
  </outline>
</glyph>
<glyph name="percent.serif" format="2">
  <advance width="884"/>
  <unicode hex="0025"/>
  <outline>
    <contour>
      <point x="238" y="0" type="line"/>
      <point x="250" y="0" type="line"/>
      <point x="640" y="714" type="line"/>
      <point x="628" y="714" type="line"/>
    </contour>
    <contour>
      <point x="203" y="280" type="curve" smooth="yes"/>
      <point x="308" y="280"/>
      <point x="347" y="371"/>
      <point x="347" y="503" type="curve" smooth="yes"/>
      <point x="347" y="639"/>
      <point x="301" y="724"/>
      <point x="204" y="724" type="curve" smooth="yes"/>
      <point x="102" y="724"/>
      <point x="59" y="637"/>
      <point x="59" y="503" type="curve" smooth="yes"/>
      <point x="59" y="365"/>
      <point x="101" y="280"/>
    </contour>
    <contour>
      <point x="201" y="290" type="curve" smooth="yes"/>
      <point x="122" y="290"/>
      <point x="87" y="361"/>
      <point x="87" y="503" type="curve" smooth="yes"/>
      <point x="87" y="627"/>
      <point x="117" y="714"/>
      <point x="202" y="714" type="curve" smooth="yes"/>
      <point x="282" y="714"/>
      <point x="319" y="647"/>
      <point x="319" y="503" type="curve" smooth="yes"/>
      <point x="319" y="374"/>
      <point x="289" y="290"/>
    </contour>
    <contour>
      <point x="681" y="-10" type="curve" smooth="yes"/>
      <point x="786" y="-10"/>
      <point x="825" y="81"/>
      <point x="825" y="213" type="curve" smooth="yes"/>
      <point x="825" y="349"/>
      <point x="779" y="434"/>
      <point x="682" y="434" type="curve" smooth="yes"/>
      <point x="580" y="434"/>
      <point x="537" y="347"/>
      <point x="537" y="213" type="curve" smooth="yes"/>
      <point x="537" y="75"/>
      <point x="579" y="-10"/>
    </contour>
    <contour>
      <point x="679" y="0" type="curve" smooth="yes"/>
      <point x="600" y="0"/>
      <point x="565" y="71"/>
      <point x="565" y="213" type="curve" smooth="yes"/>
      <point x="565" y="337"/>
      <point x="595" y="424"/>
      <point x="680" y="424" type="curve" smooth="yes"/>
      <point x="760" y="424"/>
      <point x="797" y="357"/>
      <point x="797" y="213" type="curve" smooth="yes"/>
      <point x="797" y="84"/>
      <point x="767" y="0"/>
    </contour>
  </outline>
</glyph>
<glyph name="ampersand" format="2">
  <advance width="661"/>
  <unicode hex="0026"/>
  <outline>
    <contour>
      <point x="286" y="725" type="curve" smooth="yes"/>
      <point x="193" y="725"/>
      <point x="130" y="666"/>
      <point x="130" y="576" type="curve" smooth="yes"/>
      <point x="130" y="507"/>
      <point x="165" y="465"/>
      <point x="230" y="395" type="curve"/>
      <point x="121" y="339"/>
      <point x="59" y="291"/>
      <point x="59" y="179" type="curve" smooth="yes"/>
      <point x="59" y="57"/>
      <point x="143" y="-10"/>
      <point x="264" y="-10" type="curve" smooth="yes"/>
      <point x="376" y="-10"/>
      <point x="443" y="38"/>
      <point x="501" y="105" type="curve"/>
      <point x="593" y="0" type="line"/>
      <point x="630" y="0" type="line"/>
      <point x="518" y="122" type="line"/>
      <point x="560" y="180"/>
      <point x="594" y="246"/>
      <point x="612" y="328" type="curve"/>
      <point x="584" y="328" type="line"/>
      <point x="569" y="254"/>
      <point x="537" y="189"/>
      <point x="500" y="141" type="curve"/>
      <point x="274" y="388" type="line"/>
      <point x="371" y="438"/>
      <point x="433" y="489"/>
      <point x="433" y="581" type="curve" smooth="yes"/>
      <point x="433" y="670"/>
      <point x="372" y="725"/>
    </contour>
    <contour>
      <point x="248" y="377" type="curve"/>
      <point x="483" y="122" type="line"/>
      <point x="427" y="56"/>
      <point x="367" y="15"/>
      <point x="264" y="15" type="curve" smooth="yes"/>
      <point x="159" y="15"/>
      <point x="87" y="74"/>
      <point x="87" y="179" type="curve" smooth="yes"/>
      <point x="87" y="282"/>
      <point x="144" y="324"/>
    </contour>
    <contour>
      <point x="286" y="700" type="curve" smooth="yes"/>
      <point x="358" y="700"/>
      <point x="405" y="655"/>
      <point x="405" y="581" type="curve" smooth="yes"/>
      <point x="405" y="499"/>
      <point x="348" y="450"/>
      <point x="254" y="406" type="curve"/>
      <point x="192" y="472"/>
      <point x="158" y="515"/>
      <point x="158" y="576" type="curve" smooth="yes"/>
      <point x="158" y="652"/>
      <point x="206" y="700"/>
    </contour>
  </outline>
</glyph>
<glyph name="ampersand.serif" format="2">
  <advance width="668"/>
  <unicode hex="0026"/>
  <outline>
    <contour>
      <point x="229" y="-10" type="curve" smooth="yes"/>
      <point x="344" y="-10"/>
      <point x="406" y="48"/>
      <point x="450" y="112" type="curve"/>
      <point x="554" y="0" type="line"/>
      <point x="663" y="0" type="line"/>
      <point x="663" y="10" type="line"/>
      <point x="648" y="10" type="line" smooth="yes"/>
      <point x="602" y="10"/>
      <point x="581" y="14"/>
      <point x="561" y="35" type="curve" smooth="yes"/>
      <point x="465" y="138" type="line"/>
      <point x="496" y="195"/>
      <point x="513" y="273"/>
      <point x="519" y="335" type="curve" smooth="yes"/>
      <point x="525" y="402"/>
      <point x="531" y="405"/>
      <point x="596" y="405" type="curve" smooth="yes"/>
      <point x="627" y="405" type="line"/>
      <point x="627" y="415" type="line"/>
      <point x="495" y="415" type="line"/>
      <point x="495" y="382" type="line" smooth="yes"/>
      <point x="495" y="317"/>
      <point x="483" y="227"/>
      <point x="448" y="156" type="curve"/>
      <point x="219" y="403" type="line"/>
      <point x="355" y="441"/>
      <point x="423" y="490"/>
      <point x="423" y="582" type="curve" smooth="yes"/>
      <point x="423" y="655"/>
      <point x="376" y="724"/>
      <point x="264" y="724" type="curve" smooth="yes"/>
      <point x="139" y="724"/>
      <point x="95" y="649"/>
      <point x="95" y="580" type="curve" smooth="yes"/>
      <point x="95" y="495"/>
      <point x="134" y="454"/>
      <point x="181" y="404" type="curve"/>
      <point x="79" y="368"/>
      <point x="22" y="304"/>
      <point x="22" y="194" type="curve" smooth="yes"/>
      <point x="22" y="78"/>
      <point x="102" y="-10"/>
    </contour>
    <contour>
      <point x="229" y="0" type="curve" smooth="yes"/>
      <point x="124" y="0"/>
      <point x="50" y="71"/>
      <point x="50" y="201" type="curve" smooth="yes"/>
      <point x="50" y="329"/>
      <point x="128" y="375"/>
      <point x="189" y="395" type="curve"/>
      <point x="434" y="130" type="line"/>
      <point x="394" y="51"/>
      <point x="329" y="0"/>
    </contour>
    <contour>
      <point x="211" y="412" type="curve"/>
      <point x="156" y="470"/>
      <point x="123" y="507"/>
      <point x="123" y="580" type="curve" smooth="yes"/>
      <point x="123" y="666"/>
      <point x="172" y="714"/>
      <point x="266" y="714" type="curve" smooth="yes"/>
      <point x="351" y="714"/>
      <point x="395" y="659"/>
      <point x="395" y="581" type="curve" smooth="yes"/>
      <point x="395" y="499"/>
      <point x="343" y="444"/>
    </contour>
  </outline>
</glyph>
<glyph name="parenleft" format="2">
  <advance width="242"/>
  <unicode hex="0028"/>
  <outline>
    <contour>
      <point x="39" y="274" type="curve" smooth="yes"/>
      <point x="39" y="99"/>
      <point x="89" y="-46"/>
      <point x="175" y="-158" type="curve"/>
      <point x="209" y="-158" type="line"/>
      <point x="114" y="-39"/>
      <point x="67" y="109"/>
      <point x="67" y="275" type="curve" smooth="yes"/>
      <point x="67" y="443"/>
      <point x="112" y="596"/>
      <point x="209" y="714" type="curve"/>
      <point x="175" y="714" type="line"/>
      <point x="89" y="606"/>
      <point x="39" y="451"/>
    </contour>
  </outline>
</glyph>
<glyph name="parenright" format="2">
  <advance width="242"/>
  <unicode hex="0029"/>
  <outline>
    <contour>
      <point x="204" y="282" type="curve" smooth="yes"/>
      <point x="204" y="457"/>
      <point x="153" y="602"/>
      <point x="67" y="714" type="curve"/>
      <point x="34" y="714" type="line"/>
      <point x="129" y="595"/>
      <point x="176" y="447"/>
      <point x="176" y="281" type="curve" smooth="yes"/>
      <point x="176" y="113"/>
      <point x="130" y="-40"/>
      <point x="34" y="-158" type="curve"/>
      <point x="67" y="-158" type="line"/>
      <point x="153" y="-50"/>
      <point x="204" y="105"/>
    </contour>
  </outline>
</glyph>
<glyph name="parenright.serif" format="2">
  <advance width="278"/>
  <unicode hex="0029"/>
  <outline>
    <contour>
      <point x="57" y="-103" type="curve"/>
      <point x="57" y="-114" type="line"/>
      <point x="191" y="-61"/>
      <point x="246" y="44"/>
      <point x="246" y="315" type="curve" smooth="yes"/>
      <point x="246" y="587"/>
      <point x="191" y="693"/>
      <point x="57" y="744" type="curve"/>
      <point x="57" y="733" type="line"/>
      <point x="210" y="673"/>
      <point x="218" y="488"/>
      <point x="218" y="315" type="curve" smooth="yes"/>
      <point x="218" y="143"/>
      <point x="207" y="-34"/>
    </contour>
  </outline>
</glyph>
<glyph name="asterisk" format="2">
  <advance width="518"/>
  <unicode hex="002A"/>
  <outline>
    <contour>
      <point x="271" y="758" type="line"/>
      <point x="242" y="758" type="line"/>
      <point x="248" y="552" type="line"/>
      <point x="66" y="621" type="line"/>
      <point x="57" y="594" type="line"/>
      <point x="242" y="537" type="line"/>
      <point x="125" y="374" type="line"/>
      <point x="150" y="358" type="line"/>
      <point x="256" y="527" type="line"/>
      <point x="364" y="357" type="line"/>
      <point x="388" y="374" type="line"/>
      <point x="271" y="537" type="line"/>
      <point x="455" y="594" type="line"/>
      <point x="447" y="621" type="line"/>
      <point x="265" y="552" type="line"/>
    </contour>
  </outline>
</glyph>
<glyph name="asterisk.serif" format="2">
  <advance width="420"/>
  <unicode hex="002A"/>
  <outline>
    <contour>
      <point x="192" y="378" type="line"/>
      <point x="220" y="378" type="line"/>
      <point x="213" y="554" type="line"/>
      <point x="352" y="475" type="line"/>
      <point x="364" y="501" type="line"/>
      <point x="214" y="569" type="line"/>
      <point x="363" y="639" type="line"/>
      <point x="352" y="665" type="line"/>
      <point x="213" y="584" type="line"/>
      <point x="219" y="760" type="line"/>
      <point x="191" y="760" type="line"/>
      <point x="198" y="585" type="line"/>
      <point x="59" y="666" type="line"/>
      <point x="47" y="641" type="line"/>
      <point x="197" y="570" type="line"/>
      <point x="47" y="499" type="line"/>
      <point x="60" y="473" type="line"/>
      <point x="198" y="554" type="line"/>
    </contour>
  </outline>
</glyph>
<glyph name="plus" format="2">
  <advance width="536"/>
  <unicode hex="002B"/>
  <outline>
    <contour>
      <point x="280" y="365" type="line"/>
      <point x="280" y="583" type="line"/>
      <point x="255" y="583" type="line"/>
      <point x="255" y="365" type="line"/>
      <point x="51" y="365" type="line"/>
      <point x="51" y="341" type="line"/>
      <point x="255" y="341" type="line"/>
      <point x="255" y="123" type="line"/>
      <point x="280" y="123" type="line"/>
      <point x="280" y="341" type="line"/>
      <point x="484" y="341" type="line"/>
      <point x="484" y="365" type="line"/>
    </contour>
  </outline>
</glyph>
<glyph name="comma" format="2">
  <advance width="209"/>
  <unicode hex="002C"/>
  <outline>
    <contour>
      <point x="136" y="104" type="curve"/>
      <point x="133" y="116" type="line"/>
      <point x="103" y="116" type="line"/>
      <point x="93" y="40"/>
      <point x="78" y="-32"/>
      <point x="51" y="-129" type="curve"/>
      <point x="74" y="-129" type="line"/>
      <point x="100" y="-60"/>
      <point x="121" y="30"/>
    </contour>
  </outline>
</glyph>
<glyph name="comma.serif" format="2">
  <advance width="194"/>
  <unicode hex="002C"/>
  <outline>
    <contour>
      <point x="30" y="-143" type="curve"/>
      <point x="30" y="-154" type="line"/>
      <point x="107" y="-127"/>
      <point x="138" y="-67"/>
      <point x="138" y="0" type="curve" smooth="yes"/>
      <point x="138" y="46"/>
      <point x="122" y="73"/>
      <point x="95" y="73" type="curve" smooth="yes"/>
      <point x="78" y="73"/>
      <point x="68" y="61"/>
      <point x="68" y="42" type="curve" smooth="yes"/>
      <point x="68" y="13"/>
      <point x="117" y="8"/>
      <point x="117" y="-30" type="curve" smooth="yes"/>
      <point x="117" y="-72"/>
      <point x="85" y="-126"/>
    </contour>
  </outline>
</glyph>
<glyph name="period.serif" format="2">
  <advance width="194"/>
  <unicode hex="002E"/>
  <outline>
    <contour>
      <point x="88" y="-5" type="curve" smooth="yes"/>
      <point x="99" y="-5"/>
      <point x="108" y="4"/>
      <point x="108" y="35" type="curve" smooth="yes"/>
      <point x="108" y="65"/>
      <point x="99" y="73"/>
      <point x="88" y="73" type="curve" smooth="yes"/>
      <point x="78" y="73"/>
      <point x="68" y="65"/>
      <point x="68" y="35" type="curve" smooth="yes"/>
      <point x="68" y="4"/>
      <point x="78" y="-5"/>
    </contour>
  </outline>
</glyph>
<glyph name="zero" format="2">
  <advance width="537"/>
  <unicode hex="0030"/>
  <outline>
    <contour>
      <point x="478" y="360" type="curve" smooth="yes"/>
      <point x="478" y="577"/>
      <point x="431" y="725"/>
      <point x="269" y="725" type="curve" smooth="yes"/>
      <point x="111" y="725"/>
      <point x="58" y="571"/>
      <point x="58" y="360" type="curve" smooth="yes"/>
      <point x="58" y="106"/>
      <point x="132" y="-10"/>
      <point x="268" y="-10" type="curve" smooth="yes"/>
      <point x="411" y="-10"/>
      <point x="478" y="112"/>
    </contour>
    <contour>
      <point x="85" y="360" type="curve" smooth="yes"/>
      <point x="85" y="557"/>
      <point x="129" y="700"/>
      <point x="269" y="700" type="curve" smooth="yes"/>
      <point x="413" y="700"/>
      <point x="450" y="564"/>
      <point x="450" y="360" type="curve" smooth="yes"/>
      <point x="450" y="127"/>
      <point x="397" y="15"/>
      <point x="268" y="15" type="curve" smooth="yes"/>
      <point x="146" y="15"/>
      <point x="85" y="125"/>
    </contour>
  </outline>
</glyph>
<glyph name="zero.serif" format="2">
  <advance width="559"/>
  <unicode hex="0030"/>
  <outline>
    <contour>
      <point x="280" y="-10" type="curve" smooth="yes"/>
      <point x="430" y="-10"/>
      <point x="500" y="112"/>
      <point x="500" y="358" type="curve" smooth="yes"/>
      <point x="500" y="608"/>
      <point x="436" y="724"/>
      <point x="281" y="724" type="curve" smooth="yes"/>
      <point x="123" y="724"/>
      <point x="59" y="604"/>
      <point x="59" y="359" type="curve" smooth="yes"/>
      <point x="59" y="104"/>
      <point x="125" y="-10"/>
    </contour>
    <contour>
      <point x="279" y="0" type="curve" smooth="yes"/>
      <point x="145" y="0"/>
      <point x="87" y="106"/>
      <point x="87" y="358" type="curve" smooth="yes"/>
      <point x="87" y="593"/>
      <point x="135" y="714"/>
      <point x="280" y="714" type="curve" smooth="yes"/>
      <point x="425" y="714"/>
      <point x="472" y="600"/>
      <point x="472" y="358" type="curve" smooth="yes"/>
      <point x="472" y="114"/>
      <point x="414" y="0"/>
    </contour>
  </outline>
</glyph>
<glyph name="one" format="2">
  <advance width="537"/>
  <unicode hex="0031"/>
  <outline>
    <contour>
      <point x="302" y="0" type="line"/>
      <point x="302" y="714" type="line"/>
      <point x="278" y="714" type="line"/>
      <point x="95" y="572" type="line"/>
      <point x="112" y="551" type="line"/>
      <point x="225" y="642" type="line" smooth="yes"/>
      <point x="248" y="661"/>
      <point x="261" y="671"/>
      <point x="276" y="685" type="curve"/>
      <point x="275" y="658"/>
      <point x="275" y="620"/>
      <point x="275" y="563" type="curve" smooth="yes"/>
      <point x="275" y="0" type="line"/>
    </contour>
  </outline>
</glyph>
<glyph name="one.serif" format="2">
  <advance width="559"/>
  <unicode hex="0031"/>
  <outline>
    <contour>
      <point x="134" y="0" type="line"/>
      <point x="415" y="0" type="line"/>
      <point x="415" y="10" type="line"/>
      <point x="346" y="10" type="line" smooth="yes"/>
      <point x="296" y="10"/>
      <point x="290" y="21"/>
      <point x="290" y="98" type="curve" smooth="yes"/>
      <point x="290" y="718" type="line"/>
      <point x="270" y="718" type="line"/>
      <point x="244" y="683" type="line" smooth="yes"/>
      <point x="204" y="628"/>
      <point x="162" y="595"/>
      <point x="96" y="589" type="curve"/>
      <point x="96" y="578"/>
      <point x="105" y="569"/>
      <point x="126" y="569" type="curve" smooth="yes"/>
      <point x="165" y="569"/>
      <point x="201" y="601"/>
      <point x="262" y="690" type="curve"/>
      <point x="262" y="98" type="line" smooth="yes"/>
      <point x="262" y="21"/>
      <point x="256" y="10"/>
      <point x="206" y="10" type="curve" smooth="yes"/>
      <point x="134" y="10" type="line"/>
    </contour>
  </outline>
</glyph>
<glyph name="two" format="2">
  <advance width="537"/>
  <unicode hex="0032"/>
  <outline>
    <contour>
      <point x="463" y="0" type="line"/>
      <point x="463" y="25" type="line"/>
      <point x="92" y="25" type="line"/>
      <point x="92" y="27" type="line"/>
      <point x="285" y="246" type="line" smooth="yes"/>
      <point x="376" y="349"/>
      <point x="432" y="419"/>
      <point x="432" y="539" type="curve" smooth="yes"/>
      <point x="432" y="652"/>
      <point x="363" y="724"/>
      <point x="254" y="724" type="curve" smooth="yes"/>
      <point x="194" y="724"/>
      <point x="131" y="705"/>
      <point x="74" y="655" type="curve"/>
      <point x="90" y="635" type="line"/>
      <point x="140" y="678"/>
      <point x="198" y="699"/>
      <point x="252" y="699" type="curve" smooth="yes"/>
      <point x="347" y="699"/>
      <point x="404" y="639"/>
      <point x="404" y="539" type="curve" smooth="yes"/>
      <point x="404" y="428"/>
      <point x="355" y="363"/>
      <point x="264" y="260" type="curve" smooth="yes"/>
      <point x="55" y="23" type="line"/>
      <point x="55" y="0" type="line"/>
    </contour>
  </outline>
</glyph>
<glyph name="two.serif" format="2">
  <advance width="559"/>
  <unicode hex="0032"/>
  <outline>
    <contour>
      <point x="71" y="0" type="line"/>
      <point x="483" y="0" type="line"/>
      <point x="488" y="127" type="line"/>
      <point x="478" y="127" type="line"/>
      <point x="476" y="95" type="line" smooth="yes"/>
      <point x="473" y="39"/>
      <point x="467" y="25"/>
      <point x="415" y="25" type="curve" smooth="yes"/>
      <point x="88" y="25" type="line"/>
      <point x="216" y="158" type="line" smooth="yes"/>
      <point x="419" y="371"/>
      <point x="467" y="433"/>
      <point x="467" y="541" type="curve" smooth="yes"/>
      <point x="467" y="634"/>
      <point x="412" y="724"/>
      <point x="276" y="724" type="curve" smooth="yes"/>
      <point x="154" y="724"/>
      <point x="98" y="655"/>
      <point x="98" y="607" type="curve" smooth="yes"/>
      <point x="98" y="583"/>
      <point x="105" y="569"/>
      <point x="124" y="569" type="curve"/>
      <point x="119" y="669"/>
      <point x="178" y="714"/>
      <point x="276" y="714" type="curve" smooth="yes"/>
      <point x="398" y="714"/>
      <point x="439" y="627"/>
      <point x="439" y="539" type="curve" smooth="yes"/>
      <point x="439" y="435"/>
      <point x="397" y="380"/>
      <point x="242" y="209" type="curve" smooth="yes"/>
      <point x="71" y="22" type="line"/>
    </contour>
  </outline>
</glyph>
<glyph name="three" format="2">
  <advance width="537"/>
  <unicode hex="0033"/>
  <outline>
    <contour>
      <point x="443" y="551" type="curve" smooth="yes"/>
      <point x="443" y="665"/>
      <point x="371" y="724"/>
      <point x="256" y="724" type="curve" smooth="yes"/>
      <point x="173" y="724"/>
      <point x="106" y="695"/>
      <point x="51" y="650" type="curve"/>
      <point x="66" y="629" type="line"/>
      <point x="126" y="676"/>
      <point x="186" y="699"/>
      <point x="257" y="699" type="curve" smooth="yes"/>
      <point x="351" y="699"/>
      <point x="415" y="651"/>
      <point x="415" y="551" type="curve" smooth="yes"/>
      <point x="415" y="435"/>
      <point x="324" y="384"/>
      <point x="224" y="384" type="curve" smooth="yes"/>
      <point x="146" y="384" type="line"/>
      <point x="146" y="359" type="line"/>
      <point x="224" y="359" type="line" smooth="yes"/>
      <point x="349" y="359"/>
      <point x="435" y="314"/>
      <point x="435" y="194" type="curve" smooth="yes"/>
      <point x="435" y="85"/>
      <point x="367" y="15"/>
      <point x="232" y="15" type="curve" smooth="yes"/>
      <point x="163" y="15"/>
      <point x="91" y="35"/>
      <point x="44" y="60" type="curve"/>
      <point x="44" y="32" type="line"/>
      <point x="92" y="8"/>
      <point x="155" y="-10"/>
      <point x="232" y="-10" type="curve" smooth="yes"/>
      <point x="383" y="-10"/>
      <point x="463" y="72"/>
      <point x="463" y="194" type="curve" smooth="yes"/>
      <point x="463" y="300"/>
      <point x="404" y="358"/>
      <point x="300" y="373" type="curve"/>
      <point x="300" y="375" type="line"/>
      <point x="382" y="390"/>
      <point x="443" y="457"/>
    </contour>
  </outline>
</glyph>
<glyph name="three.serif" format="2">
  <advance width="559"/>
  <unicode hex="0033"/>
  <outline>
    <contour>
      <point x="272" y="-9" type="curve" smooth="yes"/>
      <point x="383" y="-9"/>
      <point x="485" y="51"/>
      <point x="485" y="192" type="curve" smooth="yes"/>
      <point x="485" y="337"/>
      <point x="386" y="369"/>
      <point x="310" y="375" type="curve"/>
      <point x="374" y="385"/>
      <point x="460" y="443"/>
      <point x="460" y="555" type="curve" smooth="yes"/>
      <point x="460" y="664"/>
      <point x="398" y="724"/>
      <point x="281" y="724" type="curve" smooth="yes"/>
      <point x="166" y="724"/>
      <point x="110" y="658"/>
      <point x="110" y="604" type="curve" smooth="yes"/>
      <point x="110" y="583"/>
      <point x="122" y="569"/>
      <point x="136" y="569" type="curve"/>
      <point x="136" y="667"/>
      <point x="183" y="714"/>
      <point x="284" y="714" type="curve" smooth="yes"/>
      <point x="380" y="714"/>
      <point x="432" y="662"/>
      <point x="432" y="554" type="curve" smooth="yes"/>
      <point x="432" y="438"/>
      <point x="365" y="382"/>
      <point x="276" y="382" type="curve" smooth="yes"/>
      <point x="238" y="382" type="line"/>
      <point x="238" y="367" type="line"/>
      <point x="277" y="367" type="line" smooth="yes"/>
      <point x="404" y="367"/>
      <point x="457" y="318"/>
      <point x="457" y="189" type="curve" smooth="yes"/>
      <point x="457" y="61"/>
      <point x="372" y="1"/>
      <point x="273" y="1" type="curve" smooth="yes"/>
      <point x="158" y="1"/>
      <point x="117" y="50"/>
      <point x="117" y="136" type="curve"/>
      <point x="106" y="136"/>
      <point x="90" y="128"/>
      <point x="90" y="102" type="curve" smooth="yes"/>
      <point x="90" y="48"/>
      <point x="146" y="-9"/>
    </contour>
  </outline>
</glyph>
<glyph name="four" format="2">
  <advance width="537"/>
  <unicode hex="0034"/>
  <outline>
    <contour>
      <point x="526" y="194" type="line"/>
      <point x="526" y="219" type="line"/>
      <point x="401" y="219" type="line"/>
      <point x="401" y="718" type="line"/>
      <point x="372" y="718" type="line"/>
      <point x="23" y="212" type="line"/>
      <point x="23" y="194" type="line"/>
      <point x="374" y="194" type="line"/>
      <point x="374" y="0" type="line"/>
      <point x="401" y="0" type="line"/>
      <point x="401" y="194" type="line"/>
    </contour>
    <contour>
      <point x="374" y="524" type="curve" smooth="yes"/>
      <point x="374" y="219" type="line"/>
      <point x="58" y="219" type="line"/>
      <point x="314" y="592" type="line" smooth="yes"/>
      <point x="342" y="633"/>
      <point x="352" y="650"/>
      <point x="373" y="686" type="curve"/>
      <point x="375" y="686" type="line"/>
      <point x="374" y="635"/>
      <point x="374" y="610"/>
    </contour>
  </outline>
</glyph>
<glyph name="four.serif" format="2">
  <advance width="559"/>
  <unicode hex="0034"/>
  <outline>
    <contour>
      <point x="267" y="0" type="line"/>
      <point x="498" y="0" type="line"/>
      <point x="498" y="10" type="line"/>
      <point x="460" y="10" type="line" smooth="yes"/>
      <point x="410" y="10"/>
      <point x="404" y="21"/>
      <point x="404" y="98" type="curve" smooth="yes"/>
      <point x="404" y="208" type="line"/>
      <point x="545" y="208" type="line"/>
      <point x="545" y="233" type="line"/>
      <point x="404" y="233" type="line"/>
      <point x="404" y="714" type="line"/>
      <point x="375" y="714" type="line"/>
      <point x="23" y="225" type="line"/>
      <point x="23" y="208" type="line"/>
      <point x="376" y="208" type="line"/>
      <point x="376" y="98" type="line" smooth="yes"/>
      <point x="376" y="21"/>
      <point x="370" y="10"/>
      <point x="320" y="10" type="curve" smooth="yes"/>
      <point x="267" y="10" type="line"/>
    </contour>
    <contour>
      <point x="41" y="233" type="line"/>
      <point x="284" y="570" type="line" smooth="yes"/>
      <point x="315" y="613"/>
      <point x="347" y="658"/>
      <point x="378" y="701" type="curve"/>
      <point x="377" y="639"/>
      <point x="376" y="507"/>
      <point x="376" y="449" type="curve" smooth="yes"/>
      <point x="376" y="233" type="line"/>
    </contour>
  </outline>
</glyph>
<glyph name="five" format="2">
  <advance width="537"/>
  <unicode hex="0035"/>
  <outline>
    <contour>
      <point x="258" y="426" type="curve" smooth="yes"/>
      <point x="195" y="426"/>
      <point x="151" y="415"/>
      <point x="120" y="408" type="curve"/>
      <point x="143" y="689" type="line"/>
      <point x="434" y="689" type="line"/>
      <point x="434" y="714" type="line"/>
      <point x="119" y="714" type="line"/>
      <point x="91" y="393" type="line"/>
      <point x="110" y="378" type="line"/>
      <point x="155" y="392"/>
      <point x="199" y="401"/>
      <point x="256" y="401" type="curve" smooth="yes"/>
      <point x="382" y="401"/>
      <point x="447" y="331"/>
      <point x="447" y="217" type="curve" smooth="yes"/>
      <point x="447" y="90"/>
      <point x="364" y="15"/>
      <point x="238" y="15" type="curve" smooth="yes"/>
      <point x="169" y="15"/>
      <point x="111" y="35"/>
      <point x="69" y="62" type="curve"/>
      <point x="69" y="32" type="line"/>
      <point x="109" y="8"/>
      <point x="163" y="-10"/>
      <point x="238" y="-10" type="curve" smooth="yes"/>
      <point x="382" y="-10"/>
      <point x="475" y="76"/>
      <point x="475" y="217" type="curve" smooth="yes"/>
      <point x="475" y="354"/>
      <point x="391" y="426"/>
    </contour>
  </outline>
</glyph>
<glyph name="five.serif" format="2">
  <advance width="559"/>
  <unicode hex="0035"/>
  <outline>
    <contour>
      <point x="249" y="-10" type="curve" smooth="yes"/>
      <point x="389" y="-10"/>
      <point x="460" y="91"/>
      <point x="460" y="216" type="curve" smooth="yes"/>
      <point x="460" y="353"/>
      <point x="368" y="423"/>
      <point x="258" y="423" type="curve" smooth="yes"/>
      <point x="212" y="423"/>
      <point x="163" y="409"/>
      <point x="127" y="384" type="curve"/>
      <point x="156" y="684" type="line"/>
      <point x="364" y="684" type="line" smooth="yes"/>
      <point x="419" y="684"/>
      <point x="427" y="682"/>
      <point x="429" y="629" type="curve" smooth="yes"/>
      <point x="430" y="601" type="line"/>
      <point x="440" y="601" type="line"/>
      <point x="437" y="712" type="line"/>
      <point x="143" y="712" type="line"/>
      <point x="110" y="365" type="line"/>
      <point x="122" y="361" type="line"/>
      <point x="155" y="391"/>
      <point x="205" y="408"/>
      <point x="258" y="408" type="curve" smooth="yes"/>
      <point x="356" y="408"/>
      <point x="432" y="342"/>
      <point x="432" y="216" type="curve" smooth="yes"/>
      <point x="432" y="84"/>
      <point x="368" y="0"/>
      <point x="255" y="0" type="curve" smooth="yes"/>
      <point x="170" y="0"/>
      <point x="106" y="30"/>
      <point x="106" y="126" type="curve"/>
      <point x="90" y="125"/>
      <point x="80" y="116"/>
      <point x="80" y="93" type="curve" smooth="yes"/>
      <point x="80" y="39"/>
      <point x="144" y="-10"/>
    </contour>
  </outline>
</glyph>
<glyph name="six" format="2">
  <advance width="537"/>
  <unicode hex="0036"/>
  <outline>
    <contour>
      <point x="63" y="302" type="curve" smooth="yes"/>
      <point x="63" y="138"/>
      <point x="123" y="-11"/>
      <point x="281" y="-11" type="curve" smooth="yes"/>
      <point x="408" y="-11"/>
      <point x="482" y="85"/>
      <point x="482" y="224" type="curve" smooth="yes"/>
      <point x="482" y="354"/>
      <point x="412" y="438"/>
      <point x="288" y="438" type="curve" smooth="yes"/>
      <point x="181" y="438"/>
      <point x="116" y="377"/>
      <point x="91" y="321" type="curve"/>
      <point x="89" y="321" type="line"/>
      <point x="95" y="603"/>
      <point x="204" y="700"/>
      <point x="345" y="700" type="curve" smooth="yes"/>
      <point x="383" y="700"/>
      <point x="414" y="694"/>
      <point x="437" y="685" type="curve"/>
      <point x="437" y="712" type="line"/>
      <point x="412" y="720"/>
      <point x="382" y="725"/>
      <point x="345" y="725" type="curve" smooth="yes"/>
      <point x="180" y="725"/>
      <point x="63" y="607"/>
    </contour>
    <contour>
      <point x="281" y="14" type="curve" smooth="yes"/>
      <point x="133" y="14"/>
      <point x="93" y="178"/>
      <point x="93" y="257" type="curve" smooth="yes"/>
      <point x="93" y="324"/>
      <point x="168" y="413"/>
      <point x="286" y="413" type="curve" smooth="yes"/>
      <point x="400" y="413"/>
      <point x="455" y="341"/>
      <point x="455" y="224" type="curve" smooth="yes"/>
      <point x="455" y="94"/>
      <point x="389" y="14"/>
    </contour>
  </outline>
</glyph>
<glyph name="six.serif" format="2">
  <advance width="559"/>
  <unicode hex="0036"/>
  <outline>
    <contour>
      <point x="293" y="-10" type="curve" smooth="yes"/>
      <point x="425" y="-10"/>
      <point x="488" y="83"/>
      <point x="488" y="220" type="curve" smooth="yes"/>
      <point x="488" y="355"/>
      <point x="409" y="427"/>
      <point x="296" y="427" type="curve" smooth="yes"/>
      <point x="233" y="427"/>
      <point x="180" y="403"/>
      <point x="109" y="348" type="curve"/>
      <point x="109" y="609"/>
      <point x="199" y="714"/>
      <point x="318" y="714" type="curve" smooth="yes"/>
      <point x="401" y="714"/>
      <point x="437" y="681"/>
      <point x="437" y="589" type="curve"/>
      <point x="454" y="589"/>
      <point x="461" y="603"/>
      <point x="461" y="624" type="curve" smooth="yes"/>
      <point x="461" y="672"/>
      <point x="424" y="724"/>
      <point x="318" y="724" type="curve" smooth="yes"/>
      <point x="184" y="724"/>
      <point x="81" y="627"/>
      <point x="81" y="338" type="curve" smooth="yes"/>
      <point x="81" y="100"/>
      <point x="161" y="-10"/>
    </contour>
    <contour>
      <point x="296" y="0" type="curve" smooth="yes"/>
      <point x="171" y="0"/>
      <point x="113" y="120"/>
      <point x="109" y="335" type="curve"/>
      <point x="186" y="394"/>
      <point x="232" y="412"/>
      <point x="296" y="412" type="curve" smooth="yes"/>
      <point x="407" y="412"/>
      <point x="460" y="334"/>
      <point x="460" y="221" type="curve" smooth="yes"/>
      <point x="460" y="86"/>
      <point x="408" y="0"/>
    </contour>
  </outline>
</glyph>
<glyph name="seven" format="2">
  <advance width="537"/>
  <unicode hex="0037"/>
  <outline>
    <contour>
      <point x="169" y="0" type="line"/>
      <point x="200" y="0" type="line"/>
      <point x="480" y="697" type="line"/>
      <point x="480" y="714" type="line"/>
      <point x="54" y="714" type="line"/>
      <point x="54" y="689" type="line"/>
      <point x="448" y="689" type="line"/>
    </contour>
  </outline>
</glyph>
<glyph name="seven.serif" format="2">
  <advance width="559"/>
  <unicode hex="0037"/>
  <outline>
    <contour>
      <point x="185" y="0" type="line"/>
      <point x="213" y="0" type="line"/>
      <point x="493" y="690" type="line"/>
      <point x="493" y="712" type="line"/>
      <point x="65" y="712" type="line"/>
      <point x="59" y="568" type="line"/>
      <point x="69" y="568" type="line"/>
      <point x="73" y="631" type="line" smooth="yes"/>
      <point x="76" y="680"/>
      <point x="87" y="684"/>
      <point x="123" y="684" type="curve" smooth="yes"/>
      <point x="475" y="684" type="line"/>
    </contour>
  </outline>
</glyph>
<glyph name="eight" format="2">
  <advance width="537"/>
  <unicode hex="0038"/>
  <outline>
    <contour>
      <point x="267" y="724" type="curve" smooth="yes"/>
      <point x="158" y="724"/>
      <point x="82" y="659"/>
      <point x="82" y="559" type="curve" smooth="yes"/>
      <point x="82" y="460"/>
      <point x="150" y="415"/>
      <point x="233" y="382" type="curve"/>
      <point x="126" y="343"/>
      <point x="60" y="280"/>
      <point x="60" y="175" type="curve" smooth="yes"/>
      <point x="60" y="62"/>
      <point x="141" y="-10"/>
      <point x="263" y="-10" type="curve" smooth="yes"/>
      <point x="381" y="-10"/>
      <point x="474" y="59"/>
      <point x="474" y="181" type="curve" smooth="yes"/>
      <point x="474" y="280"/>
      <point x="407" y="342"/>
      <point x="298" y="382" type="curve"/>
      <point x="392" y="422"/>
      <point x="452" y="473"/>
      <point x="452" y="561" type="curve" smooth="yes"/>
      <point x="452" y="662"/>
      <point x="382" y="724"/>
    </contour>
    <contour>
      <point x="88" y="175" type="curve" smooth="yes"/>
      <point x="88" y="282"/>
      <point x="165" y="333"/>
      <point x="263" y="368" type="curve"/>
      <point x="290" y="358" type="line" smooth="yes"/>
      <point x="393" y="320"/>
      <point x="446" y="268"/>
      <point x="446" y="181" type="curve" smooth="yes"/>
      <point x="446" y="72"/>
      <point x="369" y="15"/>
      <point x="263" y="15" type="curve" smooth="yes"/>
      <point x="158" y="15"/>
      <point x="88" y="76"/>
    </contour>
    <contour>
      <point x="267" y="699" type="curve" smooth="yes"/>
      <point x="365" y="699"/>
      <point x="424" y="653"/>
      <point x="424" y="561" type="curve" smooth="yes"/>
      <point x="424" y="475"/>
      <point x="358" y="433"/>
      <point x="269" y="394" type="curve"/>
      <point x="173" y="430"/>
      <point x="110" y="470"/>
      <point x="110" y="559" type="curve" smooth="yes"/>
      <point x="110" y="649"/>
      <point x="175" y="699"/>
    </contour>
  </outline>
</glyph>
<glyph name="eight.serif" format="2">
  <advance width="559"/>
  <unicode hex="0038"/>
  <outline>
    <contour>
      <point x="278" y="-10" type="curve" smooth="yes"/>
      <point x="405" y="-10"/>
      <point x="493" y="50"/>
      <point x="493" y="167" type="curve" smooth="yes"/>
      <point x="493" y="271"/>
      <point x="450" y="319"/>
      <point x="314" y="378" type="curve"/>
      <point x="423" y="415"/>
      <point x="472" y="471"/>
      <point x="472" y="562" type="curve" smooth="yes"/>
      <point x="472" y="653"/>
      <point x="409" y="724"/>
      <point x="286" y="724" type="curve" smooth="yes"/>
      <point x="167" y="724"/>
      <point x="99" y="661"/>
      <point x="99" y="555" type="curve" smooth="yes"/>
      <point x="99" y="470"/>
      <point x="147" y="420"/>
      <point x="262" y="371" type="curve"/>
      <point x="132" y="328"/>
      <point x="74" y="266"/>
      <point x="74" y="169" type="curve" smooth="yes"/>
      <point x="74" y="57"/>
      <point x="145" y="-10"/>
    </contour>
    <contour>
      <point x="278" y="0" type="curve" smooth="yes"/>
      <point x="160" y="0"/>
      <point x="102" y="56"/>
      <point x="102" y="171" type="curve" smooth="yes"/>
      <point x="102" y="268"/>
      <point x="155" y="328"/>
      <point x="276" y="365" type="curve"/>
      <point x="419" y="307"/>
      <point x="465" y="262"/>
      <point x="465" y="169" type="curve" smooth="yes"/>
      <point x="465" y="49"/>
      <point x="391" y="0"/>
    </contour>
    <contour>
      <point x="300" y="384" type="curve"/>
      <point x="164" y="437"/>
      <point x="127" y="483"/>
      <point x="127" y="561" type="curve" smooth="yes"/>
      <point x="127" y="661"/>
      <point x="184" y="714"/>
      <point x="286" y="714" type="curve" smooth="yes"/>
      <point x="401" y="714"/>
      <point x="444" y="646"/>
      <point x="444" y="558" type="curve" smooth="yes"/>
      <point x="444" y="468"/>
      <point x="400" y="415"/>
    </contour>
  </outline>
</glyph>
<glyph name="nine" format="2">
  <advance width="537"/>
  <unicode hex="0039"/>
  <outline>
    <contour>
      <point x="470" y="412" type="curve" smooth="yes"/>
      <point x="470" y="576"/>
      <point x="410" y="725"/>
      <point x="253" y="725" type="curve" smooth="yes"/>
      <point x="125" y="725"/>
      <point x="51" y="629"/>
      <point x="51" y="490" type="curve" smooth="yes"/>
      <point x="51" y="360"/>
      <point x="122" y="276"/>
      <point x="245" y="276" type="curve" smooth="yes"/>
      <point x="352" y="276"/>
      <point x="417" y="337"/>
      <point x="442" y="393" type="curve"/>
      <point x="444" y="393" type="line"/>
      <point x="438" y="111"/>
      <point x="330" y="14"/>
      <point x="188" y="14" type="curve" smooth="yes"/>
      <point x="149" y="14"/>
      <point x="110" y="21"/>
      <point x="87" y="30" type="curve"/>
      <point x="87" y="2" type="line"/>
      <point x="112" y="-6"/>
      <point x="149" y="-11"/>
      <point x="188" y="-11" type="curve" smooth="yes"/>
      <point x="353" y="-11"/>
      <point x="470" y="107"/>
    </contour>
    <contour>
      <point x="253" y="700" type="curve" smooth="yes"/>
      <point x="400" y="700"/>
      <point x="440" y="536"/>
      <point x="440" y="457" type="curve" smooth="yes"/>
      <point x="440" y="390"/>
      <point x="367" y="301"/>
      <point x="249" y="301" type="curve" smooth="yes"/>
      <point x="133" y="301"/>
      <point x="78" y="373"/>
      <point x="78" y="490" type="curve" smooth="yes"/>
      <point x="78" y="620"/>
      <point x="144" y="700"/>
    </contour>
  </outline>
</glyph>
<glyph name="nine.serif" format="2">
  <advance width="559"/>
  <unicode hex="0039"/>
  <outline>
    <contour>
      <point x="231" y="-11" type="curve" smooth="yes"/>
      <point x="407" y="-11"/>
      <point x="478" y="124"/>
      <point x="478" y="388" type="curve" smooth="yes"/>
      <point x="478" y="613"/>
      <point x="400" y="724"/>
      <point x="257" y="724" type="curve" smooth="yes"/>
      <point x="132" y="724"/>
      <point x="71" y="627"/>
      <point x="71" y="490" type="curve" smooth="yes"/>
      <point x="71" y="381"/>
      <point x="133" y="293"/>
      <point x="268" y="293" type="curve" smooth="yes"/>
      <point x="356" y="293"/>
      <point x="425" y="345"/>
      <point x="450" y="367" type="curve"/>
      <point x="450" y="127"/>
      <point x="383" y="-1"/>
      <point x="231" y="-1" type="curve" smooth="yes"/>
      <point x="166" y="-1"/>
      <point x="132" y="25"/>
      <point x="120" y="85" type="curve"/>
      <point x="107" y="82"/>
      <point x="103" y="70"/>
      <point x="103" y="60" type="curve" smooth="yes"/>
      <point x="103" y="29"/>
      <point x="141" y="-11"/>
    </contour>
    <contour>
      <point x="268" y="303" type="curve" smooth="yes"/>
      <point x="157" y="303"/>
      <point x="99" y="376"/>
      <point x="99" y="488" type="curve" smooth="yes"/>
      <point x="99" y="620"/>
      <point x="144" y="714"/>
      <point x="261" y="714" type="curve" smooth="yes"/>
      <point x="385" y="714"/>
      <point x="450" y="589"/>
      <point x="450" y="380" type="curve"/>
      <point x="429" y="361"/>
      <point x="359" y="303"/>
    </contour>
  </outline>
</glyph>
<glyph name="colon" format="2">
  <advance width="209"/>
  <unicode hex="003A"/>
  <outline>
    <contour>
      <point x="79" y="23" type="curve" smooth="yes"/>
      <point x="79" y="6"/>
      <point x="85" y="-8"/>
      <point x="104" y="-8" type="curve" smooth="yes"/>
      <point x="127" y="-8"/>
      <point x="131" y="6"/>
      <point x="131" y="23" type="curve" smooth="yes"/>
      <point x="131" y="39"/>
      <point x="127" y="54"/>
      <point x="104" y="54" type="curve" smooth="yes"/>
      <point x="85" y="54"/>
      <point x="79" y="39"/>
    </contour>
    <contour>
      <point x="79" y="501" type="curve" smooth="yes"/>
      <point x="79" y="484"/>
      <point x="85" y="470"/>
      <point x="104" y="470" type="curve" smooth="yes"/>
      <point x="127" y="470"/>
      <point x="131" y="484"/>
      <point x="131" y="501" type="curve" smooth="yes"/>
      <point x="131" y="517"/>
      <point x="127" y="532"/>
      <point x="104" y="532" type="curve" smooth="yes"/>
      <point x="85" y="532"/>
      <point x="79" y="517"/>
    </contour>
  </outline>
</glyph>
<glyph name="colon.serif" format="2">
  <advance width="224"/>
  <unicode hex="003A"/>
  <outline>
    <contour>
      <point x="101" y="433" type="curve" smooth="yes"/>
      <point x="112" y="433"/>
      <point x="121" y="442"/>
      <point x="121" y="473" type="curve" smooth="yes"/>
      <point x="121" y="503"/>
      <point x="112" y="511"/>
      <point x="101" y="511" type="curve" smooth="yes"/>
      <point x="91" y="511"/>
      <point x="81" y="503"/>
      <point x="81" y="473" type="curve" smooth="yes"/>
      <point x="81" y="442"/>
      <point x="91" y="433"/>
    </contour>
    <contour>
      <point x="101" y="-5" type="curve" smooth="yes"/>
      <point x="112" y="-5"/>
      <point x="121" y="4"/>
      <point x="121" y="35" type="curve" smooth="yes"/>
      <point x="121" y="65"/>
      <point x="112" y="73"/>
      <point x="101" y="73" type="curve" smooth="yes"/>
      <point x="91" y="73"/>
      <point x="81" y="65"/>
      <point x="81" y="35" type="curve" smooth="yes"/>
      <point x="81" y="4"/>
      <point x="91" y="-5"/>
    </contour>
  </outline>
</glyph>
<glyph name="semicolon" format="2">
  <advance width="209"/>
  <unicode hex="003B"/>
  <outline>
    <contour>
      <point x="120" y="104" type="curve"/>
      <point x="117" y="116" type="line"/>
      <point x="87" y="116" type="line"/>
      <point x="77" y="40"/>
      <point x="62" y="-32"/>
      <point x="35" y="-129" type="curve"/>
      <point x="58" y="-129" type="line"/>
      <point x="84" y="-60"/>
      <point x="105" y="30"/>
    </contour>
    <contour>
      <point x="79" y="501" type="curve" smooth="yes"/>
      <point x="79" y="484"/>
      <point x="84" y="470"/>
      <point x="104" y="470" type="curve" smooth="yes"/>
      <point x="127" y="470"/>
      <point x="131" y="484"/>
      <point x="131" y="501" type="curve" smooth="yes"/>
      <point x="131" y="517"/>
      <point x="127" y="532"/>
      <point x="104" y="532" type="curve" smooth="yes"/>
      <point x="84" y="532"/>
      <point x="79" y="517"/>
    </contour>
  </outline>
</glyph>
<glyph name="semicolon.serif" format="2">
  <advance width="224"/>
  <unicode hex="003B"/>
  <outline>
    <contour>
      <point x="42" y="-143" type="curve"/>
      <point x="42" y="-154" type="line"/>
      <point x="119" y="-127"/>
      <point x="150" y="-67"/>
      <point x="150" y="0" type="curve" smooth="yes"/>
      <point x="150" y="46"/>
      <point x="134" y="73"/>
      <point x="107" y="73" type="curve" smooth="yes"/>
      <point x="90" y="73"/>
      <point x="80" y="61"/>
      <point x="80" y="42" type="curve" smooth="yes"/>
      <point x="80" y="13"/>
      <point x="129" y="8"/>
      <point x="129" y="-30" type="curve" smooth="yes"/>
      <point x="129" y="-72"/>
      <point x="97" y="-126"/>
    </contour>
    <contour>
      <point x="110" y="433" type="curve" smooth="yes"/>
      <point x="121" y="433"/>
      <point x="130" y="442"/>
      <point x="130" y="473" type="curve" smooth="yes"/>
      <point x="130" y="503"/>
      <point x="121" y="511"/>
      <point x="110" y="511" type="curve" smooth="yes"/>
      <point x="100" y="511"/>
      <point x="90" y="503"/>
      <point x="90" y="473" type="curve" smooth="yes"/>
      <point x="90" y="442"/>
      <point x="100" y="433"/>
    </contour>
  </outline>
</glyph>
<glyph name="less" format="2">
  <advance width="535"/>
  <unicode hex="003C"/>
  <outline>
    <contour>
      <point x="483" y="138" type="line"/>
      <point x="483" y="164" type="line"/>
      <point x="87" y="362" type="line"/>
      <point x="483" y="560" type="line"/>
      <point x="483" y="586" type="line"/>
      <point x="52" y="371" type="line"/>
      <point x="52" y="353" type="line"/>
    </contour>
  </outline>
</glyph>
<glyph name="equal" format="2">
  <advance width="536"/>
  <unicode hex="003D"/>
  <outline>
    <contour>
      <point x="52" y="443" type="line"/>
      <point x="484" y="443" type="line"/>
      <point x="484" y="467" type="line"/>
      <point x="52" y="467" type="line"/>
    </contour>
    <contour>
      <point x="52" y="239" type="line"/>
      <point x="484" y="239" type="line"/>
      <point x="484" y="263" type="line"/>
      <point x="52" y="263" type="line"/>
    </contour>
  </outline>
</glyph>
<glyph name="equal.serif" format="2">
  <advance width="559"/>
  <unicode hex="003D"/>
  <outline>
    <contour>
      <point x="68" y="455" type="line"/>
      <point x="491" y="455" type="line"/>
      <point x="491" y="475" type="line"/>
      <point x="68" y="475" type="line"/>
    </contour>
    <contour>
      <point x="68" y="239" type="line"/>
      <point x="491" y="239" type="line"/>
      <point x="491" y="259" type="line"/>
      <point x="68" y="259" type="line"/>
    </contour>
  </outline>
</glyph>
<glyph name="question" format="2">
  <advance width="389"/>
  <unicode hex="003F"/>
  <outline>
    <contour>
      <point x="137" y="186" type="curve" smooth="yes"/>
      <point x="137" y="174" type="line"/>
      <point x="161" y="174" type="line"/>
      <point x="161" y="186" type="line" smooth="yes"/>
      <point x="161" y="277"/>
      <point x="180" y="314"/>
      <point x="229" y="350" type="curve" smooth="yes"/>
      <point x="304" y="405"/>
      <point x="353" y="454"/>
      <point x="353" y="554" type="curve" smooth="yes"/>
      <point x="353" y="668"/>
      <point x="284" y="724"/>
      <point x="178" y="724" type="curve" smooth="yes"/>
      <point x="126" y="724"/>
      <point x="89" y="715"/>
      <point x="35" y="691" type="curve"/>
      <point x="45" y="665" type="line"/>
      <point x="90" y="689"/>
      <point x="131" y="699"/>
      <point x="178" y="699" type="curve" smooth="yes"/>
      <point x="265" y="699"/>
      <point x="326" y="654"/>
      <point x="326" y="554" type="curve" smooth="yes"/>
      <point x="326" y="463"/>
      <point x="283" y="423"/>
      <point x="215" y="371" type="curve" smooth="yes"/>
      <point x="153" y="323"/>
      <point x="137" y="285"/>
    </contour>
    <contour>
      <point x="125" y="23" type="curve" smooth="yes"/>
      <point x="125" y="6"/>
      <point x="130" y="-8"/>
      <point x="150" y="-8" type="curve" smooth="yes"/>
      <point x="173" y="-8"/>
      <point x="177" y="6"/>
      <point x="177" y="23" type="curve" smooth="yes"/>
      <point x="177" y="39"/>
      <point x="173" y="54"/>
      <point x="150" y="54" type="curve" smooth="yes"/>
      <point x="130" y="54"/>
      <point x="125" y="39"/>
    </contour>
  </outline>
</glyph>
<glyph name="question.serif" format="2">
  <advance width="460"/>
  <unicode hex="003F"/>
  <outline>
    <contour>
      <point x="204" y="332" type="curve"/>
      <point x="211" y="201" type="line"/>
      <point x="226" y="201" type="line"/>
      <point x="233" y="330" type="line"/>
      <point x="334" y="370"/>
      <point x="391" y="441"/>
      <point x="391" y="543" type="curve" smooth="yes"/>
      <point x="391" y="653"/>
      <point x="327" y="724"/>
      <point x="212" y="724" type="curve" smooth="yes"/>
      <point x="85" y="724"/>
      <point x="48" y="656"/>
      <point x="48" y="618" type="curve" smooth="yes"/>
      <point x="48" y="594"/>
      <point x="55" y="579"/>
      <point x="74" y="579" type="curve"/>
      <point x="74" y="654"/>
      <point x="95" y="714"/>
      <point x="214" y="714" type="curve" smooth="yes"/>
      <point x="314" y="714"/>
      <point x="366" y="651"/>
      <point x="366" y="546" type="curve" smooth="yes"/>
      <point x="366" y="407"/>
      <point x="273" y="349"/>
    </contour>
    <contour>
      <point x="217" y="-5" type="curve" smooth="yes"/>
      <point x="228" y="-5"/>
      <point x="237" y="4"/>
      <point x="237" y="35" type="curve" smooth="yes"/>
      <point x="237" y="65"/>
      <point x="228" y="73"/>
      <point x="217" y="73" type="curve" smooth="yes"/>
      <point x="207" y="73"/>
      <point x="197" y="65"/>
      <point x="197" y="35" type="curve" smooth="yes"/>
      <point x="197" y="4"/>
      <point x="207" y="-5"/>
    </contour>
  </outline>
</glyph>
<glyph name="at" format="2">
  <advance width="826"/>
  <unicode hex="0040"/>
  <outline>
    <contour>
      <point x="777" y="351" type="curve" smooth="yes"/>
      <point x="777" y="569"/>
      <point x="648" y="706"/>
      <point x="439" y="706" type="curve" smooth="yes"/>
      <point x="208" y="706"/>
      <point x="49" y="556"/>
      <point x="49" y="284" type="curve" smooth="yes"/>
      <point x="49" y="49"/>
      <point x="179" y="-100"/>
      <point x="390" y="-100" type="curve" smooth="yes"/>
      <point x="462" y="-100"/>
      <point x="526" y="-86"/>
      <point x="580" y="-62" type="curve"/>
      <point x="580" y="-34" type="line"/>
      <point x="520" y="-61"/>
      <point x="453" y="-75"/>
      <point x="390" y="-75" type="curve" smooth="yes"/>
      <point x="193" y="-75"/>
      <point x="76" y="62"/>
      <point x="76" y="284" type="curve" smooth="yes"/>
      <point x="76" y="539"/>
      <point x="226" y="681"/>
      <point x="439" y="681" type="curve" smooth="yes"/>
      <point x="640" y="681"/>
      <point x="750" y="549"/>
      <point x="750" y="351" type="curve" smooth="yes"/>
      <point x="750" y="223"/>
      <point x="712" y="132"/>
      <point x="630" y="132" type="curve" smooth="yes"/>
      <point x="574" y="132"/>
      <point x="553" y="174"/>
      <point x="553" y="246" type="curve" smooth="yes"/>
      <point x="553" y="280"/>
      <point x="556" y="317"/>
      <point x="557" y="341" type="curve" smooth="yes"/>
      <point x="564" y="486" type="line"/>
      <point x="528" y="499"/>
      <point x="487" y="506"/>
      <point x="442" y="506" type="curve" smooth="yes"/>
      <point x="323" y="506"/>
      <point x="242" y="412"/>
      <point x="242" y="284" type="curve" smooth="yes"/>
      <point x="242" y="169"/>
      <point x="294" y="107"/>
      <point x="386" y="107" type="curve" smooth="yes"/>
      <point x="447" y="107"/>
      <point x="504" y="137"/>
      <point x="530" y="212" type="curve"/>
      <point x="532" y="212" type="line"/>
      <point x="534" y="144"/>
      <point x="573" y="107"/>
      <point x="630" y="107" type="curve" smooth="yes"/>
      <point x="730" y="107"/>
      <point x="777" y="214"/>
    </contour>
    <contour>
      <point x="270" y="284" type="curve" smooth="yes"/>
      <point x="270" y="405"/>
      <point x="340" y="481"/>
      <point x="442" y="481" type="curve" smooth="yes"/>
      <point x="480" y="481"/>
      <point x="510" y="476"/>
      <point x="537" y="466" type="curve"/>
      <point x="529" y="316" type="line" smooth="yes"/>
      <point x="522" y="189"/>
      <point x="474" y="132"/>
      <point x="387" y="132" type="curve" smooth="yes"/>
      <point x="308" y="132"/>
      <point x="270" y="188"/>
    </contour>
  </outline>
</glyph>
<glyph name="at.serif" format="2">
  <advance width="921"/>
  <unicode hex="0040"/>
  <outline>
    <contour>
      <point x="392" y="-142" type="curve" smooth="yes"/>
      <point x="507" y="-142"/>
      <point x="593" y="-91"/>
      <point x="653" y="-45" type="curve"/>
      <point x="646" y="-37" type="line"/>
      <point x="583" y="-86"/>
      <point x="501" y="-132"/>
      <point x="392" y="-132" type="curve" smooth="yes"/>
      <point x="211" y="-132"/>
      <point x="111" y="-39"/>
      <point x="111" y="192" type="curve" smooth="yes"/>
      <point x="111" y="480"/>
      <point x="276" y="704"/>
      <point x="534" y="704" type="curve" smooth="yes"/>
      <point x="701" y="704"/>
      <point x="822" y="582"/>
      <point x="822" y="394" type="curve" smooth="yes"/>
      <point x="822" y="215"/>
      <point x="727" y="87"/>
      <point x="650" y="87" type="curve" smooth="yes"/>
      <point x="595" y="87"/>
      <point x="575" y="120"/>
      <point x="575" y="184" type="curve" smooth="yes"/>
      <point x="575" y="211"/>
      <point x="576" y="236"/>
      <point x="590" y="291" type="curve" smooth="yes"/>
      <point x="647" y="520" type="line"/>
      <point x="638" y="520" type="line"/>
      <point x="614" y="497" type="line"/>
      <point x="591" y="514"/>
      <point x="549" y="529"/>
      <point x="513" y="529" type="curve" smooth="yes"/>
      <point x="379" y="529"/>
      <point x="274" y="403"/>
      <point x="274" y="237" type="curve" smooth="yes"/>
      <point x="274" y="124"/>
      <point x="329" y="77"/>
      <point x="401" y="77" type="curve" smooth="yes"/>
      <point x="478" y="77"/>
      <point x="524" y="144"/>
      <point x="545" y="190" type="curve"/>
      <point x="547" y="190" type="line"/>
      <point x="546" y="122"/>
      <point x="584" y="77"/>
      <point x="650" y="77" type="curve" smooth="yes"/>
      <point x="744" y="77"/>
      <point x="850" y="209"/>
      <point x="850" y="392" type="curve" smooth="yes"/>
      <point x="850" y="579"/>
      <point x="726" y="714"/>
      <point x="530" y="714" type="curve" smooth="yes"/>
      <point x="285" y="714"/>
      <point x="83" y="511"/>
      <point x="83" y="186" type="curve" smooth="yes"/>
      <point x="83" y="-36"/>
      <point x="194" y="-142"/>
    </contour>
    <contour>
      <point x="405" y="87" type="curve" smooth="yes"/>
      <point x="344" y="87"/>
      <point x="302" y="129"/>
      <point x="302" y="235" type="curve" smooth="yes"/>
      <point x="302" y="384"/>
      <point x="381" y="519"/>
      <point x="513" y="519" type="curve" smooth="yes"/>
      <point x="555" y="519"/>
      <point x="590" y="501"/>
      <point x="606" y="473" type="curve"/>
      <point x="546" y="224" type="line" smooth="yes"/>
      <point x="531" y="164"/>
      <point x="474" y="87"/>
    </contour>
  </outline>
</glyph>
<glyph name="A" format="2">
  <advance width="545"/>
  <unicode hex="0041"/>
  <anchor x="273" y="0" name="bottom"/>
  <anchor x="273" y="714" name="top"/>
  <anchor x="522" y="714" name="topright"/>
  <outline>
    <contour>
      <point x="516" y="0" type="line"/>
      <point x="545" y="0" type="line"/>
      <point x="291" y="716" type="line"/>
      <point x="265" y="716" type="line"/>
      <point x="0" y="0" type="line"/>
      <point x="29" y="0" type="line"/>
      <point x="129" y="271" type="line"/>
      <point x="419" y="271" type="line"/>
    </contour>
    <contour>
      <point x="307" y="594" type="curve" smooth="yes"/>
      <point x="409" y="296" type="line"/>
      <point x="138" y="296" type="line"/>
      <point x="245" y="593" type="line" smooth="yes"/>
      <point x="255" y="620"/>
      <point x="267" y="652"/>
      <point x="277" y="682" type="curve"/>
      <point x="288" y="645"/>
      <point x="299" y="617"/>
    </contour>
  </outline>
</glyph>
<glyph name="B" format="2">
  <advance width="579"/>
  <unicode hex="0042"/>
  <anchor x="289" y="0" name="bottom"/>
  <anchor x="290" y="714" name="top"/>
  <anchor x="559" y="714" name="topright"/>
  <outline>
    <contour>
      <point x="277" y="714" type="curve" smooth="yes"/>
      <point x="97" y="714" type="line"/>
      <point x="97" y="0" type="line"/>
      <point x="287" y="0" type="line" smooth="yes"/>
      <point x="425" y="0"/>
      <point x="526" y="56"/>
      <point x="526" y="203" type="curve" smooth="yes"/>
      <point x="526" y="293"/>
      <point x="486" y="357"/>
      <point x="376" y="375" type="curve"/>
      <point x="376" y="377" type="line"/>
      <point x="463" y="393"/>
      <point x="509" y="461"/>
      <point x="509" y="542" type="curve" smooth="yes"/>
      <point x="509" y="657"/>
      <point x="442" y="714"/>
    </contour>
    <contour>
      <point x="286" y="388" type="curve" smooth="yes"/>
      <point x="124" y="388" type="line"/>
      <point x="124" y="689" type="line"/>
      <point x="275" y="689" type="line" smooth="yes"/>
      <point x="419" y="689"/>
      <point x="480" y="646"/>
      <point x="480" y="541" type="curve" smooth="yes"/>
      <point x="480" y="440"/>
      <point x="418" y="388"/>
    </contour>
    <contour>
      <point x="124" y="363" type="line"/>
      <point x="283" y="363" type="line"/>
      <point x="417" y="363"/>
      <point x="497" y="325"/>
      <point x="497" y="202" type="curve" smooth="yes"/>
      <point x="497" y="79"/>
      <point x="421" y="25"/>
      <point x="294" y="25" type="curve" smooth="yes"/>
      <point x="124" y="25" type="line"/>
    </contour>
  </outline>
</glyph>
<glyph name="B.serif" format="2">
  <advance width="622"/>
  <unicode hex="0042"/>
  <anchor x="311" y="0" name="bottom"/>
  <anchor x="311" y="714" name="top"/>
  <anchor x="602" y="714" name="topright"/>
  <outline>
    <contour>
      <point x="52" y="0" type="line"/>
      <point x="320" y="0" type="line" smooth="yes"/>
      <point x="465" y="0"/>
      <point x="539" y="60"/>
      <point x="539" y="200" type="curve" smooth="yes"/>
      <point x="539" y="306"/>
      <point x="485" y="368"/>
      <point x="374" y="378" type="curve"/>
      <point x="374" y="380" type="line"/>
      <point x="452" y="397"/>
      <point x="509" y="435"/>
      <point x="509" y="541" type="curve" smooth="yes"/>
      <point x="509" y="665"/>
      <point x="441" y="714"/>
      <point x="290" y="714" type="curve" smooth="yes"/>
      <point x="52" y="714" type="line"/>
      <point x="52" y="704" type="line"/>
      <point x="93" y="704" type="line" smooth="yes"/>
      <point x="143" y="704"/>
      <point x="149" y="693"/>
      <point x="149" y="616" type="curve" smooth="yes"/>
      <point x="149" y="98" type="line" smooth="yes"/>
      <point x="149" y="21"/>
      <point x="143" y="10"/>
      <point x="93" y="10" type="curve" smooth="yes"/>
      <point x="52" y="10" type="line"/>
    </contour>
    <contour>
      <point x="315" y="10" type="curve" smooth="yes"/>
      <point x="177" y="10" type="line"/>
      <point x="177" y="371" type="line"/>
      <point x="321" y="371" type="line" smooth="yes"/>
      <point x="468" y="371"/>
      <point x="511" y="316"/>
      <point x="511" y="197" type="curve" smooth="yes"/>
      <point x="511" y="71"/>
      <point x="457" y="10"/>
    </contour>
    <contour>
      <point x="287" y="381" type="curve" smooth="yes"/>
      <point x="177" y="381" type="line"/>
      <point x="177" y="704" type="line"/>
      <point x="285" y="704" type="line" smooth="yes"/>
      <point x="427" y="704"/>
      <point x="481" y="660"/>
      <point x="481" y="543" type="curve" smooth="yes"/>
      <point x="481" y="439"/>
      <point x="442" y="381"/>
    </contour>
  </outline>
</glyph>
<glyph name="C" format="2">
  <advance width="578"/>
  <unicode hex="0043"/>
  <anchor x="345" y="0" name="bottom"/>
  <anchor x="363" y="714" name="top"/>
  <anchor x="559" y="714" name="topright"/>
  <outline>
    <contour>
      <point x="380" y="699" type="curve" smooth="yes"/>
      <point x="433" y="699"/>
      <point x="485" y="692"/>
      <point x="538" y="662" type="curve"/>
      <point x="549" y="687" type="line"/>
      <point x="497" y="712"/>
      <point x="442" y="724"/>
      <point x="381" y="724" type="curve" smooth="yes"/>
      <point x="179" y="724"/>
      <point x="59" y="568"/>
      <point x="59" y="360" type="curve" smooth="yes"/>
      <point x="59" y="139"/>
      <point x="163" y="-10"/>
      <point x="363" y="-10" type="curve" smooth="yes"/>
      <point x="437" y="-10"/>
      <point x="494" y="4"/>
      <point x="536" y="21" type="curve"/>
      <point x="536" y="46" type="line"/>
      <point x="490" y="28"/>
      <point x="435" y="15"/>
      <point x="363" y="15" type="curve" smooth="yes"/>
      <point x="180" y="15"/>
      <point x="87" y="153"/>
      <point x="87" y="360" type="curve" smooth="yes"/>
      <point x="87" y="555"/>
      <point x="194" y="699"/>
    </contour>
  </outline>
</glyph>
<glyph name="C.serif" format="2">
  <advance width="550"/>
  <unicode hex="0043"/>
  <anchor x="318" y="0" name="bottom"/>
  <anchor x="315" y="714" name="top"/>
  <anchor x="530" y="714" name="topright"/>
  <outline>
    <contour>
      <point x="323" y="-10" type="curve" smooth="yes"/>
      <point x="445" y="-10"/>
      <point x="510" y="56"/>
      <point x="510" y="93" type="curve" smooth="yes"/>
      <point x="510" y="102"/>
      <point x="504" y="109"/>
      <point x="492" y="111" type="curve"/>
      <point x="473" y="44"/>
      <point x="421" y="0"/>
      <point x="323" y="0" type="curve" smooth="yes"/>
      <point x="161" y="0"/>
      <point x="85" y="132"/>
      <point x="85" y="358" type="curve" smooth="yes"/>
      <point x="85" y="581"/>
      <point x="168" y="714"/>
      <point x="323" y="714" type="curve" smooth="yes"/>
      <point x="459" y="714"/>
      <point x="490" y="665"/>
      <point x="493" y="568" type="curve"/>
      <point x="509" y="568"/>
      <point x="516" y="582"/>
      <point x="516" y="610" type="curve" smooth="yes"/>
      <point x="516" y="666"/>
      <point x="466" y="724"/>
      <point x="323" y="724" type="curve" smooth="yes"/>
      <point x="151" y="724"/>
      <point x="57" y="588"/>
      <point x="57" y="358" type="curve" smooth="yes"/>
      <point x="57" y="131"/>
      <point x="144" y="-10"/>
    </contour>
  </outline>
</glyph>
<glyph name="D" format="2">
  <advance width="653"/>
  <unicode hex="0044"/>
  <anchor x="326" y="0" name="bottom"/>
  <anchor x="327" y="357" name="center"/>
  <anchor x="326" y="714" name="top"/>
  <anchor x="634" y="714" name="topright"/>
  <outline>
    <contour>
      <point x="593" y="364" type="curve" smooth="yes"/>
      <point x="593" y="591"/>
      <point x="486" y="714"/>
      <point x="265" y="714" type="curve" smooth="yes"/>
      <point x="97" y="714" type="line"/>
      <point x="97" y="0" type="line"/>
      <point x="244" y="0" type="line" smooth="yes"/>
      <point x="478" y="0"/>
      <point x="593" y="125"/>
    </contour>
    <contour>
      <point x="564" y="363" type="curve" smooth="yes"/>
      <point x="564" y="136"/>
      <point x="460" y="25"/>
      <point x="246" y="25" type="curve" smooth="yes"/>
      <point x="124" y="25" type="line"/>
      <point x="124" y="689" type="line"/>
      <point x="256" y="689" type="line" smooth="yes"/>
      <point x="471" y="689"/>
      <point x="564" y="575"/>
    </contour>
  </outline>
</glyph>
<glyph name="E.serif" format="2">
  <advance width="585"/>
  <unicode hex="0045"/>
  <anchor x="293" y="0" name="bottom"/>
  <anchor x="293" y="714" name="top"/>
  <anchor x="565" y="714" name="topright"/>
  <outline>
    <contour>
      <point x="50" y="0" type="line"/>
      <point x="524" y="0" type="line"/>
      <point x="531" y="163" type="line"/>
      <point x="521" y="163" type="line"/>
      <point x="517" y="79" type="line" smooth="yes"/>
      <point x="514" y="24"/>
      <point x="508" y="10"/>
      <point x="456" y="10" type="curve" smooth="yes"/>
      <point x="177" y="10" type="line"/>
      <point x="177" y="370" type="line"/>
      <point x="421" y="370" type="line"/>
      <point x="421" y="380" type="line"/>
      <point x="177" y="380" type="line"/>
      <point x="177" y="704" type="line"/>
      <point x="422" y="704" type="line" smooth="yes"/>
      <point x="474" y="704"/>
      <point x="480" y="690"/>
      <point x="483" y="635" type="curve" smooth="yes"/>
      <point x="487" y="551" type="line"/>
      <point x="497" y="551" type="line"/>
      <point x="490" y="714" type="line"/>
      <point x="50" y="714" type="line"/>
      <point x="50" y="704" type="line"/>
      <point x="93" y="704" type="line" smooth="yes"/>
      <point x="143" y="704"/>
      <point x="149" y="693"/>
      <point x="149" y="616" type="curve" smooth="yes"/>
      <point x="149" y="98" type="line" smooth="yes"/>
      <point x="149" y="21"/>
      <point x="143" y="10"/>
      <point x="93" y="10" type="curve" smooth="yes"/>
      <point x="50" y="10" type="line"/>
    </contour>
  </outline>
</glyph>
<glyph name="F" format="2">
  <advance width="464"/>
  <unicode hex="0046"/>
  <anchor x="232" y="0" name="bottom"/>
  <anchor x="279" y="714" name="top"/>
  <anchor x="445" y="714" name="topright"/>
  <outline>
    <contour>
      <point x="124" y="0" type="line"/>
      <point x="124" y="329" type="line"/>
      <point x="443" y="329" type="line"/>
      <point x="443" y="354" type="line"/>
      <point x="124" y="354" type="line"/>
      <point x="124" y="689" type="line"/>
      <point x="460" y="689" type="line"/>
      <point x="460" y="714" type="line"/>
      <point x="97" y="714" type="line"/>
      <point x="97" y="0" type="line"/>
    </contour>
  </outline>
</glyph>
<glyph name="F.serif" format="2">
  <advance width="550"/>
  <unicode hex="0046"/>
  <anchor x="163" y="0" name="bottom"/>
  <anchor x="275" y="714" name="top"/>
  <anchor x="530" y="714" name="topright"/>
  <outline>
    <contour>
      <point x="50" y="0" type="line"/>
      <point x="303" y="0" type="line"/>
      <point x="303" y="10" type="line"/>
      <point x="233" y="10" type="line" smooth="yes"/>
      <point x="183" y="10"/>
      <point x="177" y="21"/>
      <point x="177" y="98" type="curve" smooth="yes"/>
      <point x="177" y="346" type="line"/>
      <point x="423" y="346" type="line"/>
      <point x="423" y="356" type="line"/>
      <point x="177" y="356" type="line"/>
      <point x="177" y="704" type="line"/>
      <point x="424" y="704" type="line" smooth="yes"/>
      <point x="476" y="704"/>
      <point x="482" y="690"/>
      <point x="484" y="635" type="curve" smooth="yes"/>
      <point x="487" y="551" type="line"/>
      <point x="497" y="551" type="line"/>
      <point x="492" y="714" type="line"/>
      <point x="50" y="714" type="line"/>
      <point x="50" y="704" type="line"/>
      <point x="93" y="704" type="line" smooth="yes"/>
      <point x="143" y="704"/>
      <point x="149" y="693"/>
      <point x="149" y="616" type="curve" smooth="yes"/>
      <point x="149" y="98" type="line" smooth="yes"/>
      <point x="149" y="21"/>
      <point x="143" y="10"/>
      <point x="93" y="10" type="curve" smooth="yes"/>
      <point x="50" y="10" type="line"/>
    </contour>
  </outline>
</glyph>
<glyph name="G" format="2">
  <advance width="677"/>
  <unicode hex="0047"/>
  <anchor x="376" y="0" name="bottom"/>
  <anchor x="385" y="726" name="top"/>
  <anchor x="658" y="726" name="topright"/>
  <outline>
    <contour>
      <point x="347" y="350" type="line"/>
      <point x="347" y="325" type="line"/>
      <point x="574" y="325" type="line"/>
      <point x="574" y="50" type="line"/>
      <point x="526" y="28"/>
      <point x="466" y="15"/>
      <point x="394" y="15" type="curve" smooth="yes"/>
      <point x="206" y="15"/>
      <point x="87" y="114"/>
      <point x="87" y="356" type="curve" smooth="yes"/>
      <point x="87" y="554"/>
      <point x="205" y="701"/>
      <point x="398" y="701" type="curve" smooth="yes"/>
      <point x="458" y="701"/>
      <point x="518" y="690"/>
      <point x="581" y="657" type="curve"/>
      <point x="594" y="682" type="line"/>
      <point x="534" y="713"/>
      <point x="470" y="726"/>
      <point x="399" y="726" type="curve" smooth="yes"/>
      <point x="187" y="726"/>
      <point x="59" y="566"/>
      <point x="59" y="355" type="curve" smooth="yes"/>
      <point x="59" y="121"/>
      <point x="174" y="-10"/>
      <point x="391" y="-10" type="curve" smooth="yes"/>
      <point x="466" y="-10"/>
      <point x="540" y="5"/>
      <point x="601" y="36" type="curve"/>
      <point x="601" y="350" type="line"/>
    </contour>
  </outline>
</glyph>
<glyph name="G.serif" format="2">
  <advance width="644"/>
  <unicode hex="0047"/>
  <anchor x="372" y="0" name="bottom"/>
  <anchor x="382" y="714" name="top"/>
  <anchor x="624" y="714" name="topright"/>
  <outline>
    <contour>
      <point x="373" y="-10" type="curve" smooth="yes"/>
      <point x="453" y="-10"/>
      <point x="509" y="1"/>
      <point x="562" y="26" type="curve"/>
      <point x="562" y="224" type="line" smooth="yes"/>
      <point x="562" y="301"/>
      <point x="568" y="312"/>
      <point x="618" y="312" type="curve" smooth="yes"/>
      <point x="637" y="312" type="line"/>
      <point x="637" y="322" type="line"/>
      <point x="445" y="322" type="line"/>
      <point x="445" y="312" type="line"/>
      <point x="478" y="312" type="line" smooth="yes"/>
      <point x="528" y="312"/>
      <point x="534" y="286"/>
      <point x="534" y="209" type="curve" smooth="yes"/>
      <point x="534" y="26" type="line"/>
      <point x="499" y="9"/>
      <point x="439" y="0"/>
      <point x="383" y="0" type="curve" smooth="yes"/>
      <point x="175" y="0"/>
      <point x="87" y="135"/>
      <point x="87" y="358" type="curve" smooth="yes"/>
      <point x="87" y="588"/>
      <point x="199" y="714"/>
      <point x="375" y="714" type="curve" smooth="yes"/>
      <point x="507" y="714"/>
      <point x="538" y="669"/>
      <point x="538" y="566" type="curve"/>
      <point x="556" y="566"/>
      <point x="564" y="579"/>
      <point x="564" y="608" type="curve" smooth="yes"/>
      <point x="564" y="667"/>
      <point x="518" y="724"/>
      <point x="379" y="724" type="curve" smooth="yes"/>
      <point x="183" y="724"/>
      <point x="59" y="588"/>
      <point x="59" y="358" type="curve" smooth="yes"/>
      <point x="59" y="137"/>
      <point x="161" y="-10"/>
    </contour>
  </outline>
</glyph>
<glyph name="H" format="2">
  <advance width="666"/>
  <unicode hex="0048"/>
  <anchor x="333" y="0" name="bottom"/>
  <anchor x="333" y="357" name="center"/>
  <anchor x="333" y="714" name="top"/>
  <anchor x="647" y="714" name="topright"/>
  <outline>
    <contour>
      <point x="569" y="0" type="line"/>
      <point x="569" y="714" type="line"/>
      <point x="542" y="714" type="line"/>
      <point x="542" y="388" type="line"/>
      <point x="124" y="388" type="line"/>
      <point x="124" y="714" type="line"/>
      <point x="97" y="714" type="line"/>
      <point x="97" y="0" type="line"/>
      <point x="124" y="0" type="line"/>
      <point x="124" y="363" type="line"/>
      <point x="542" y="363" type="line"/>
      <point x="542" y="0" type="line"/>
    </contour>
  </outline>
</glyph>
<glyph name="H.serif" format="2">
  <advance width="761"/>
  <unicode hex="0048"/>
  <anchor x="381" y="0" name="bottom"/>
  <anchor x="381" y="374" name="center"/>
  <anchor x="381" y="714" name="top"/>
  <anchor x="741" y="714" name="topright"/>
  <outline>
    <contour>
      <point x="50" y="0" type="line"/>
      <point x="278" y="0" type="line"/>
      <point x="278" y="10" type="line"/>
      <point x="233" y="10" type="line" smooth="yes"/>
      <point x="183" y="10"/>
      <point x="177" y="21"/>
      <point x="177" y="98" type="curve" smooth="yes"/>
      <point x="177" y="369" type="line"/>
      <point x="584" y="369" type="line"/>
      <point x="584" y="98" type="line" smooth="yes"/>
      <point x="584" y="21"/>
      <point x="578" y="10"/>
      <point x="528" y="10" type="curve" smooth="yes"/>
      <point x="483" y="10" type="line"/>
      <point x="483" y="0" type="line"/>
      <point x="711" y="0" type="line"/>
      <point x="711" y="10" type="line"/>
      <point x="668" y="10" type="line" smooth="yes"/>
      <point x="618" y="10"/>
      <point x="612" y="21"/>
      <point x="612" y="98" type="curve" smooth="yes"/>
      <point x="612" y="616" type="line" smooth="yes"/>
      <point x="612" y="693"/>
      <point x="618" y="704"/>
      <point x="668" y="704" type="curve" smooth="yes"/>
      <point x="711" y="704" type="line"/>
      <point x="711" y="714" type="line"/>
      <point x="483" y="714" type="line"/>
      <point x="483" y="704" type="line"/>
      <point x="528" y="704" type="line" smooth="yes"/>
      <point x="578" y="704"/>
      <point x="584" y="693"/>
      <point x="584" y="616" type="curve" smooth="yes"/>
      <point x="584" y="379" type="line"/>
      <point x="177" y="379" type="line"/>
      <point x="177" y="616" type="line" smooth="yes"/>
      <point x="177" y="693"/>
      <point x="183" y="704"/>
      <point x="233" y="704" type="curve" smooth="yes"/>
      <point x="278" y="704" type="line"/>
      <point x="278" y="714" type="line"/>
      <point x="50" y="714" type="line"/>
      <point x="50" y="704" type="line"/>
      <point x="93" y="704" type="line" smooth="yes"/>
      <point x="143" y="704"/>
      <point x="149" y="693"/>
      <point x="149" y="616" type="curve" smooth="yes"/>
      <point x="149" y="98" type="line" smooth="yes"/>
      <point x="149" y="21"/>
      <point x="143" y="10"/>
      <point x="93" y="10" type="curve" smooth="yes"/>
      <point x="50" y="10" type="line"/>
    </contour>
  </outline>
</glyph>
<glyph name="I" format="2">
  <advance width="268"/>
  <unicode hex="0049"/>
  <anchor x="134" y="0" name="bottom"/>
  <anchor x="134" y="714" name="top"/>
  <anchor x="249" y="714" name="topright"/>
  <outline>
    <contour>
      <point x="212" y="0" type="line"/>
      <point x="212" y="20" type="line"/>
      <point x="148" y="23" type="line"/>
      <point x="148" y="690" type="line"/>
      <point x="212" y="694" type="line"/>
      <point x="212" y="714" type="line"/>
      <point x="56" y="714" type="line"/>
      <point x="56" y="694" type="line"/>
      <point x="121" y="690" type="line"/>
      <point x="121" y="23" type="line"/>
      <point x="56" y="20" type="line"/>
      <point x="56" y="0" type="line"/>
    </contour>
  </outline>
</glyph>
<glyph name="I.serif" format="2">
  <advance width="325"/>
  <unicode hex="0049"/>
  <anchor x="163" y="0" name="bottom"/>
  <anchor x="163" y="714" name="top"/>
  <anchor x="305" y="714" name="topright"/>
  <outline>
    <contour>
      <point x="50" y="0" type="line"/>
      <point x="273" y="0" type="line"/>
      <point x="273" y="10" type="line"/>
      <point x="233" y="10" type="line" smooth="yes"/>
      <point x="183" y="10"/>
      <point x="177" y="21"/>
      <point x="177" y="98" type="curve" smooth="yes"/>
      <point x="177" y="616" type="line" smooth="yes"/>
      <point x="177" y="693"/>
      <point x="183" y="704"/>
      <point x="233" y="704" type="curve" smooth="yes"/>
      <point x="273" y="704" type="line"/>
      <point x="273" y="714" type="line"/>
      <point x="50" y="714" type="line"/>
      <point x="50" y="704" type="line"/>
      <point x="93" y="704" type="line" smooth="yes"/>
      <point x="143" y="704"/>
      <point x="149" y="693"/>
      <point x="149" y="616" type="curve" smooth="yes"/>
      <point x="149" y="98" type="line" smooth="yes"/>
      <point x="149" y="21"/>
      <point x="143" y="10"/>
      <point x="93" y="10" type="curve" smooth="yes"/>
      <point x="50" y="10" type="line"/>
    </contour>
  </outline>
</glyph>
<glyph name="J" format="2">
  <advance width="220"/>
  <unicode hex="004A"/>
  <anchor x="-17" y="-164" name="bottom"/>
  <anchor x="113" y="714" name="top"/>
  <anchor x="200" y="714" name="topright"/>
  <outline>
    <contour>
      <point x="-17" y="-174" type="curve" smooth="yes"/>
      <point x="88" y="-174"/>
      <point x="127" y="-97"/>
      <point x="127" y="2" type="curve" smooth="yes"/>
      <point x="127" y="714" type="line"/>
      <point x="99" y="714" type="line"/>
      <point x="99" y="5" type="line" smooth="yes"/>
      <point x="99" y="-86"/>
      <point x="71" y="-148"/>
      <point x="-17" y="-148" type="curve" smooth="yes"/>
      <point x="-46" y="-148"/>
      <point x="-74" y="-142"/>
      <point x="-91" y="-134" type="curve"/>
      <point x="-91" y="-162" type="line"/>
      <point x="-75" y="-168"/>
      <point x="-52" y="-174"/>
    </contour>
  </outline>
</glyph>
<glyph name="K" format="2">
  <advance width="528"/>
  <unicode hex="004B"/>
  <anchor x="294" y="0" name="bottom"/>
  <anchor x="265" y="714" name="top"/>
  <anchor x="509" y="714" name="topright"/>
  <outline>
    <contour>
      <point x="528" y="0" type="line"/>
      <point x="242" y="417" type="line"/>
      <point x="522" y="714" type="line"/>
      <point x="483" y="714" type="line"/>
      <point x="174" y="376" type="line" smooth="yes"/>
      <point x="157" y="357"/>
      <point x="139" y="341"/>
      <point x="124" y="324" type="curve"/>
      <point x="124" y="714" type="line"/>
      <point x="97" y="714" type="line"/>
      <point x="97" y="0" type="line"/>
      <point x="124" y="0" type="line"/>
      <point x="124" y="293" type="line"/>
      <point x="222" y="398" type="line"/>
      <point x="493" y="0" type="line"/>
    </contour>
  </outline>
</glyph>
<glyph name="K.serif" format="2">
  <advance width="658"/>
  <unicode hex="004B"/>
  <anchor x="329" y="0" name="bottom"/>
  <anchor x="329" y="714" name="top"/>
  <anchor x="638" y="714" name="topright"/>
  <outline>
    <contour>
      <point x="50" y="0" type="line"/>
      <point x="278" y="0" type="line"/>
      <point x="278" y="10" type="line"/>
      <point x="233" y="10" type="line" smooth="yes"/>
      <point x="183" y="10"/>
      <point x="177" y="21"/>
      <point x="177" y="98" type="curve" smooth="yes"/>
      <point x="177" y="242" type="line"/>
      <point x="294" y="382" type="line"/>
      <point x="527" y="104" type="line" smooth="yes"/>
      <point x="600" y="16"/>
      <point x="619" y="0"/>
      <point x="662" y="0" type="curve" smooth="yes"/>
      <point x="686" y="0" type="line"/>
      <point x="686" y="10" type="line"/>
      <point x="681" y="10" type="line" smooth="yes"/>
      <point x="645" y="10"/>
      <point x="639" y="15"/>
      <point x="562" y="106" type="curve" smooth="yes"/>
      <point x="313" y="403" type="line"/>
      <point x="490" y="613" type="line" smooth="yes"/>
      <point x="557" y="693"/>
      <point x="572" y="703"/>
      <point x="620" y="704" type="curve"/>
      <point x="620" y="714" type="line"/>
      <point x="463" y="714" type="line"/>
      <point x="463" y="704" type="line"/>
      <point x="510" y="704"/>
      <point x="528" y="704"/>
      <point x="528" y="690" type="curve" smooth="yes"/>
      <point x="528" y="675"/>
      <point x="517" y="663"/>
      <point x="467" y="603" type="curve" smooth="yes"/>
      <point x="177" y="260" type="line"/>
      <point x="177" y="616" type="line" smooth="yes"/>
      <point x="177" y="693"/>
      <point x="183" y="704"/>
      <point x="233" y="704" type="curve" smooth="yes"/>
      <point x="276" y="704" type="line"/>
      <point x="276" y="714" type="line"/>
      <point x="50" y="714" type="line"/>
      <point x="50" y="704" type="line"/>
      <point x="93" y="704" type="line" smooth="yes"/>
      <point x="143" y="704"/>
      <point x="149" y="693"/>
      <point x="149" y="616" type="curve" smooth="yes"/>
      <point x="149" y="98" type="line" smooth="yes"/>
      <point x="149" y="21"/>
      <point x="143" y="10"/>
      <point x="93" y="10" type="curve" smooth="yes"/>
      <point x="50" y="10" type="line"/>
    </contour>
  </outline>
</glyph>
<glyph name="L" format="2">
  <advance width="477"/>
  <unicode hex="004C"/>
  <anchor x="267" y="0" name="bottom"/>
  <anchor x="239" y="357" name="center"/>
  <anchor x="111" y="714" name="top"/>
  <anchor x="416" y="714" name="topright"/>
  <outline>
    <contour>
      <point x="97" y="0" type="line"/>
      <point x="458" y="0" type="line"/>
      <point x="458" y="25" type="line"/>
      <point x="124" y="25" type="line"/>
      <point x="124" y="714" type="line"/>
      <point x="97" y="714" type="line"/>
    </contour>
  </outline>
</glyph>
<glyph name="L.serif" format="2">
  <advance width="583"/>
  <unicode hex="004C"/>
  <anchor x="292" y="0" name="bottom"/>
  <anchor x="165" y="357" name="center"/>
  <anchor x="165" y="714" name="top"/>
  <anchor x="563" y="714" name="topright"/>
  <outline>
    <contour>
      <point x="50" y="0" type="line"/>
      <point x="524" y="0" type="line"/>
      <point x="531" y="205" type="line"/>
      <point x="521" y="205" type="line"/>
      <point x="516" y="79" type="line" smooth="yes"/>
      <point x="514" y="24"/>
      <point x="508" y="10"/>
      <point x="456" y="10" type="curve" smooth="yes"/>
      <point x="177" y="10" type="line"/>
      <point x="177" y="616" type="line" smooth="yes"/>
      <point x="177" y="693"/>
      <point x="183" y="704"/>
      <point x="233" y="704" type="curve" smooth="yes"/>
      <point x="273" y="704" type="line"/>
      <point x="273" y="714" type="line"/>
      <point x="50" y="714" type="line"/>
      <point x="50" y="704" type="line"/>
      <point x="93" y="704" type="line" smooth="yes"/>
      <point x="143" y="704"/>
      <point x="149" y="693"/>
      <point x="149" y="616" type="curve" smooth="yes"/>
      <point x="149" y="98" type="line" smooth="yes"/>
      <point x="149" y="21"/>
      <point x="143" y="10"/>
      <point x="93" y="10" type="curve" smooth="yes"/>
      <point x="50" y="10" type="line"/>
    </contour>
  </outline>
</glyph>
<glyph name="M" format="2">
  <advance width="790"/>
  <unicode hex="004D"/>
  <anchor x="396" y="0" name="bottom"/>
  <anchor x="396" y="714" name="top"/>
  <anchor x="771" y="714" name="topright"/>
  <outline>
    <contour>
      <point x="384" y="0" type="line"/>
      <point x="405" y="0" type="line"/>
      <point x="665" y="678" type="line"/>
      <point x="667" y="678" type="line"/>
      <point x="666" y="645"/>
      <point x="666" y="622"/>
      <point x="666" y="602" type="curve" smooth="yes"/>
      <point x="666" y="0" type="line"/>
      <point x="693" y="0" type="line"/>
      <point x="693" y="714" type="line"/>
      <point x="651" y="714" type="line"/>
      <point x="397" y="48" type="line"/>
      <point x="394" y="48" type="line"/>
      <point x="140" y="714" type="line"/>
      <point x="97" y="714" type="line"/>
      <point x="97" y="0" type="line"/>
      <point x="124" y="0" type="line"/>
      <point x="124" y="596" type="line" smooth="yes"/>
      <point x="124" y="626"/>
      <point x="124" y="646"/>
      <point x="123" y="679" type="curve"/>
      <point x="125" y="679" type="line"/>
    </contour>
  </outline>
</glyph>
<glyph name="M.serif" format="2">
  <advance width="908"/>
  <unicode hex="004D"/>
  <anchor x="429" y="0" name="bottom"/>
  <anchor x="439" y="714" name="top"/>
  <anchor x="873" y="714" name="topright"/>
  <outline>
    <contour>
      <point x="50" y="0" type="line"/>
      <point x="248" y="0" type="line"/>
      <point x="248" y="10" type="line"/>
      <point x="215" y="10" type="line" smooth="yes"/>
      <point x="165" y="10"/>
      <point x="159" y="21"/>
      <point x="159" y="98" type="curve" smooth="yes"/>
      <point x="159" y="663" type="line"/>
      <point x="420" y="0" type="line"/>
      <point x="437" y="0" type="line"/>
      <point x="699" y="669" type="line"/>
      <point x="699" y="98" type="line" smooth="yes"/>
      <point x="699" y="21"/>
      <point x="693" y="10"/>
      <point x="643" y="10" type="curve" smooth="yes"/>
      <point x="588" y="10" type="line"/>
      <point x="588" y="0" type="line"/>
      <point x="824" y="0" type="line"/>
      <point x="824" y="10" type="line"/>
      <point x="783" y="10" type="line" smooth="yes"/>
      <point x="733" y="10"/>
      <point x="727" y="21"/>
      <point x="727" y="98" type="curve" smooth="yes"/>
      <point x="727" y="616" type="line" smooth="yes"/>
      <point x="727" y="693"/>
      <point x="733" y="704"/>
      <point x="783" y="704" type="curve" smooth="yes"/>
      <point x="824" y="704" type="line"/>
      <point x="824" y="714" type="line"/>
      <point x="706" y="714" type="line"/>
      <point x="438" y="31" type="line"/>
      <point x="169" y="714" type="line"/>
      <point x="50" y="714" type="line"/>
      <point x="50" y="704" type="line"/>
      <point x="93" y="704" type="line" smooth="yes"/>
      <point x="143" y="704"/>
      <point x="149" y="693"/>
      <point x="149" y="616" type="curve" smooth="yes"/>
      <point x="149" y="98" type="line" smooth="yes"/>
      <point x="149" y="21"/>
      <point x="143" y="10"/>
      <point x="93" y="10" type="curve" smooth="yes"/>
      <point x="50" y="10" type="line"/>
    </contour>
  </outline>
</glyph>
<glyph name="N" format="2">
  <advance width="659"/>
  <unicode hex="004E"/>
  <anchor x="330" y="0" name="bottom"/>
  <anchor x="330" y="714" name="top"/>
  <anchor x="640" y="714" name="topright"/>
  <outline>
    <contour>
      <point x="562" y="0" type="line"/>
      <point x="562" y="714" type="line"/>
      <point x="535" y="714" type="line"/>
      <point x="535" y="211" type="line" smooth="yes"/>
      <point x="535" y="165"/>
      <point x="535" y="111"/>
      <point x="536" y="61" type="curve"/>
      <point x="534" y="61" type="line"/>
      <point x="119" y="714" type="line"/>
      <point x="97" y="714" type="line"/>
      <point x="97" y="0" type="line"/>
      <point x="124" y="0" type="line"/>
      <point x="124" y="502" type="line" smooth="yes"/>
      <point x="124" y="555"/>
      <point x="124" y="597"/>
      <point x="123" y="655" type="curve"/>
      <point x="125" y="655" type="line"/>
      <point x="540" y="0" type="line"/>
    </contour>
  </outline>
</glyph>
<glyph name="O" format="2">
  <advance width="710"/>
  <unicode hex="004F"/>
  <anchor x="355" y="0" name="bottom"/>
  <anchor x="355" y="357" name="center"/>
  <anchor x="355" y="725" name="top"/>
  <anchor x="691" y="725" name="topright"/>
  <outline>
    <contour>
      <point x="650" y="358" type="curve" smooth="yes"/>
      <point x="650" y="590"/>
      <point x="545" y="725"/>
      <point x="359" y="725" type="curve" smooth="yes"/>
      <point x="166" y="725"/>
      <point x="59" y="574"/>
      <point x="59" y="359" type="curve" smooth="yes"/>
      <point x="59" y="143"/>
      <point x="158" y="-10"/>
      <point x="354" y="-10" type="curve" smooth="yes"/>
      <point x="552" y="-10"/>
      <point x="650" y="143"/>
    </contour>
    <contour>
      <point x="87" y="359" type="curve" smooth="yes"/>
      <point x="87" y="556"/>
      <point x="177" y="700"/>
      <point x="359" y="700" type="curve" smooth="yes"/>
      <point x="528" y="700"/>
      <point x="621" y="575"/>
      <point x="621" y="358" type="curve" smooth="yes"/>
      <point x="621" y="156"/>
      <point x="538" y="15"/>
      <point x="355" y="15" type="curve" smooth="yes"/>
      <point x="173" y="15"/>
      <point x="87" y="159"/>
    </contour>
  </outline>
</glyph>
<glyph name="O.serif" format="2">
  <advance width="686"/>
  <unicode hex="004F"/>
  <anchor x="343" y="0" name="bottom"/>
  <anchor x="343" y="357" name="center"/>
  <anchor x="343" y="714" name="top"/>
  <anchor x="666" y="714" name="topright"/>
  <outline>
    <contour>
      <point x="343" y="-10" type="curve" smooth="yes"/>
      <point x="545" y="-10"/>
      <point x="627" y="135"/>
      <point x="627" y="358" type="curve" smooth="yes"/>
      <point x="627" y="590"/>
      <point x="547" y="725"/>
      <point x="344" y="725" type="curve" smooth="yes"/>
      <point x="157" y="725"/>
      <point x="58" y="592"/>
      <point x="58" y="359" type="curve" smooth="yes"/>
      <point x="58" y="125"/>
      <point x="153" y="-10"/>
    </contour>
    <contour>
      <point x="343" y="0" type="curve" smooth="yes"/>
      <point x="172" y="0"/>
      <point x="86" y="128"/>
      <point x="86" y="358" type="curve" smooth="yes"/>
      <point x="86" y="588"/>
      <point x="172" y="715"/>
      <point x="344" y="715" type="curve" smooth="yes"/>
      <point x="530" y="715"/>
      <point x="599" y="588"/>
      <point x="599" y="358" type="curve" smooth="yes"/>
      <point x="599" y="130"/>
      <point x="524" y="0"/>
    </contour>
  </outline>
</glyph>
<glyph name="P" format="2">
  <advance width="540"/>
  <unicode hex="0050"/>
  <anchor x="271" y="0" name="bottom"/>
  <anchor x="272" y="714" name="top"/>
  <anchor x="522" y="714" name="topright"/>
  <outline>
    <contour>
      <point x="255" y="714" type="curve" smooth="yes"/>
      <point x="97" y="714" type="line"/>
      <point x="97" y="0" type="line"/>
      <point x="124" y="0" type="line"/>
      <point x="124" y="305" type="line"/>
      <point x="242" y="305" type="line" smooth="yes"/>
      <point x="393" y="305"/>
      <point x="487" y="364"/>
      <point x="487" y="519" type="curve" smooth="yes"/>
      <point x="487" y="658"/>
      <point x="406" y="714"/>
    </contour>
    <contour>
      <point x="251" y="689" type="line"/>
      <point x="393" y="689"/>
      <point x="459" y="639"/>
      <point x="459" y="518" type="curve" smooth="yes"/>
      <point x="459" y="372"/>
      <point x="371" y="330"/>
      <point x="239" y="330" type="curve" smooth="yes"/>
      <point x="124" y="330" type="line"/>
      <point x="124" y="689" type="line"/>
    </contour>
  </outline>
</glyph>
<glyph name="P.serif" format="2">
  <advance width="562"/>
  <unicode hex="0050"/>
  <anchor x="163" y="0" name="bottom"/>
  <anchor x="281" y="714" name="top"/>
  <anchor x="542" y="714" name="topright"/>
  <outline>
    <contour>
      <point x="50" y="0" type="line"/>
      <point x="293" y="0" type="line"/>
      <point x="293" y="10" type="line"/>
      <point x="233" y="10" type="line" smooth="yes"/>
      <point x="183" y="10"/>
      <point x="177" y="21"/>
      <point x="177" y="98" type="curve" smooth="yes"/>
      <point x="177" y="292" type="line"/>
      <point x="277" y="292" type="line" smooth="yes"/>
      <point x="452" y="292"/>
      <point x="511" y="383"/>
      <point x="511" y="509" type="curve" smooth="yes"/>
      <point x="511" y="639"/>
      <point x="449" y="714"/>
      <point x="299" y="714" type="curve" smooth="yes"/>
      <point x="50" y="714" type="line"/>
      <point x="50" y="704" type="line"/>
      <point x="93" y="704" type="line" smooth="yes"/>
      <point x="143" y="704"/>
      <point x="149" y="693"/>
      <point x="149" y="616" type="curve" smooth="yes"/>
      <point x="149" y="98" type="line" smooth="yes"/>
      <point x="149" y="21"/>
      <point x="143" y="10"/>
      <point x="93" y="10" type="curve" smooth="yes"/>
      <point x="50" y="10" type="line"/>
    </contour>
    <contour>
      <point x="276" y="302" type="curve" smooth="yes"/>
      <point x="177" y="302" type="line"/>
      <point x="177" y="704" type="line"/>
      <point x="299" y="704" type="line" smooth="yes"/>
      <point x="430" y="704"/>
      <point x="483" y="639"/>
      <point x="483" y="509" type="curve" smooth="yes"/>
      <point x="483" y="401"/>
      <point x="438" y="302"/>
    </contour>
  </outline>
</glyph>
<glyph name="Q.serif" format="2">
  <advance width="686"/>
  <unicode hex="0051"/>
  <anchor x="343" y="-218" name="bottom"/>
  <anchor x="343" y="714" name="top"/>
  <anchor x="666" y="714" name="topright"/>
  <outline>
    <contour>
      <point x="537" y="-218" type="curve" smooth="yes"/>
      <point x="544" y="-218" type="line"/>
      <point x="544" y="-208" type="line"/>
      <point x="528" y="-208" type="line" smooth="yes"/>
      <point x="427" y="-208"/>
      <point x="375" y="-148"/>
      <point x="364" y="-10" type="curve"/>
      <point x="540" y="0"/>
      <point x="627" y="129"/>
      <point x="627" y="358" type="curve" smooth="yes"/>
      <point x="627" y="591"/>
      <point x="546" y="725"/>
      <point x="344" y="725" type="curve" smooth="yes"/>
      <point x="148" y="725"/>
      <point x="58" y="581"/>
      <point x="58" y="359" type="curve" smooth="yes"/>
      <point x="58" y="121"/>
      <point x="153" y="-5"/>
      <point x="336" y="-10" type="curve"/>
      <point x="349" y="-183"/>
      <point x="449" y="-218"/>
    </contour>
    <contour>
      <point x="343" y="0" type="curve" smooth="yes"/>
      <point x="171" y="0"/>
      <point x="86" y="129"/>
      <point x="86" y="358" type="curve" smooth="yes"/>
      <point x="86" y="571"/>
      <point x="161" y="715"/>
      <point x="344" y="715" type="curve" smooth="yes"/>
      <point x="530" y="715"/>
      <point x="599" y="588"/>
      <point x="599" y="358" type="curve" smooth="yes"/>
      <point x="599" y="127"/>
      <point x="522" y="0"/>
    </contour>
  </outline>
</glyph>
<glyph name="R" format="2">
  <advance width="545"/>
  <unicode hex="0052"/>
  <anchor x="281" y="0" name="bottom"/>
  <anchor x="273" y="714" name="top"/>
  <anchor x="526" y="714" name="topright"/>
  <outline>
    <contour>
      <point x="248" y="714" type="curve" smooth="yes"/>
      <point x="97" y="714" type="line"/>
      <point x="97" y="0" type="line"/>
      <point x="124" y="0" type="line"/>
      <point x="124" y="320" type="line"/>
      <point x="308" y="320" type="line"/>
      <point x="487" y="0" type="line"/>
      <point x="521" y="0" type="line"/>
      <point x="337" y="327" type="line"/>
      <point x="430" y="354"/>
      <point x="487" y="419"/>
      <point x="487" y="525" type="curve" smooth="yes"/>
      <point x="487" y="673"/>
      <point x="404" y="714"/>
    </contour>
    <contour>
      <point x="243" y="689" type="line"/>
      <point x="388" y="689"/>
      <point x="459" y="652"/>
      <point x="459" y="524" type="curve" smooth="yes"/>
      <point x="459" y="410"/>
      <point x="384" y="345"/>
      <point x="275" y="345" type="curve" smooth="yes"/>
      <point x="124" y="345" type="line"/>
      <point x="124" y="689" type="line"/>
    </contour>
  </outline>
</glyph>
<glyph name="S" format="2">
  <advance width="510"/>
  <unicode hex="0053"/>
  <anchor x="255" y="0" name="bottom"/>
  <anchor x="256" y="714" name="top"/>
  <anchor x="491" y="714" name="topright"/>
  <outline>
    <contour>
      <point x="460" y="180" type="curve" smooth="yes"/>
      <point x="460" y="298"/>
      <point x="382" y="336"/>
      <point x="262" y="375" type="curve" smooth="yes"/>
      <point x="165" y="407"/>
      <point x="88" y="437"/>
      <point x="88" y="546" type="curve" smooth="yes"/>
      <point x="88" y="653"/>
      <point x="172" y="699"/>
      <point x="271" y="699" type="curve" smooth="yes"/>
      <point x="321" y="699"/>
      <point x="374" y="691"/>
      <point x="432" y="664" type="curve"/>
      <point x="443" y="687" type="line"/>
      <point x="388" y="713"/>
      <point x="333" y="724"/>
      <point x="273" y="724" type="curve" smooth="yes"/>
      <point x="154" y="724"/>
      <point x="60" y="664"/>
      <point x="60" y="544" type="curve" smooth="yes"/>
      <point x="60" y="425"/>
      <point x="138" y="389"/>
      <point x="246" y="352" type="curve" smooth="yes"/>
      <point x="361" y="313"/>
      <point x="432" y="280"/>
      <point x="432" y="181" type="curve" smooth="yes"/>
      <point x="432" y="65"/>
      <point x="342" y="15"/>
      <point x="236" y="15" type="curve" smooth="yes"/>
      <point x="160" y="15"/>
      <point x="102" y="29"/>
      <point x="52" y="48" type="curve"/>
      <point x="52" y="19" type="line"/>
      <point x="97" y="5"/>
      <point x="148" y="-10"/>
      <point x="234" y="-10" type="curve" smooth="yes"/>
      <point x="358" y="-10"/>
      <point x="460" y="51"/>
    </contour>
  </outline>
</glyph>
<glyph name="S.serif" format="2">
  <advance width="490"/>
  <unicode hex="0053"/>
  <anchor x="255" y="0" name="bottom"/>
  <anchor x="265" y="714" name="top"/>
  <anchor x="470" y="714" name="topright"/>
  <outline>
    <contour>
      <point x="259" y="-10" type="curve" smooth="yes"/>
      <point x="377" y="-10"/>
      <point x="437" y="67"/>
      <point x="437" y="169" type="curve" smooth="yes"/>
      <point x="437" y="286"/>
      <point x="350" y="330"/>
      <point x="259" y="384" type="curve" smooth="yes"/>
      <point x="175" y="433"/>
      <point x="128" y="470"/>
      <point x="128" y="555" type="curve" smooth="yes"/>
      <point x="128" y="652"/>
      <point x="176" y="714"/>
      <point x="271" y="714" type="curve" smooth="yes"/>
      <point x="358" y="714"/>
      <point x="403" y="676"/>
      <point x="403" y="575" type="curve"/>
      <point x="422" y="575"/>
      <point x="429" y="589"/>
      <point x="429" y="614" type="curve" smooth="yes"/>
      <point x="429" y="675"/>
      <point x="364" y="724"/>
      <point x="272" y="724" type="curve" smooth="yes"/>
      <point x="167" y="724"/>
      <point x="100" y="651"/>
      <point x="100" y="560" type="curve" smooth="yes"/>
      <point x="100" y="459"/>
      <point x="142" y="417"/>
      <point x="249" y="357" type="curve" smooth="yes"/>
      <point x="363" y="293"/>
      <point x="409" y="249"/>
      <point x="409" y="168" type="curve" smooth="yes"/>
      <point x="409" y="63"/>
      <point x="362" y="0"/>
      <point x="259" y="0" type="curve" smooth="yes"/>
      <point x="153" y="0"/>
      <point x="101" y="51"/>
      <point x="101" y="166" type="curve"/>
      <point x="82" y="166"/>
      <point x="75" y="150"/>
      <point x="75" y="126" type="curve" smooth="yes"/>
      <point x="75" y="59"/>
      <point x="132" y="-10"/>
    </contour>
  </outline>
</glyph>
<glyph name="T" format="2">
  <advance width="476"/>
  <unicode hex="0054"/>
  <anchor x="239" y="0" name="bottom"/>
  <anchor x="239" y="357" name="center"/>
  <anchor x="239" y="714" name="top"/>
  <anchor x="458" y="714" name="topright"/>
  <outline>
    <contour>
      <point x="251" y="0" type="line"/>
      <point x="251" y="689" type="line"/>
      <point x="474" y="689" type="line"/>
      <point x="474" y="714" type="line"/>
      <point x="2" y="714" type="line"/>
      <point x="2" y="689" type="line"/>
      <point x="224" y="689" type="line"/>
      <point x="224" y="0" type="line"/>
    </contour>
  </outline>
</glyph>
<glyph name="T.serif" format="2">
  <advance width="563"/>
  <unicode hex="0054"/>
  <anchor x="282" y="0" name="bottom"/>
  <anchor x="282" y="357" name="center"/>
  <anchor x="282" y="714" name="top"/>
  <anchor x="553" y="714" name="topright"/>
  <outline>
    <contour>
      <point x="144" y="0" type="line"/>
      <point x="413" y="0" type="line"/>
      <point x="413" y="10" type="line"/>
      <point x="349" y="10" type="line" smooth="yes"/>
      <point x="299" y="10"/>
      <point x="293" y="21"/>
      <point x="293" y="98" type="curve" smooth="yes"/>
      <point x="293" y="699" type="line"/>
      <point x="455" y="699" type="line" smooth="yes"/>
      <point x="507" y="699"/>
      <point x="514" y="685"/>
      <point x="516" y="630" type="curve" smooth="yes"/>
      <point x="519" y="563" type="line"/>
      <point x="529" y="563" type="line"/>
      <point x="523" y="714" type="line"/>
      <point x="38" y="714" type="line"/>
      <point x="32" y="563" type="line"/>
      <point x="42" y="563" type="line"/>
      <point x="45" y="630" type="line" smooth="yes"/>
      <point x="47" y="685"/>
      <point x="54" y="699"/>
      <point x="106" y="699" type="curve" smooth="yes"/>
      <point x="265" y="699" type="line"/>
      <point x="265" y="98" type="line" smooth="yes"/>
      <point x="265" y="21"/>
      <point x="259" y="10"/>
      <point x="209" y="10" type="curve" smooth="yes"/>
      <point x="144" y="10" type="line"/>
    </contour>
  </outline>
</glyph>
<glyph name="U" format="2">
  <advance width="670"/>
  <unicode hex="0055"/>
  <anchor x="335" y="0" name="bottom"/>
  <anchor x="335" y="714" name="top"/>
  <anchor x="651" y="714" name="topright"/>
  <outline>
    <contour>
      <point x="582" y="252" type="curve" smooth="yes"/>
      <point x="582" y="714" type="line"/>
      <point x="555" y="714" type="line"/>
      <point x="555" y="244" type="line" smooth="yes"/>
      <point x="555" y="92"/>
      <point x="468" y="15"/>
      <point x="335" y="15" type="curve" smooth="yes"/>
      <point x="196" y="15"/>
      <point x="116" y="96"/>
      <point x="116" y="256" type="curve" smooth="yes"/>
      <point x="116" y="714" type="line"/>
      <point x="89" y="714" type="line"/>
      <point x="89" y="254" type="line" smooth="yes"/>
      <point x="89" y="81"/>
      <point x="178" y="-10"/>
      <point x="334" y="-10" type="curve" smooth="yes"/>
      <point x="481" y="-10"/>
      <point x="582" y="74"/>
    </contour>
  </outline>
</glyph>
<glyph name="U.serif" format="2">
  <advance width="679"/>
  <unicode hex="0055"/>
  <anchor x="340" y="0" name="bottom"/>
  <anchor x="340" y="714" name="top"/>
  <anchor x="679" y="714" name="topright"/>
  <outline>
    <contour>
      <point x="339" y="-10" type="curve" smooth="yes"/>
      <point x="473" y="-10"/>
      <point x="560" y="67"/>
      <point x="560" y="198" type="curve" smooth="yes"/>
      <point x="560" y="616" type="line" smooth="yes"/>
      <point x="560" y="693"/>
      <point x="566" y="704"/>
      <point x="616" y="704" type="curve" smooth="yes"/>
      <point x="655" y="704" type="line"/>
      <point x="655" y="714" type="line"/>
      <point x="453" y="714" type="line"/>
      <point x="453" y="704" type="line"/>
      <point x="494" y="704" type="line" smooth="yes"/>
      <point x="544" y="704"/>
      <point x="550" y="693"/>
      <point x="550" y="616" type="curve" smooth="yes"/>
      <point x="550" y="199" type="line" smooth="yes"/>
      <point x="550" y="73"/>
      <point x="466" y="5"/>
      <point x="339" y="5" type="curve" smooth="yes"/>
      <point x="214" y="5"/>
      <point x="138" y="66"/>
      <point x="138" y="210" type="curve" smooth="yes"/>
      <point x="138" y="616" type="line" smooth="yes"/>
      <point x="138" y="693"/>
      <point x="144" y="704"/>
      <point x="194" y="704" type="curve" smooth="yes"/>
      <point x="236" y="704" type="line"/>
      <point x="236" y="714" type="line"/>
      <point x="13" y="714" type="line"/>
      <point x="13" y="704" type="line"/>
      <point x="54" y="704" type="line" smooth="yes"/>
      <point x="104" y="704"/>
      <point x="110" y="693"/>
      <point x="110" y="616" type="curve" smooth="yes"/>
      <point x="110" y="214" type="line" smooth="yes"/>
      <point x="110" y="51"/>
      <point x="202" y="-10"/>
    </contour>
  </outline>
</glyph>
<glyph name="V" format="2">
  <advance width="531"/>
  <unicode hex="0056"/>
  <anchor x="266" y="0" name="bottom"/>
  <anchor x="266" y="714" name="top"/>
  <anchor x="512" y="714" name="topright"/>
  <outline>
    <contour>
      <point x="531" y="714" type="line"/>
      <point x="502" y="714" type="line"/>
      <point x="302" y="143" type="line" smooth="yes"/>
      <point x="286" y="98"/>
      <point x="275" y="67"/>
      <point x="266" y="37" type="curve"/>
      <point x="256" y="67"/>
      <point x="243" y="105"/>
      <point x="230" y="143" type="curve" smooth="yes"/>
      <point x="29" y="714" type="line"/>
      <point x="0" y="714" type="line"/>
      <point x="252" y="0" type="line"/>
      <point x="279" y="0" type="line"/>
    </contour>
  </outline>
</glyph>
<glyph name="V.serif" format="2">
  <advance width="645"/>
  <unicode hex="0056"/>
  <anchor x="313" y="0" name="bottom"/>
  <anchor x="323" y="714" name="top"/>
  <anchor x="645" y="714" name="topright"/>
  <outline>
    <contour>
      <point x="79" y="656" type="curve" smooth="yes"/>
      <point x="307" y="0" type="line"/>
      <point x="317" y="0" type="line"/>
      <point x="539" y="656" type="line" smooth="yes"/>
      <point x="554" y="700"/>
      <point x="558" y="704"/>
      <point x="604" y="704" type="curve" smooth="yes"/>
      <point x="626" y="704" type="line"/>
      <point x="626" y="714" type="line"/>
      <point x="429" y="714" type="line"/>
      <point x="429" y="704" type="line"/>
      <point x="474" y="704" type="line" smooth="yes"/>
      <point x="524" y="704"/>
      <point x="529" y="695"/>
      <point x="529" y="676" type="curve" smooth="yes"/>
      <point x="529" y="653"/>
      <point x="507" y="596"/>
      <point x="501" y="577" type="curve" smooth="yes"/>
      <point x="388" y="244" type="line" smooth="yes"/>
      <point x="356" y="150"/>
      <point x="340" y="103"/>
      <point x="319" y="39" type="curve"/>
      <point x="301" y="99"/>
      <point x="283" y="155"/>
      <point x="252" y="244" type="curve" smooth="yes"/>
      <point x="136" y="577" type="line" smooth="yes"/>
      <point x="129" y="598"/>
      <point x="108" y="653"/>
      <point x="108" y="676" type="curve" smooth="yes"/>
      <point x="108" y="695"/>
      <point x="113" y="704"/>
      <point x="163" y="704" type="curve" smooth="yes"/>
      <point x="215" y="704" type="line"/>
      <point x="215" y="714" type="line"/>
      <point x="0" y="714" type="line"/>
      <point x="0" y="704" type="line"/>
      <point x="14" y="704" type="line" smooth="yes"/>
      <point x="60" y="704"/>
      <point x="64" y="700"/>
    </contour>
  </outline>
</glyph>
<glyph name="W" format="2">
  <advance width="819"/>
  <unicode hex="0057"/>
  <anchor x="410" y="0" name="bottom"/>
  <anchor x="410" y="714" name="top"/>
  <anchor x="801" y="714" name="topright"/>
  <outline>
    <contour>
      <point x="792" y="714" type="line"/>
      <point x="764" y="714" type="line"/>
      <point x="621" y="168" type="line" smooth="yes"/>
      <point x="607" y="116"/>
      <point x="601" y="88"/>
      <point x="593" y="48" type="curve"/>
      <point x="585" y="88"/>
      <point x="578" y="116"/>
      <point x="564" y="168" type="curve" smooth="yes"/>
      <point x="421" y="714" type="line"/>
      <point x="394" y="714" type="line"/>
      <point x="255" y="171" type="line" smooth="yes"/>
      <point x="242" y="121"/>
      <point x="234" y="90"/>
      <point x="226" y="52" type="curve"/>
      <point x="218" y="90"/>
      <point x="208" y="121"/>
      <point x="196" y="170" type="curve" smooth="yes"/>
      <point x="59" y="714" type="line"/>
      <point x="30" y="714" type="line"/>
      <point x="213" y="0" type="line"/>
      <point x="239" y="0" type="line"/>
      <point x="391" y="604" type="line" smooth="yes"/>
      <point x="397" y="627"/>
      <point x="401" y="641"/>
      <point x="406" y="675" type="curve"/>
      <point x="414" y="639"/>
      <point x="420" y="620"/>
      <point x="430" y="582" type="curve" smooth="yes"/>
      <point x="580" y="0" type="line"/>
      <point x="606" y="0" type="line"/>
    </contour>
  </outline>
</glyph>
<glyph name="W.serif" format="2">
  <advance width="1021"/>
  <unicode hex="0057"/>
  <anchor x="501" y="0" name="bottom"/>
  <anchor x="501" y="714" name="top"/>
  <anchor x="986" y="714" name="topright"/>
  <outline>
    <contour>
      <point x="105" y="656" type="curve" smooth="yes"/>
      <point x="306" y="0" type="line"/>
      <point x="319" y="0" type="line"/>
      <point x="492" y="669" type="line"/>
      <point x="667" y="0" type="line"/>
      <point x="677" y="0" type="line"/>
      <point x="878" y="655" type="line" smooth="yes"/>
      <point x="892" y="700"/>
      <point x="898" y="704"/>
      <point x="943" y="704" type="curve" smooth="yes"/>
      <point x="968" y="704" type="line"/>
      <point x="968" y="714" type="line"/>
      <point x="775" y="714" type="line"/>
      <point x="775" y="704" type="line"/>
      <point x="813" y="704" type="line" smooth="yes"/>
      <point x="863" y="704"/>
      <point x="868" y="695"/>
      <point x="868" y="676" type="curve" smooth="yes"/>
      <point x="868" y="662"/>
      <point x="863" y="642"/>
      <point x="852" y="605" type="curve" smooth="yes"/>
      <point x="729" y="205" type="line" smooth="yes"/>
      <point x="711" y="147"/>
      <point x="692" y="84"/>
      <point x="683" y="51" type="curve"/>
      <point x="672" y="94"/>
      <point x="659" y="143"/>
      <point x="642" y="208" type="curve" smooth="yes"/>
      <point x="507" y="714" type="line"/>
      <point x="493" y="714" type="line"/>
      <point x="357" y="189" type="line" smooth="yes"/>
      <point x="343" y="135"/>
      <point x="333" y="96"/>
      <point x="320" y="42" type="curve"/>
      <point x="305" y="100"/>
      <point x="298" y="126"/>
      <point x="279" y="189" type="curve" smooth="yes"/>
      <point x="151" y="605" type="line" smooth="yes"/>
      <point x="139" y="643"/>
      <point x="133" y="663"/>
      <point x="133" y="676" type="curve" smooth="yes"/>
      <point x="133" y="695"/>
      <point x="138" y="704"/>
      <point x="188" y="704" type="curve" smooth="yes"/>
      <point x="232" y="704" type="line"/>
      <point x="232" y="714" type="line"/>
      <point x="21" y="714" type="line"/>
      <point x="21" y="704" type="line"/>
      <point x="40" y="704" type="line" smooth="yes"/>
      <point x="85" y="704"/>
      <point x="92" y="700"/>
    </contour>
  </outline>
</glyph>
<glyph name="X" format="2">
  <advance width="481"/>
  <unicode hex="0058"/>
  <anchor x="241" y="0" name="bottom"/>
  <anchor x="241" y="714" name="top"/>
  <anchor x="463" y="714" name="topright"/>
  <outline>
    <contour>
      <point x="484" y="0" type="line"/>
      <point x="260" y="370" type="line"/>
      <point x="467" y="714" type="line"/>
      <point x="435" y="714" type="line"/>
      <point x="243" y="390" type="line"/>
      <point x="52" y="714" type="line"/>
      <point x="20" y="714" type="line"/>
      <point x="224" y="370" type="line"/>
      <point x="-3" y="0" type="line"/>
      <point x="29" y="0" type="line"/>
      <point x="242" y="350" type="line"/>
      <point x="452" y="0" type="line"/>
    </contour>
  </outline>
</glyph>
<glyph name="X.serif" format="2">
  <advance width="570"/>
  <unicode hex="0058"/>
  <anchor x="284" y="0" name="bottom"/>
  <anchor x="284" y="714" name="top"/>
  <anchor x="559" y="714" name="topright"/>
  <outline>
    <contour>
      <point x="6" y="0" type="line"/>
      <point x="206" y="0" type="line"/>
      <point x="206" y="10" type="line"/>
      <point x="156" y="10" type="line" smooth="yes"/>
      <point x="120" y="10"/>
      <point x="117" y="18"/>
      <point x="117" y="30" type="curve" smooth="yes"/>
      <point x="117" y="46"/>
      <point x="128" y="64"/>
      <point x="164" y="133" type="curve" smooth="yes"/>
      <point x="279" y="354" type="line"/>
      <point x="413" y="110" type="line" smooth="yes"/>
      <point x="438" y="65"/>
      <point x="449" y="46"/>
      <point x="449" y="30" type="curve" smooth="yes"/>
      <point x="449" y="18"/>
      <point x="446" y="10"/>
      <point x="413" y="10" type="curve" smooth="yes"/>
      <point x="375" y="10" type="line"/>
      <point x="375" y="0" type="line"/>
      <point x="569" y="0" type="line"/>
      <point x="569" y="10" type="line"/>
      <point x="545" y="10" type="line" smooth="yes"/>
      <point x="501" y="10"/>
      <point x="498" y="15"/>
      <point x="474" y="58" type="curve" smooth="yes"/>
      <point x="295" y="384" type="line"/>
      <point x="438" y="658" type="line" smooth="yes"/>
      <point x="460" y="700"/>
      <point x="465" y="704"/>
      <point x="509" y="704" type="curve" smooth="yes"/>
      <point x="539" y="704" type="line"/>
      <point x="539" y="714" type="line"/>
      <point x="360" y="714" type="line"/>
      <point x="360" y="704" type="line"/>
      <point x="396" y="704" type="line" smooth="yes"/>
      <point x="430" y="704"/>
      <point x="433" y="696"/>
      <point x="433" y="684" type="curve" smooth="yes"/>
      <point x="433" y="668"/>
      <point x="420" y="646"/>
      <point x="405" y="617" type="curve" smooth="yes"/>
      <point x="289" y="395" type="line"/>
      <point x="167" y="618" type="line" smooth="yes"/>
      <point x="150" y="649"/>
      <point x="139" y="668"/>
      <point x="139" y="684" type="curve" smooth="yes"/>
      <point x="139" y="696"/>
      <point x="142" y="704"/>
      <point x="178" y="704" type="curve" smooth="yes"/>
      <point x="207" y="704" type="line"/>
      <point x="207" y="714" type="line"/>
      <point x="12" y="714" type="line"/>
      <point x="12" y="704" type="line"/>
      <point x="43" y="704" type="line" smooth="yes"/>
      <point x="87" y="704"/>
      <point x="90" y="701"/>
      <point x="114" y="657" type="curve" smooth="yes"/>
      <point x="273" y="365" type="line"/>
      <point x="113" y="57" type="line" smooth="yes"/>
      <point x="90" y="13"/>
      <point x="85" y="10"/>
      <point x="41" y="10" type="curve" smooth="yes"/>
      <point x="6" y="10" type="line"/>
    </contour>
  </outline>
</glyph>
<glyph name="Y" format="2">
  <advance width="477"/>
  <unicode hex="0059"/>
  <anchor x="239" y="0" name="bottom"/>
  <anchor x="239" y="714" name="top"/>
  <anchor x="459" y="714" name="topright"/>
  <outline>
    <contour>
      <point x="239" y="301" type="line"/>
      <point x="31" y="714" type="line"/>
      <point x="0" y="714" type="line"/>
      <point x="226" y="271" type="line"/>
      <point x="226" y="0" type="line"/>
      <point x="254" y="0" type="line"/>
      <point x="254" y="275" type="line"/>
      <point x="477" y="714" type="line"/>
      <point x="446" y="714" type="line"/>
    </contour>
  </outline>
</glyph>
<glyph name="Y.serif" format="2">
  <advance width="539"/>
  <unicode hex="0059"/>
  <anchor x="276" y="0" name="bottom"/>
  <anchor x="276" y="714" name="top"/>
  <anchor x="525" y="714" name="topright"/>
  <outline>
    <contour>
      <point x="159" y="0" type="line"/>
      <point x="396" y="0" type="line"/>
      <point x="396" y="10" type="line"/>
      <point x="348" y="10" type="line" smooth="yes"/>
      <point x="298" y="10"/>
      <point x="292" y="21"/>
      <point x="292" y="98" type="curve" smooth="yes"/>
      <point x="292" y="358" type="line"/>
      <point x="446" y="662" type="line" smooth="yes"/>
      <point x="466" y="701"/>
      <point x="475" y="704"/>
      <point x="518" y="704" type="curve" smooth="yes"/>
      <point x="545" y="704" type="line"/>
      <point x="545" y="714" type="line"/>
      <point x="366" y="714" type="line"/>
      <point x="366" y="704" type="line"/>
      <point x="405" y="704" type="line" smooth="yes"/>
      <point x="439" y="704"/>
      <point x="443" y="697"/>
      <point x="443" y="689" type="curve" smooth="yes"/>
      <point x="443" y="677"/>
      <point x="433" y="660"/>
      <point x="422" y="638" type="curve" smooth="yes"/>
      <point x="325" y="447" type="line" smooth="yes"/>
      <point x="304" y="406"/>
      <point x="298" y="394"/>
      <point x="285" y="367" type="curve"/>
      <point x="260" y="410"/>
      <point x="229" y="461"/>
      <point x="203" y="503" type="curve" smooth="yes"/>
      <point x="118" y="639" type="line" smooth="yes"/>
      <point x="105" y="660"/>
      <point x="95" y="675"/>
      <point x="95" y="687" type="curve" smooth="yes"/>
      <point x="95" y="697"/>
      <point x="99" y="704"/>
      <point x="133" y="704" type="curve" smooth="yes"/>
      <point x="166" y="704" type="line"/>
      <point x="166" y="714" type="line"/>
      <point x="-11" y="714" type="line"/>
      <point x="-11" y="704" type="line"/>
      <point x="-2" y="704" type="line" smooth="yes"/>
      <point x="41" y="704"/>
      <point x="46" y="701"/>
      <point x="71" y="661" type="curve" smooth="yes"/>
      <point x="264" y="354" type="line"/>
      <point x="264" y="98" type="line" smooth="yes"/>
      <point x="264" y="21"/>
      <point x="258" y="10"/>
      <point x="208" y="10" type="curve" smooth="yes"/>
      <point x="159" y="10" type="line"/>
    </contour>
  </outline>
</glyph>
<glyph name="Z" format="2">
  <advance width="544"/>
  <unicode hex="005A"/>
  <anchor x="272" y="0" name="bottom"/>
  <anchor x="272" y="714" name="top"/>
  <anchor x="524" y="714" name="topright"/>
  <outline>
    <contour>
      <point x="506" y="0" type="line"/>
      <point x="506" y="25" type="line"/>
      <point x="72" y="25" type="line"/>
      <point x="494" y="696" type="line"/>
      <point x="494" y="714" type="line"/>
      <point x="60" y="714" type="line"/>
      <point x="60" y="689" type="line"/>
      <point x="456" y="689" type="line"/>
      <point x="34" y="18" type="line"/>
      <point x="34" y="0" type="line"/>
    </contour>
  </outline>
</glyph>
<glyph name="Z.serif" format="2">
  <advance width="498"/>
  <unicode hex="005A"/>
  <anchor x="249" y="0" name="bottom"/>
  <anchor x="249" y="714" name="top"/>
  <anchor x="478" y="714" name="topright"/>
  <outline>
    <contour>
      <point x="28" y="0" type="line"/>
      <point x="453" y="0" type="line"/>
      <point x="458" y="135" type="line"/>
      <point x="448" y="135" type="line"/>
      <point x="445" y="83" type="line" smooth="yes"/>
      <point x="442" y="29"/>
      <point x="436" y="15"/>
      <point x="384" y="15" type="curve" smooth="yes"/>
      <point x="56" y="15" type="line"/>
      <point x="450" y="685" type="line"/>
      <point x="450" y="714" type="line"/>
      <point x="52" y="714" type="line"/>
      <point x="47" y="579" type="line"/>
      <point x="57" y="579" type="line"/>
      <point x="60" y="630" type="line" smooth="yes"/>
      <point x="63" y="685"/>
      <point x="69" y="699"/>
      <point x="121" y="699" type="curve" smooth="yes"/>
      <point x="426" y="699" type="line"/>
      <point x="28" y="22" type="line"/>
    </contour>
  </outline>
</glyph>
<glyph name="bracketleft" format="2">
  <advance width="295"/>
  <unicode hex="005B"/>
  <outline>
    <contour>
      <point x="271" y="-158" type="line"/>
      <point x="271" y="-133" type="line"/>
      <point x="108" y="-133" type="line"/>
      <point x="108" y="689" type="line"/>
      <point x="271" y="689" type="line"/>
      <point x="271" y="714" type="line"/>
      <point x="82" y="714" type="line"/>
      <point x="82" y="-158" type="line"/>
    </contour>
  </outline>
</glyph>
<glyph name="bracketleft.serif" format="2">
  <advance width="292"/>
  <unicode hex="005B"/>
  <outline>
    <contour>
      <point x="100" y="-128" type="line"/>
      <point x="255" y="-128" type="line"/>
      <point x="255" y="-118" type="line"/>
      <point x="184" y="-118" type="line" smooth="yes"/>
      <point x="134" y="-118"/>
      <point x="128" y="-107"/>
      <point x="128" y="-30" type="curve" smooth="yes"/>
      <point x="128" y="662" type="line" smooth="yes"/>
      <point x="128" y="739"/>
      <point x="134" y="750"/>
      <point x="184" y="750" type="curve" smooth="yes"/>
      <point x="255" y="750" type="line"/>
      <point x="255" y="760" type="line"/>
      <point x="100" y="760" type="line"/>
    </contour>
  </outline>
</glyph>
<glyph name="backslash" format="2">
  <advance width="305"/>
  <unicode hex="005C"/>
  <outline>
    <contour>
      <point x="41" y="714" type="line"/>
      <point x="12" y="714" type="line"/>
      <point x="264" y="0" type="line"/>
      <point x="293" y="0" type="line"/>
    </contour>
  </outline>
</glyph>
<glyph name="bracketright" format="2">
  <advance width="295"/>
  <unicode hex="005D"/>
  <outline>
    <contour>
      <point x="24" y="-133" type="line"/>
      <point x="24" y="-158" type="line"/>
      <point x="213" y="-158" type="line"/>
      <point x="213" y="714" type="line"/>
      <point x="24" y="714" type="line"/>
      <point x="24" y="689" type="line"/>
      <point x="187" y="689" type="line"/>
      <point x="187" y="-133" type="line"/>
    </contour>
  </outline>
</glyph>
<glyph name="bracketright.serif" format="2">
  <advance width="292"/>
  <unicode hex="005D"/>
  <outline>
    <contour>
      <point x="37" y="-128" type="line"/>
      <point x="192" y="-128" type="line"/>
      <point x="192" y="760" type="line"/>
      <point x="37" y="760" type="line"/>
      <point x="37" y="750" type="line"/>
      <point x="108" y="750" type="line" smooth="yes"/>
      <point x="158" y="750"/>
      <point x="164" y="739"/>
      <point x="164" y="662" type="curve" smooth="yes"/>
      <point x="164" y="-30" type="line" smooth="yes"/>
      <point x="164" y="-107"/>
      <point x="158" y="-118"/>
      <point x="108" y="-118" type="curve" smooth="yes"/>
      <point x="37" y="-118" type="line"/>
    </contour>
  </outline>
</glyph>
<glyph name="asciicircum" format="2">
  <advance width="536"/>
  <unicode hex="005E"/>
  <outline>
    <contour>
      <point x="43" y="278" type="line"/>
      <point x="72" y="278" type="line"/>
      <point x="274" y="686" type="line"/>
      <point x="464" y="278" type="line"/>
      <point x="493" y="278" type="line"/>
      <point x="287" y="719" type="line"/>
      <point x="264" y="719" type="line"/>
    </contour>
  </outline>
</glyph>
<glyph name="grave" format="2">
  <advance width="240"/>
  <unicode hex="0060"/>
  <outline>
    <contour>
      <point x="71" y="766" type="curve"/>
      <point x="40" y="766" type="line"/>
      <point x="40" y="759" type="line"/>
      <point x="72" y="714"/>
      <point x="129" y="650"/>
      <point x="179" y="606" type="curve"/>
      <point x="200" y="606" type="line"/>
      <point x="200" y="612" type="line"/>
      <point x="159" y="652"/>
      <point x="98" y="723"/>
    </contour>
  </outline>
</glyph>
<glyph name="grave.serif" format="2">
  <advance width="208"/>
  <unicode hex="0060"/>
  <outline>
    <contour>
      <point x="166" y="606" type="curve"/>
      <point x="168" y="606" type="line"/>
      <point x="168" y="616" type="line"/>
      <point x="140" y="656"/>
      <point x="99" y="721"/>
      <point x="73" y="766" type="curve"/>
      <point x="40" y="766" type="line"/>
      <point x="40" y="756" type="line"/>
      <point x="68" y="721"/>
      <point x="127" y="651"/>
    </contour>
  </outline>
</glyph>
<glyph name="a" format="2">
  <advance width="483"/>
  <unicode hex="0061"/>
  <anchor x="222" y="0" name="bottom"/>
  <anchor x="242" y="528" name="top"/>
  <anchor x="462" y="528" name="topright"/>
  <outline>
    <contour>
      <point x="249" y="537" type="curve" smooth="yes"/>
      <point x="193" y="537"/>
      <point x="141" y="522"/>
      <point x="91" y="498" type="curve"/>
      <point x="101" y="472" type="line"/>
      <point x="154" y="501"/>
      <point x="199" y="512"/>
      <point x="249" y="512" type="curve" smooth="yes"/>
      <point x="335" y="512"/>
      <point x="377" y="463"/>
      <point x="377" y="343" type="curve" smooth="yes"/>
      <point x="377" y="300" type="line"/>
      <point x="281" y="294" type="line" smooth="yes"/>
      <point x="133" y="285"/>
      <point x="45" y="234"/>
      <point x="45" y="129" type="curve" smooth="yes"/>
      <point x="45" y="45"/>
      <point x="97" y="-10"/>
      <point x="196" y="-10" type="curve" smooth="yes"/>
      <point x="297" y="-10"/>
      <point x="349" y="42"/>
      <point x="376" y="103" type="curve"/>
      <point x="378" y="103" type="line"/>
      <point x="382" y="0" type="line"/>
      <point x="405" y="0" type="line"/>
      <point x="405" y="350" type="line" smooth="yes"/>
      <point x="405" y="480"/>
      <point x="353" y="537"/>
    </contour>
    <contour>
      <point x="284" y="270" type="curve" smooth="yes"/>
      <point x="377" y="275" type="line"/>
      <point x="377" y="220" type="line" smooth="yes"/>
      <point x="377" y="99"/>
      <point x="320" y="15"/>
      <point x="197" y="15" type="curve" smooth="yes"/>
      <point x="118" y="15"/>
      <point x="74" y="58"/>
      <point x="74" y="129" type="curve" smooth="yes"/>
      <point x="74" y="222"/>
      <point x="156" y="263"/>
    </contour>
  </outline>
</glyph>
<glyph name="a.serif" format="2">
  <advance width="517"/>
  <unicode hex="0061"/>
  <anchor x="393" y="0" name="bottom"/>
  <anchor x="259" y="536" name="top"/>
  <anchor x="497" y="536" name="topright"/>
  <outline>
    <contour>
      <point x="198" y="-10" type="curve" smooth="yes"/>
      <point x="296" y="-10"/>
      <point x="350" y="63"/>
      <point x="372" y="115" type="curve"/>
      <point x="374" y="115" type="line"/>
      <point x="374" y="0" type="line"/>
      <point x="466" y="0" type="line"/>
      <point x="466" y="10" type="line"/>
      <point x="459" y="10" type="line" smooth="yes"/>
      <point x="405" y="10"/>
      <point x="401" y="25"/>
      <point x="401" y="100" type="curve" smooth="yes"/>
      <point x="401" y="386" type="line" smooth="yes"/>
      <point x="401" y="481"/>
      <point x="359" y="542"/>
      <point x="242" y="542" type="curve" smooth="yes"/>
      <point x="127" y="542"/>
      <point x="98" y="482"/>
      <point x="98" y="428" type="curve" smooth="yes"/>
      <point x="98" y="409"/>
      <point x="105" y="395"/>
      <point x="119" y="395" type="curve"/>
      <point x="119" y="486"/>
      <point x="143" y="532"/>
      <point x="242" y="532" type="curve" smooth="yes"/>
      <point x="355" y="532"/>
      <point x="373" y="471"/>
      <point x="373" y="371" type="curve" smooth="yes"/>
      <point x="373" y="296" type="line"/>
      <point x="290" y="293" type="line" smooth="yes"/>
      <point x="132" y="287"/>
      <point x="56" y="245"/>
      <point x="56" y="138" type="curve" smooth="yes"/>
      <point x="56" y="39"/>
      <point x="106" y="-10"/>
    </contour>
    <contour>
      <point x="204" y="5" type="curve" smooth="yes"/>
      <point x="122" y="5"/>
      <point x="84" y="62"/>
      <point x="84" y="135" type="curve" smooth="yes"/>
      <point x="84" y="221"/>
      <point x="137" y="277"/>
      <point x="288" y="283" type="curve" smooth="yes"/>
      <point x="373" y="286" type="line"/>
      <point x="373" y="170" type="line" smooth="yes"/>
      <point x="373" y="94"/>
      <point x="298" y="5"/>
    </contour>
  </outline>
</glyph>
<glyph name="b" format="2">
  <advance width="549"/>
  <unicode hex="0062"/>
  <anchor x="275" y="0" name="bottom"/>
  <anchor x="276" y="760" name="top"/>
  <anchor x="500" y="760" name="topright"/>
  <outline>
    <contour>
      <point x="110" y="525" type="curve" smooth="yes"/>
      <point x="110" y="760" type="line"/>
      <point x="83" y="760" type="line"/>
      <point x="83" y="0" type="line"/>
      <point x="105" y="0" type="line"/>
      <point x="110" y="104" type="line"/>
      <point x="112" y="104" type="line"/>
      <point x="135" y="38"/>
      <point x="190" y="-10"/>
      <point x="279" y="-10" type="curve" smooth="yes"/>
      <point x="429" y="-10"/>
      <point x="494" y="114"/>
      <point x="494" y="266" type="curve" smooth="yes"/>
      <point x="494" y="444"/>
      <point x="424" y="539"/>
      <point x="293" y="539" type="curve" smooth="yes"/>
      <point x="199" y="539"/>
      <point x="131" y="483"/>
      <point x="110" y="406" type="curve"/>
      <point x="108" y="406" type="line"/>
      <point x="109" y="439"/>
      <point x="110" y="493"/>
    </contour>
    <contour>
      <point x="292" y="514" type="curve" smooth="yes"/>
      <point x="408" y="514"/>
      <point x="465" y="430"/>
      <point x="465" y="266" type="curve" smooth="yes"/>
      <point x="465" y="106"/>
      <point x="401" y="15"/>
      <point x="278" y="15" type="curve" smooth="yes"/>
      <point x="165" y="15"/>
      <point x="110" y="98"/>
      <point x="110" y="253" type="curve" smooth="yes"/>
      <point x="110" y="263" type="line" smooth="yes"/>
      <point x="110" y="419"/>
      <point x="168" y="514"/>
    </contour>
  </outline>
</glyph>
<glyph name="b.serif" format="2">
  <advance width="570"/>
  <unicode hex="0062"/>
  <anchor x="285" y="0" name="bottom"/>
  <anchor x="285" y="760" name="top"/>
  <anchor x="510" y="760" name="topright"/>
  <outline>
    <contour>
      <point x="313" y="-10" type="curve" smooth="yes"/>
      <point x="429" y="-10"/>
      <point x="506" y="83"/>
      <point x="506" y="267" type="curve" smooth="yes"/>
      <point x="506" y="460"/>
      <point x="448" y="544"/>
      <point x="320" y="544" type="curve" smooth="yes"/>
      <point x="228" y="544"/>
      <point x="170" y="489"/>
      <point x="146" y="385" type="curve"/>
      <point x="144" y="385" type="line"/>
      <point x="145" y="459"/>
      <point x="146" y="522"/>
      <point x="146" y="560" type="curve" smooth="yes"/>
      <point x="146" y="760" type="line"/>
      <point x="20" y="760" type="line"/>
      <point x="20" y="750" type="line"/>
      <point x="51" y="750" type="line" smooth="yes"/>
      <point x="111" y="750"/>
      <point x="118" y="746"/>
      <point x="118" y="672" type="curve" smooth="yes"/>
      <point x="118" y="84" type="line" smooth="yes"/>
      <point x="118" y="14"/>
      <point x="114" y="10"/>
      <point x="41" y="10" type="curve" smooth="yes"/>
      <point x="20" y="10" type="line"/>
      <point x="20" y="0" type="line"/>
      <point x="145" y="0" type="line"/>
      <point x="145" y="139" type="line"/>
      <point x="147" y="139" type="line"/>
      <point x="172" y="28"/>
      <point x="237" y="-10"/>
    </contour>
    <contour>
      <point x="317" y="5" type="curve" smooth="yes"/>
      <point x="187" y="5"/>
      <point x="145" y="100"/>
      <point x="145" y="269" type="curve" smooth="yes"/>
      <point x="145" y="434"/>
      <point x="198" y="529"/>
      <point x="316" y="529" type="curve" smooth="yes"/>
      <point x="433" y="529"/>
      <point x="478" y="453"/>
      <point x="478" y="270" type="curve" smooth="yes"/>
      <point x="478" y="97"/>
      <point x="419" y="5"/>
    </contour>
  </outline>
</glyph>
<glyph name="c" format="2">
  <advance width="443"/>
  <unicode hex="0063"/>
  <anchor x="277" y="0" name="bottom"/>
  <anchor x="286" y="528" name="top"/>
  <anchor x="425" y="528" name="topright"/>
  <outline>
    <contour>
      <point x="284" y="-10" type="curve" smooth="yes"/>
      <point x="335" y="-10"/>
      <point x="380" y="2"/>
      <point x="411" y="16" type="curve"/>
      <point x="411" y="41" type="line"/>
      <point x="375" y="25"/>
      <point x="329" y="15"/>
      <point x="283" y="15" type="curve" smooth="yes"/>
      <point x="143" y="15"/>
      <point x="83" y="125"/>
      <point x="83" y="261" type="curve" smooth="yes"/>
      <point x="83" y="409"/>
      <point x="165" y="513"/>
      <point x="299" y="513" type="curve" smooth="yes"/>
      <point x="335" y="513"/>
      <point x="373" y="507"/>
      <point x="410" y="489" type="curve"/>
      <point x="415" y="514" type="line"/>
      <point x="381" y="530"/>
      <point x="344" y="538"/>
      <point x="299" y="538" type="curve" smooth="yes"/>
      <point x="148" y="538"/>
      <point x="55" y="422"/>
      <point x="55" y="261" type="curve" smooth="yes"/>
      <point x="55" y="106"/>
      <point x="126" y="-10"/>
    </contour>
  </outline>
</glyph>
<glyph name="c.serif" format="2">
  <advance width="448"/>
  <unicode hex="0063"/>
  <anchor x="254" y="0" name="bottom"/>
  <anchor x="254" y="536" name="top"/>
  <anchor x="428" y="536" name="topright"/>
  <outline>
    <contour>
      <point x="259" y="-10" type="curve" smooth="yes"/>
      <point x="358" y="-10"/>
      <point x="413" y="53"/>
      <point x="413" y="88" type="curve" smooth="yes"/>
      <point x="413" y="100"/>
      <point x="410" y="108"/>
      <point x="402" y="114" type="curve"/>
      <point x="389" y="57"/>
      <point x="346" y="1"/>
      <point x="259" y="0" type="curve" smooth="yes"/>
      <point x="169" y="-1"/>
      <point x="92" y="88"/>
      <point x="92" y="264" type="curve" smooth="yes"/>
      <point x="92" y="467"/>
      <point x="160" y="532"/>
      <point x="258" y="532" type="curve" smooth="yes"/>
      <point x="343" y="532"/>
      <point x="384" y="477"/>
      <point x="384" y="406" type="curve"/>
      <point x="399" y="407"/>
      <point x="409" y="417"/>
      <point x="409" y="433" type="curve" smooth="yes"/>
      <point x="409" y="490"/>
      <point x="354" y="542"/>
      <point x="262" y="542" type="curve" smooth="yes"/>
      <point x="148" y="542"/>
      <point x="64" y="475"/>
      <point x="64" y="263" type="curve" smooth="yes"/>
      <point x="64" y="78"/>
      <point x="151" y="-10"/>
    </contour>
  </outline>
</glyph>
<glyph name="d" format="2">
  <advance width="549"/>
  <unicode hex="0064"/>
  <anchor x="274" y="0" name="bottom"/>
  <anchor x="275" y="264" name="center"/>
  <anchor x="273" y="760" name="top"/>
  <anchor x="528" y="760" name="topright"/>
  <outline>
    <contour>
      <point x="265" y="-10" type="curve" smooth="yes"/>
      <point x="363" y="-10"/>
      <point x="416" y="46"/>
      <point x="438" y="113" type="curve"/>
      <point x="440" y="113" type="line"/>
      <point x="444" y="0" type="line"/>
      <point x="466" y="0" type="line"/>
      <point x="466" y="760" type="line"/>
      <point x="438" y="760" type="line"/>
      <point x="438" y="543" type="line" smooth="yes"/>
      <point x="438" y="501"/>
      <point x="439" y="459"/>
      <point x="441" y="414" type="curve"/>
      <point x="438" y="414" type="line"/>
      <point x="417" y="484"/>
      <point x="362" y="538"/>
      <point x="273" y="538" type="curve" smooth="yes"/>
      <point x="132" y="538"/>
      <point x="55" y="437"/>
      <point x="55" y="254" type="curve" smooth="yes"/>
      <point x="55" y="83"/>
      <point x="123" y="-10"/>
    </contour>
    <contour>
      <point x="266" y="15" type="curve" smooth="yes"/>
      <point x="142" y="15"/>
      <point x="83" y="94"/>
      <point x="83" y="254" type="curve" smooth="yes"/>
      <point x="83" y="427"/>
      <point x="151" y="513"/>
      <point x="273" y="513" type="curve" smooth="yes"/>
      <point x="385" y="513"/>
      <point x="439" y="426"/>
      <point x="439" y="266" type="curve" smooth="yes"/>
      <point x="439" y="263" type="line" smooth="yes"/>
      <point x="439" y="107"/>
      <point x="390" y="15"/>
    </contour>
  </outline>
</glyph>
<glyph name="e" format="2">
  <advance width="508"/>
  <unicode hex="0065"/>
  <anchor x="255" y="0" name="bottom"/>
  <anchor x="254" y="528" name="top"/>
  <anchor x="490" y="528" name="topright"/>
  <outline>
    <contour>
      <point x="270" y="538" type="curve" smooth="yes"/>
      <point x="125" y="538"/>
      <point x="55" y="408"/>
      <point x="55" y="259" type="curve" smooth="yes"/>
      <point x="55" y="104"/>
      <point x="123" y="-10"/>
      <point x="279" y="-10" type="curve" smooth="yes"/>
      <point x="339" y="-10"/>
      <point x="384" y="0"/>
      <point x="432" y="23" type="curve"/>
      <point x="432" y="50" type="line"/>
      <point x="374" y="22"/>
      <point x="339" y="15"/>
      <point x="279" y="15" type="curve" smooth="yes"/>
      <point x="151" y="15"/>
      <point x="83" y="105"/>
      <point x="83" y="266" type="curve"/>
      <point x="451" y="266" type="line"/>
      <point x="451" y="291" type="line" smooth="yes"/>
      <point x="451" y="430"/>
      <point x="397" y="538"/>
    </contour>
    <contour>
      <point x="270" y="513" type="curve" smooth="yes"/>
      <point x="374" y="513"/>
      <point x="423" y="423"/>
      <point x="423" y="291" type="curve"/>
      <point x="84" y="291" type="line"/>
      <point x="95" y="436"/>
      <point x="166" y="513"/>
    </contour>
  </outline>
</glyph>
<glyph name="e.serif" format="2">
  <advance width="489"/>
  <unicode hex="0065"/>
  <anchor x="255" y="0" name="bottom"/>
  <anchor x="255" y="536" name="top"/>
  <anchor x="469" y="536" name="topright"/>
  <outline>
    <contour>
      <point x="266" y="-10" type="curve" smooth="yes"/>
      <point x="367" y="-10"/>
      <point x="420" y="51"/>
      <point x="420" y="85" type="curve" smooth="yes"/>
      <point x="420" y="94"/>
      <point x="417" y="99"/>
      <point x="411" y="103" type="curve"/>
      <point x="388" y="39"/>
      <point x="343" y="0"/>
      <point x="267" y="0" type="curve" smooth="yes"/>
      <point x="163" y="0"/>
      <point x="91" y="88"/>
      <point x="93" y="276" type="curve"/>
      <point x="435" y="276" type="line"/>
      <point x="435" y="290" type="line" smooth="yes"/>
      <point x="435" y="448"/>
      <point x="367" y="542"/>
      <point x="257" y="542" type="curve" smooth="yes"/>
      <point x="133" y="542"/>
      <point x="64" y="451"/>
      <point x="64" y="262" type="curve" smooth="yes"/>
      <point x="64" y="87"/>
      <point x="142" y="-10"/>
    </contour>
    <contour>
      <point x="407" y="286" type="curve"/>
      <point x="94" y="286" type="line"/>
      <point x="101" y="433"/>
      <point x="144" y="532"/>
      <point x="256" y="532" type="curve" smooth="yes"/>
      <point x="354" y="532"/>
      <point x="406" y="430"/>
    </contour>
  </outline>
</glyph>
<glyph name="f" format="2">
  <advance width="261"/>
  <unicode hex="0066"/>
  <anchor x="120" y="0" name="bottom"/>
  <anchor x="206" y="765" name="top"/>
  <anchor x="307" y="765" name="topright"/>
  <outline>
    <contour>
      <point x="246" y="503" type="line"/>
      <point x="246" y="528" type="line"/>
      <point x="134" y="528" type="line"/>
      <point x="134" y="603" type="line" smooth="yes"/>
      <point x="134" y="701"/>
      <point x="164" y="740"/>
      <point x="243" y="740" type="curve" smooth="yes"/>
      <point x="267" y="740"/>
      <point x="294" y="736"/>
      <point x="317" y="727" type="curve"/>
      <point x="321" y="753" type="line"/>
      <point x="298" y="760"/>
      <point x="275" y="765"/>
      <point x="243" y="765" type="curve" smooth="yes"/>
      <point x="146" y="765"/>
      <point x="107" y="707"/>
      <point x="107" y="603" type="curve" smooth="yes"/>
      <point x="107" y="528" type="line"/>
      <point x="11" y="525" type="line"/>
      <point x="11" y="503" type="line"/>
      <point x="107" y="503" type="line"/>
      <point x="107" y="0" type="line"/>
      <point x="134" y="0" type="line"/>
      <point x="134" y="503" type="line"/>
    </contour>
  </outline>
</glyph>
<glyph name="f.serif" format="2">
  <advance width="321"/>
  <unicode hex="0066"/>
  <anchor x="161" y="0" name="bottom"/>
  <anchor x="261" y="772" name="top"/>
  <anchor x="381" y="772" name="topright"/>
  <outline>
    <contour>
      <point x="36" y="0" type="line"/>
      <point x="284" y="0" type="line"/>
      <point x="284" y="10" type="line"/>
      <point x="230" y="10" type="line" smooth="yes"/>
      <point x="170" y="10"/>
      <point x="163" y="14"/>
      <point x="163" y="88" type="curve" smooth="yes"/>
      <point x="163" y="526" type="line"/>
      <point x="307" y="526" type="line"/>
      <point x="307" y="536" type="line"/>
      <point x="163" y="536" type="line"/>
      <point x="163" y="600" type="line" smooth="yes"/>
      <point x="163" y="706"/>
      <point x="206" y="762"/>
      <point x="284" y="762" type="curve" smooth="yes"/>
      <point x="351" y="762"/>
      <point x="367" y="722"/>
      <point x="367" y="658" type="curve"/>
      <point x="377" y="658"/>
      <point x="389" y="667"/>
      <point x="389" y="694" type="curve" smooth="yes"/>
      <point x="389" y="729"/>
      <point x="358" y="772"/>
      <point x="286" y="772" type="curve" smooth="yes"/>
      <point x="191" y="772"/>
      <point x="135" y="709"/>
      <point x="135" y="600" type="curve" smooth="yes"/>
      <point x="135" y="536" type="line"/>
      <point x="40" y="536" type="line"/>
      <point x="40" y="526" type="line"/>
      <point x="135" y="526" type="line"/>
      <point x="135" y="88" type="line" smooth="yes"/>
      <point x="135" y="14"/>
      <point x="128" y="10"/>
      <point x="68" y="10" type="curve" smooth="yes"/>
      <point x="36" y="10" type="line"/>
    </contour>
  </outline>
</glyph>
<glyph name="g" format="2">
  <advance width="549"/>
  <unicode hex="0067"/>
  <anchor x="274" y="-240" name="bottom"/>
  <anchor x="274" y="528" name="top"/>
  <anchor x="529" y="528" name="topright"/>
  <outline>
    <contour>
      <point x="272" y="538" type="curve" smooth="yes"/>
      <point x="128" y="538"/>
      <point x="55" y="430"/>
      <point x="55" y="256" type="curve" smooth="yes"/>
      <point x="55" y="81"/>
      <point x="131" y="-10"/>
      <point x="259" y="-10" type="curve" smooth="yes"/>
      <point x="351" y="-10"/>
      <point x="414" y="34"/>
      <point x="437" y="117" type="curve"/>
      <point x="439" y="117" type="line"/>
      <point x="437" y="78"/>
      <point x="437" y="56"/>
      <point x="437" y="17" type="curve" smooth="yes"/>
      <point x="437" y="-25" type="line" smooth="yes"/>
      <point x="437" y="-140"/>
      <point x="388" y="-215"/>
      <point x="257" y="-215" type="curve" smooth="yes"/>
      <point x="187" y="-215"/>
      <point x="127" y="-196"/>
      <point x="82" y="-173" type="curve"/>
      <point x="82" y="-203" type="line"/>
      <point x="127" y="-223"/>
      <point x="181" y="-240"/>
      <point x="257" y="-240" type="curve" smooth="yes"/>
      <point x="408" y="-240"/>
      <point x="464" y="-152"/>
      <point x="464" y="-25" type="curve" smooth="yes"/>
      <point x="464" y="528" type="line"/>
      <point x="441" y="528" type="line"/>
      <point x="436" y="437" type="line"/>
      <point x="434" y="437" type="line"/>
      <point x="407" y="495"/>
      <point x="362" y="538"/>
    </contour>
    <contour>
      <point x="272" y="513" type="curve" smooth="yes"/>
      <point x="398" y="513"/>
      <point x="437" y="419"/>
      <point x="437" y="294" type="curve" smooth="yes"/>
      <point x="437" y="246" type="line" smooth="yes"/>
      <point x="437" y="136"/>
      <point x="404" y="15"/>
      <point x="260" y="15" type="curve" smooth="yes"/>
      <point x="146" y="15"/>
      <point x="83" y="99"/>
      <point x="83" y="256" type="curve" smooth="yes"/>
      <point x="83" y="417"/>
      <point x="143" y="513"/>
    </contour>
  </outline>
</glyph>
<glyph name="h" format="2">
  <advance width="540"/>
  <unicode hex="0068"/>
  <anchor x="270" y="0" name="bottom"/>
  <anchor x="274" y="264" name="center"/>
  <anchor x="98" y="760" name="top"/>
  <anchor x="519" y="760" name="topright"/>
  <outline>
    <contour>
      <point x="111" y="496" type="curve" smooth="yes"/>
      <point x="111" y="760" type="line"/>
      <point x="84" y="760" type="line"/>
      <point x="84" y="0" type="line"/>
      <point x="111" y="0" type="line"/>
      <point x="111" y="302" type="line" smooth="yes"/>
      <point x="111" y="446"/>
      <point x="183" y="513"/>
      <point x="291" y="513" type="curve" smooth="yes"/>
      <point x="382" y="513"/>
      <point x="434" y="462"/>
      <point x="434" y="345" type="curve" smooth="yes"/>
      <point x="434" y="0" type="line"/>
      <point x="461" y="0" type="line"/>
      <point x="461" y="346" type="line" smooth="yes"/>
      <point x="461" y="477"/>
      <point x="399" y="538"/>
      <point x="291" y="538" type="curve" smooth="yes"/>
      <point x="188" y="538"/>
      <point x="132" y="480"/>
      <point x="111" y="417" type="curve"/>
      <point x="109" y="417" type="line"/>
      <point x="110" y="446"/>
      <point x="111" y="466"/>
    </contour>
  </outline>
</glyph>
<glyph name="i" format="2">
  <advance width="196"/>
  <unicode hex="0069"/>
  <anchor x="99" y="0" name="bottom"/>
  <anchor x="99" y="721" name="top"/>
  <anchor x="178" y="721" name="topright"/>
  <outline>
    <contour>
      <point x="111" y="528" type="line"/>
      <point x="84" y="528" type="line"/>
      <point x="84" y="0" type="line"/>
      <point x="111" y="0" type="line"/>
    </contour>
    <contour>
      <point x="98" y="721" type="curve" smooth="yes"/>
      <point x="78" y="721"/>
      <point x="73" y="706"/>
      <point x="73" y="690" type="curve" smooth="yes"/>
      <point x="73" y="673"/>
      <point x="78" y="659"/>
      <point x="98" y="659" type="curve" smooth="yes"/>
      <point x="120" y="659"/>
      <point x="124" y="673"/>
      <point x="124" y="690" type="curve" smooth="yes"/>
      <point x="124" y="706"/>
      <point x="120" y="721"/>
    </contour>
  </outline>
</glyph>
<glyph name="i.serif" format="2">
  <advance width="280"/>
  <unicode hex="0069"/>
  <anchor x="140" y="0" name="bottom"/>
  <anchor x="145" y="738" name="top"/>
  <anchor x="230" y="738" name="topright"/>
  <outline>
    <contour>
      <point x="31" y="0" type="line"/>
      <point x="273" y="0" type="line"/>
      <point x="273" y="10" type="line"/>
      <point x="243" y="10" type="line" smooth="yes"/>
      <point x="170" y="10"/>
      <point x="166" y="14"/>
      <point x="166" y="84" type="curve" smooth="yes"/>
      <point x="166" y="536" type="line"/>
      <point x="53" y="536" type="line"/>
      <point x="53" y="526" type="line"/>
      <point x="71" y="526" type="line" smooth="yes"/>
      <point x="131" y="526"/>
      <point x="138" y="522"/>
      <point x="138" y="448" type="curve" smooth="yes"/>
      <point x="138" y="84" type="line" smooth="yes"/>
      <point x="138" y="14"/>
      <point x="134" y="10"/>
      <point x="61" y="10" type="curve" smooth="yes"/>
      <point x="31" y="10" type="line"/>
    </contour>
    <contour>
      <point x="147" y="658" type="curve" smooth="yes"/>
      <point x="160" y="658"/>
      <point x="167" y="666"/>
      <point x="167" y="698" type="curve" smooth="yes"/>
      <point x="167" y="729"/>
      <point x="160" y="738"/>
      <point x="147" y="738" type="curve" smooth="yes"/>
      <point x="135" y="738"/>
      <point x="127" y="729"/>
      <point x="127" y="698" type="curve" smooth="yes"/>
      <point x="127" y="666"/>
      <point x="135" y="658"/>
    </contour>
  </outline>
</glyph>
<glyph name="j" format="2">
  <advance width="197"/>
  <unicode hex="006A"/>
  <anchor x="11" y="-240" name="bottom"/>
  <anchor x="99" y="721" name="top"/>
  <anchor x="178" y="721" name="topright"/>
  <outline>
    <contour>
      <point x="11" y="-240" type="curve" smooth="yes"/>
      <point x="67" y="-240"/>
      <point x="112" y="-201"/>
      <point x="112" y="-120" type="curve" smooth="yes"/>
      <point x="112" y="528" type="line"/>
      <point x="85" y="528" type="line"/>
      <point x="85" y="-116" type="line" smooth="yes"/>
      <point x="85" y="-178"/>
      <point x="60" y="-215"/>
      <point x="11" y="-215" type="curve" smooth="yes"/>
      <point x="-9" y="-215"/>
      <point x="-28" y="-213"/>
      <point x="-47" y="-204" type="curve"/>
      <point x="-47" y="-230" type="line"/>
      <point x="-32" y="-236"/>
      <point x="-13" y="-240"/>
    </contour>
    <contour>
      <point x="74" y="690" type="curve" smooth="yes"/>
      <point x="74" y="673"/>
      <point x="79" y="659"/>
      <point x="98" y="659" type="curve" smooth="yes"/>
      <point x="121" y="659"/>
      <point x="125" y="673"/>
      <point x="125" y="690" type="curve" smooth="yes"/>
      <point x="125" y="706"/>
      <point x="121" y="721"/>
      <point x="98" y="721" type="curve" smooth="yes"/>
      <point x="79" y="721"/>
      <point x="74" y="706"/>
    </contour>
  </outline>
</glyph>
<glyph name="j.serif" format="2">
  <advance width="284"/>
  <unicode hex="006A"/>
  <anchor x="92" y="-240" name="bottom"/>
  <anchor x="152" y="738" name="top"/>
  <anchor x="234" y="738" name="topright"/>
  <outline>
    <contour>
      <point x="26" y="-240" type="line"/>
      <point x="42" y="-240" type="line" smooth="yes"/>
      <point x="120" y="-240"/>
      <point x="174" y="-187"/>
      <point x="174" y="-8" type="curve" smooth="yes"/>
      <point x="174" y="536" type="line"/>
      <point x="61" y="536" type="line"/>
      <point x="61" y="526" type="line"/>
      <point x="79" y="526" type="line" smooth="yes"/>
      <point x="139" y="526"/>
      <point x="146" y="522"/>
      <point x="146" y="448" type="curve" smooth="yes"/>
      <point x="146" y="-8" type="line" smooth="yes"/>
      <point x="146" y="-180"/>
      <point x="105" y="-230"/>
      <point x="37" y="-230" type="curve" smooth="yes"/>
      <point x="26" y="-230" type="line"/>
    </contour>
    <contour>
      <point x="155" y="658" type="curve" smooth="yes"/>
      <point x="168" y="658"/>
      <point x="175" y="666"/>
      <point x="175" y="698" type="curve" smooth="yes"/>
      <point x="175" y="729"/>
      <point x="168" y="738"/>
      <point x="155" y="738" type="curve" smooth="yes"/>
      <point x="143" y="738"/>
      <point x="135" y="729"/>
      <point x="135" y="698" type="curve" smooth="yes"/>
      <point x="135" y="666"/>
      <point x="143" y="658"/>
    </contour>
  </outline>
</glyph>
<glyph name="k" format="2">
  <advance width="430"/>
  <unicode hex="006B"/>
  <anchor x="235" y="0" name="bottom"/>
  <anchor x="98" y="760" name="top"/>
  <anchor x="412" y="830" name="topright"/>
  <outline>
    <contour>
      <point x="111" y="385" type="curve" smooth="yes"/>
      <point x="111" y="760" type="line"/>
      <point x="84" y="760" type="line"/>
      <point x="84" y="0" type="line"/>
      <point x="111" y="0" type="line"/>
      <point x="111" y="172" type="line"/>
      <point x="203" y="283" type="line"/>
      <point x="402" y="0" type="line"/>
      <point x="434" y="0" type="line"/>
      <point x="222" y="301" type="line"/>
      <point x="415" y="528" type="line"/>
      <point x="381" y="528" type="line"/>
      <point x="163" y="268" type="line" smooth="yes"/>
      <point x="143" y="244"/>
      <point x="130" y="229"/>
      <point x="109" y="203" type="curve"/>
      <point x="110" y="203" type="line"/>
      <point x="111" y="267"/>
      <point x="111" y="321"/>
    </contour>
  </outline>
</glyph>
<glyph name="l" format="2">
  <advance width="196"/>
  <unicode hex="006C"/>
  <anchor x="99" y="0" name="bottom"/>
  <anchor x="99" y="264" name="center"/>
  <anchor x="99" y="760" name="top"/>
  <anchor x="176" y="760" name="topright"/>
  <outline>
    <contour>
      <point x="112" y="0" type="line"/>
      <point x="112" y="760" type="line"/>
      <point x="85" y="760" type="line"/>
      <point x="85" y="0" type="line"/>
    </contour>
  </outline>
</glyph>
<glyph name="l.serif" format="2">
  <advance width="256"/>
  <unicode hex="006C"/>
  <anchor x="128" y="0" name="bottom"/>
  <anchor x="128" y="268" name="center"/>
  <anchor x="128" y="760" name="top"/>
  <anchor x="186" y="760" name="topright"/>
  <outline>
    <contour>
      <point x="7" y="0" type="line"/>
      <point x="249" y="0" type="line"/>
      <point x="249" y="10" type="line"/>
      <point x="220" y="10" type="line" smooth="yes"/>
      <point x="146" y="10"/>
      <point x="142" y="14"/>
      <point x="142" y="84" type="curve" smooth="yes"/>
      <point x="142" y="760" type="line"/>
      <point x="7" y="760" type="line"/>
      <point x="7" y="750" type="line"/>
      <point x="47" y="750" type="line" smooth="yes"/>
      <point x="107" y="750"/>
      <point x="114" y="746"/>
      <point x="114" y="672" type="curve" smooth="yes"/>
      <point x="114" y="84" type="line" smooth="yes"/>
      <point x="114" y="14"/>
      <point x="110" y="10"/>
      <point x="37" y="10" type="curve" smooth="yes"/>
      <point x="7" y="10" type="line"/>
    </contour>
  </outline>
</glyph>
<glyph name="m" format="2">
  <advance width="804"/>
  <unicode hex="006D"/>
  <anchor x="406" y="0" name="bottom"/>
  <anchor x="402" y="528" name="top"/>
  <anchor x="784" y="528" name="topright"/>
  <outline>
    <contour>
      <point x="579" y="538" type="curve" smooth="yes"/>
      <point x="491" y="538"/>
      <point x="435" y="494"/>
      <point x="411" y="429" type="curve"/>
      <point x="409" y="429" type="line"/>
      <point x="392" y="500"/>
      <point x="340" y="538"/>
      <point x="271" y="538" type="curve" smooth="yes"/>
      <point x="177" y="538"/>
      <point x="132" y="481"/>
      <point x="112" y="432" type="curve"/>
      <point x="110" y="432" type="line"/>
      <point x="106" y="528" type="line"/>
      <point x="84" y="528" type="line"/>
      <point x="84" y="0" type="line"/>
      <point x="111" y="0" type="line"/>
      <point x="111" y="325" type="line" smooth="yes"/>
      <point x="111" y="459"/>
      <point x="183" y="513"/>
      <point x="271" y="513" type="curve" smooth="yes"/>
      <point x="339" y="513"/>
      <point x="392" y="467"/>
      <point x="392" y="360" type="curve" smooth="yes"/>
      <point x="392" y="0" type="line"/>
      <point x="419" y="0" type="line"/>
      <point x="419" y="325" type="line" smooth="yes"/>
      <point x="419" y="459"/>
      <point x="485" y="513"/>
      <point x="579" y="513" type="curve" smooth="yes"/>
      <point x="647" y="513"/>
      <point x="700" y="467"/>
      <point x="700" y="360" type="curve" smooth="yes"/>
      <point x="700" y="0" type="line"/>
      <point x="727" y="0" type="line"/>
      <point x="727" y="361" type="line" smooth="yes"/>
      <point x="727" y="482"/>
      <point x="665" y="538"/>
    </contour>
  </outline>
</glyph>
<glyph name="m.serif" format="2">
  <advance width="891"/>
  <unicode hex="006D"/>
  <anchor x="446" y="0" name="bottom"/>
  <anchor x="446" y="536" name="top"/>
  <anchor x="831" y="536" name="topright"/>
  <outline>
    <contour>
      <point x="38" y="0" type="line"/>
      <point x="263" y="0" type="line"/>
      <point x="263" y="10" type="line"/>
      <point x="243" y="10" type="line" smooth="yes"/>
      <point x="170" y="10"/>
      <point x="166" y="14"/>
      <point x="166" y="84" type="curve" smooth="yes"/>
      <point x="166" y="343" type="line" smooth="yes"/>
      <point x="166" y="440"/>
      <point x="215" y="526"/>
      <point x="315" y="526" type="curve" smooth="yes"/>
      <point x="409" y="526"/>
      <point x="443" y="471"/>
      <point x="443" y="374" type="curve" smooth="yes"/>
      <point x="443" y="0" type="line"/>
      <point x="563" y="0" type="line"/>
      <point x="563" y="10" type="line"/>
      <point x="548" y="10" type="line" smooth="yes"/>
      <point x="475" y="10"/>
      <point x="471" y="14"/>
      <point x="471" y="84" type="curve" smooth="yes"/>
      <point x="471" y="358" type="line" smooth="yes"/>
      <point x="471" y="452"/>
      <point x="516" y="527"/>
      <point x="622" y="527" type="curve" smooth="yes"/>
      <point x="712" y="527"/>
      <point x="748" y="472"/>
      <point x="748" y="374" type="curve" smooth="yes"/>
      <point x="748" y="0" type="line"/>
      <point x="863" y="0" type="line"/>
      <point x="863" y="10" type="line"/>
      <point x="853" y="10" type="line" smooth="yes"/>
      <point x="780" y="10"/>
      <point x="776" y="14"/>
      <point x="776" y="84" type="curve" smooth="yes"/>
      <point x="776" y="361" type="line" smooth="yes"/>
      <point x="776" y="478"/>
      <point x="729" y="543"/>
      <point x="622" y="542" type="curve" smooth="yes"/>
      <point x="535" y="541"/>
      <point x="484" y="489"/>
      <point x="467" y="414" type="curve"/>
      <point x="465" y="414" type="line"/>
      <point x="451" y="495"/>
      <point x="412" y="542"/>
      <point x="321" y="542" type="curve" smooth="yes"/>
      <point x="249" y="542"/>
      <point x="192" y="494"/>
      <point x="168" y="424" type="curve"/>
      <point x="166" y="424" type="line"/>
      <point x="166" y="536" type="line"/>
      <point x="54" y="536" type="line"/>
      <point x="54" y="526" type="line"/>
      <point x="71" y="526" type="line" smooth="yes"/>
      <point x="131" y="526"/>
      <point x="138" y="521"/>
      <point x="138" y="452" type="curve" smooth="yes"/>
      <point x="138" y="84" type="line" smooth="yes"/>
      <point x="138" y="14"/>
      <point x="134" y="10"/>
      <point x="61" y="10" type="curve" smooth="yes"/>
      <point x="38" y="10" type="line"/>
    </contour>
  </outline>
</glyph>
<glyph name="n" format="2">
  <advance width="540"/>
  <unicode hex="006E"/>
  <anchor x="270" y="0" name="bottom"/>
  <anchor x="270" y="528" name="top"/>
  <anchor x="520" y="528" name="topright"/>
  <outline>
    <contour>
      <point x="292" y="538" type="curve" smooth="yes"/>
      <point x="188" y="538"/>
      <point x="134" y="478"/>
      <point x="112" y="417" type="curve"/>
      <point x="110" y="417" type="line"/>
      <point x="106" y="528" type="line"/>
      <point x="84" y="528" type="line"/>
      <point x="84" y="0" type="line"/>
      <point x="111" y="0" type="line"/>
      <point x="111" y="302" type="line" smooth="yes"/>
      <point x="111" y="446"/>
      <point x="183" y="513"/>
      <point x="291" y="513" type="curve" smooth="yes"/>
      <point x="382" y="513"/>
      <point x="434" y="462"/>
      <point x="434" y="345" type="curve" smooth="yes"/>
      <point x="434" y="0" type="line"/>
      <point x="461" y="0" type="line"/>
      <point x="461" y="346" type="line" smooth="yes"/>
      <point x="461" y="477"/>
      <point x="399" y="538"/>
    </contour>
  </outline>
</glyph>
<glyph name="o" format="2">
  <advance width="541"/>
  <unicode hex="006F"/>
  <anchor x="271" y="0" name="bottom"/>
  <anchor x="271" y="264" name="center"/>
  <anchor x="271" y="528" name="top"/>
  <anchor x="522" y="528" name="topright"/>
  <outline>
    <contour>
      <point x="485" y="264" type="curve" smooth="yes"/>
      <point x="485" y="417"/>
      <point x="424" y="538"/>
      <point x="275" y="538" type="curve" smooth="yes"/>
      <point x="136" y="538"/>
      <point x="55" y="432"/>
      <point x="55" y="264" type="curve" smooth="yes"/>
      <point x="55" y="107"/>
      <point x="127" y="-10"/>
      <point x="269" y="-10" type="curve" smooth="yes"/>
      <point x="417" y="-10"/>
      <point x="485" y="109"/>
    </contour>
    <contour>
      <point x="83" y="264" type="curve" smooth="yes"/>
      <point x="83" y="420"/>
      <point x="152" y="513"/>
      <point x="275" y="513" type="curve" smooth="yes"/>
      <point x="406" y="513"/>
      <point x="457" y="402"/>
      <point x="457" y="264" type="curve" smooth="yes"/>
      <point x="457" y="119"/>
      <point x="399" y="15"/>
      <point x="269" y="15" type="curve" smooth="yes"/>
      <point x="144" y="15"/>
      <point x="83" y="117"/>
    </contour>
  </outline>
</glyph>
<glyph name="o.serif" format="2">
  <advance width="531"/>
  <unicode hex="006F"/>
  <anchor x="266" y="0" name="bottom"/>
  <anchor x="266" y="268" name="center"/>
  <anchor x="266" y="536" name="top"/>
  <anchor x="501" y="536" name="topright"/>
  <outline>
    <contour>
      <point x="265" y="-10" type="curve" smooth="yes"/>
      <point x="397" y="-10"/>
      <point x="466" y="79"/>
      <point x="466" y="267" type="curve" smooth="yes"/>
      <point x="466" y="459"/>
      <point x="396" y="542"/>
      <point x="270" y="542" type="curve" smooth="yes"/>
      <point x="135" y="542"/>
      <point x="65" y="454"/>
      <point x="65" y="267" type="curve" smooth="yes"/>
      <point x="65" y="79"/>
      <point x="141" y="-10"/>
    </contour>
    <contour>
      <point x="265" y="0" type="curve" smooth="yes"/>
      <point x="146" y="0"/>
      <point x="93" y="93"/>
      <point x="93" y="267" type="curve" smooth="yes"/>
      <point x="93" y="448"/>
      <point x="144" y="532"/>
      <point x="270" y="532" type="curve" smooth="yes"/>
      <point x="386" y="532"/>
      <point x="438" y="453"/>
      <point x="438" y="267" type="curve" smooth="yes"/>
      <point x="438" y="100"/>
      <point x="393" y="0"/>
    </contour>
  </outline>
</glyph>
<glyph name="p" format="2">
  <advance width="549"/>
  <unicode hex="0070"/>
  <anchor x="99" y="-232" name="bottom"/>
  <anchor x="276" y="528" name="top"/>
  <anchor x="530" y="528" name="topright"/>
  <outline>
    <contour>
      <point x="295" y="538" type="curve" smooth="yes"/>
      <point x="193" y="538"/>
      <point x="133" y="472"/>
      <point x="112" y="402" type="curve"/>
      <point x="110" y="402" type="line"/>
      <point x="105" y="528" type="line"/>
      <point x="85" y="528" type="line"/>
      <point x="85" y="-232" type="line"/>
      <point x="112" y="-232" type="line"/>
      <point x="112" y="-15" type="line" smooth="yes"/>
      <point x="112" y="27"/>
      <point x="112" y="71"/>
      <point x="110" y="116" type="curve"/>
      <point x="112" y="116" type="line"/>
      <point x="133" y="46"/>
      <point x="188" y="-10"/>
      <point x="286" y="-10" type="curve" smooth="yes"/>
      <point x="418" y="-10"/>
      <point x="496" y="91"/>
      <point x="496" y="269" type="curve" smooth="yes"/>
      <point x="496" y="445"/>
      <point x="426" y="538"/>
    </contour>
    <contour>
      <point x="294" y="513" type="curve" smooth="yes"/>
      <point x="408" y="513"/>
      <point x="467" y="434"/>
      <point x="467" y="269" type="curve" smooth="yes"/>
      <point x="467" y="101"/>
      <point x="400" y="15"/>
      <point x="286" y="15" type="curve" smooth="yes"/>
      <point x="178" y="15"/>
      <point x="112" y="92"/>
      <point x="112" y="262" type="curve" smooth="yes"/>
      <point x="112" y="265" type="line" smooth="yes"/>
      <point x="112" y="421"/>
      <point x="175" y="513"/>
    </contour>
  </outline>
</glyph>
<glyph name="p.serif" format="2">
  <advance width="574"/>
  <unicode hex="0070"/>
  <anchor x="287" y="-240" name="bottom"/>
  <anchor x="287" y="536" name="top"/>
  <anchor x="544" y="536" name="topright"/>
  <outline>
    <contour>
      <point x="24" y="-240" type="line"/>
      <point x="259" y="-240" type="line"/>
      <point x="259" y="-230" type="line"/>
      <point x="217" y="-230" type="line" smooth="yes"/>
      <point x="157" y="-230"/>
      <point x="150" y="-226"/>
      <point x="150" y="-152" type="curve" smooth="yes"/>
      <point x="150" y="-13" type="line" smooth="yes"/>
      <point x="150" y="60"/>
      <point x="150" y="125"/>
      <point x="149" y="152" type="curve"/>
      <point x="151" y="152" type="line"/>
      <point x="171" y="50"/>
      <point x="232" y="-10"/>
      <point x="317" y="-10" type="curve" smooth="yes"/>
      <point x="435" y="-10"/>
      <point x="509" y="80"/>
      <point x="509" y="278" type="curve" smooth="yes"/>
      <point x="509" y="460"/>
      <point x="449" y="546"/>
      <point x="316" y="546" type="curve" smooth="yes"/>
      <point x="227" y="546"/>
      <point x="168" y="480"/>
      <point x="151" y="392" type="curve"/>
      <point x="149" y="392" type="line"/>
      <point x="149" y="536" type="line"/>
      <point x="1" y="536" type="line"/>
      <point x="1" y="526" type="line"/>
      <point x="45" y="526" type="line" smooth="yes"/>
      <point x="118" y="526"/>
      <point x="122" y="522"/>
      <point x="122" y="452" type="curve" smooth="yes"/>
      <point x="122" y="-152" type="line" smooth="yes"/>
      <point x="122" y="-226"/>
      <point x="115" y="-230"/>
      <point x="55" y="-230" type="curve" smooth="yes"/>
      <point x="24" y="-230" type="line"/>
    </contour>
    <contour>
      <point x="320" y="5" type="curve" smooth="yes"/>
      <point x="195" y="5"/>
      <point x="150" y="108"/>
      <point x="150" y="279" type="curve" smooth="yes"/>
      <point x="150" y="427"/>
      <point x="193" y="531"/>
      <point x="317" y="531" type="curve" smooth="yes"/>
      <point x="437" y="531"/>
      <point x="481" y="446"/>
      <point x="481" y="273" type="curve" smooth="yes"/>
      <point x="481" y="97"/>
      <point x="423" y="5"/>
    </contour>
  </outline>
</glyph>
<glyph name="q" format="2">
  <advance width="550"/>
  <unicode hex="0071"/>
  <anchor x="450" y="-232" name="bottom"/>
  <anchor x="276" y="528" name="top"/>
  <anchor x="529" y="528" name="topright"/>
  <outline>
    <contour>
      <point x="436" y="3" type="curve" smooth="yes"/>
      <point x="436" y="-232" type="line"/>
      <point x="464" y="-232" type="line"/>
      <point x="464" y="528" type="line"/>
      <point x="441" y="528" type="line"/>
      <point x="437" y="424" type="line"/>
      <point x="435" y="424" type="line"/>
      <point x="413" y="487"/>
      <point x="357" y="538"/>
      <point x="268" y="538" type="curve" smooth="yes"/>
      <point x="118" y="538"/>
      <point x="53" y="414"/>
      <point x="53" y="262" type="curve" smooth="yes"/>
      <point x="53" y="84"/>
      <point x="122" y="-11"/>
      <point x="253" y="-11" type="curve" smooth="yes"/>
      <point x="348" y="-11"/>
      <point x="415" y="45"/>
      <point x="436" y="122" type="curve"/>
      <point x="439" y="122" type="line"/>
      <point x="437" y="89"/>
      <point x="436" y="35"/>
    </contour>
    <contour>
      <point x="254" y="14" type="curve" smooth="yes"/>
      <point x="139" y="14"/>
      <point x="81" y="98"/>
      <point x="81" y="262" type="curve" smooth="yes"/>
      <point x="81" y="422"/>
      <point x="146" y="513"/>
      <point x="268" y="513" type="curve" smooth="yes"/>
      <point x="382" y="513"/>
      <point x="437" y="430"/>
      <point x="437" y="275" type="curve" smooth="yes"/>
      <point x="437" y="265" type="line" smooth="yes"/>
      <point x="437" y="109"/>
      <point x="380" y="14"/>
    </contour>
  </outline>
</glyph>
<glyph name="s" format="2">
  <advance width="431"/>
  <unicode hex="0073"/>
  <anchor x="216" y="0" name="bottom"/>
  <anchor x="216" y="528" name="top"/>
  <anchor x="412" y="528" name="topright"/>
  <outline>
    <contour>
      <point x="387" y="134" type="curve" smooth="yes"/>
      <point x="387" y="235"/>
      <point x="305" y="258"/>
      <point x="221" y="286" type="curve" smooth="yes"/>
      <point x="144" y="312"/>
      <point x="80" y="325"/>
      <point x="80" y="407" type="curve" smooth="yes"/>
      <point x="80" y="478"/>
      <point x="135" y="513"/>
      <point x="224" y="513" type="curve" smooth="yes"/>
      <point x="274" y="513"/>
      <point x="329" y="501"/>
      <point x="364" y="483" type="curve"/>
      <point x="375" y="508" type="line"/>
      <point x="335" y="525"/>
      <point x="283" y="538"/>
      <point x="224" y="538" type="curve" smooth="yes"/>
      <point x="118" y="538"/>
      <point x="52" y="489"/>
      <point x="52" y="407" type="curve" smooth="yes"/>
      <point x="52" y="309"/>
      <point x="122" y="290"/>
      <point x="210" y="262" type="curve" smooth="yes"/>
      <point x="293" y="236"/>
      <point x="359" y="212"/>
      <point x="359" y="134" type="curve" smooth="yes"/>
      <point x="359" y="60"/>
      <point x="313" y="15"/>
      <point x="200" y="15" type="curve" smooth="yes"/>
      <point x="142" y="15"/>
      <point x="86" y="28"/>
      <point x="37" y="54" type="curve"/>
      <point x="37" y="24" type="line"/>
      <point x="73" y="7"/>
      <point x="132" y="-10"/>
      <point x="200" y="-10" type="curve" smooth="yes"/>
      <point x="324" y="-10"/>
      <point x="387" y="45"/>
    </contour>
  </outline>
</glyph>
<glyph name="s.serif" format="2">
  <advance width="405"/>
  <unicode hex="0073"/>
  <anchor x="203" y="0" name="bottom"/>
  <anchor x="203" y="536" name="top"/>
  <anchor x="345" y="536" name="topright"/>
  <outline>
    <contour>
      <point x="206" y="-10" type="curve" smooth="yes"/>
      <point x="292" y="-10"/>
      <point x="353" y="47"/>
      <point x="353" y="131" type="curve" smooth="yes"/>
      <point x="353" y="191"/>
      <point x="333" y="230"/>
      <point x="231" y="283" type="curve" smooth="yes"/>
      <point x="150" y="325"/>
      <point x="104" y="358"/>
      <point x="104" y="421" type="curve" smooth="yes"/>
      <point x="104" y="491"/>
      <point x="138" y="532"/>
      <point x="211" y="532" type="curve" smooth="yes"/>
      <point x="278" y="532"/>
      <point x="312" y="506"/>
      <point x="312" y="405" type="curve"/>
      <point x="331" y="405"/>
      <point x="338" y="419"/>
      <point x="338" y="445" type="curve" smooth="yes"/>
      <point x="338" y="489"/>
      <point x="304" y="542"/>
      <point x="214" y="542" type="curve" smooth="yes"/>
      <point x="129" y="542"/>
      <point x="76" y="493"/>
      <point x="76" y="422" type="curve" smooth="yes"/>
      <point x="76" y="349"/>
      <point x="113" y="315"/>
      <point x="229" y="252" type="curve" smooth="yes"/>
      <point x="310" y="208"/>
      <point x="325" y="180"/>
      <point x="325" y="132" type="curve" smooth="yes"/>
      <point x="325" y="54"/>
      <point x="284" y="0"/>
      <point x="206" y="0" type="curve" smooth="yes"/>
      <point x="111" y="0"/>
      <point x="91" y="46"/>
      <point x="91" y="137" type="curve"/>
      <point x="72" y="137"/>
      <point x="65" y="123"/>
      <point x="65" y="95" type="curve" smooth="yes"/>
      <point x="65" y="50"/>
      <point x="94" y="-10"/>
    </contour>
  </outline>
</glyph>
<glyph name="t" format="2">
  <advance width="302"/>
  <unicode hex="0074"/>
  <anchor x="181" y="0" name="bottom"/>
  <anchor x="152" y="264" name="center"/>
  <anchor x="105" y="659" name="top"/>
  <anchor x="233" y="830" name="topright"/>
  <outline>
    <contour>
      <point x="202" y="15" type="curve" smooth="yes"/>
      <point x="133" y="15"/>
      <point x="113" y="61"/>
      <point x="113" y="143" type="curve" smooth="yes"/>
      <point x="113" y="503" type="line"/>
      <point x="274" y="503" type="line"/>
      <point x="274" y="528" type="line"/>
      <point x="113" y="528" type="line"/>
      <point x="113" y="659" type="line"/>
      <point x="92" y="659" type="line"/>
      <point x="85" y="528" type="line"/>
      <point x="10" y="525" type="line"/>
      <point x="10" y="503" type="line"/>
      <point x="86" y="503" type="line"/>
      <point x="86" y="140" type="line" smooth="yes"/>
      <point x="86" y="47"/>
      <point x="114" y="-10"/>
      <point x="201" y="-10" type="curve" smooth="yes"/>
      <point x="234" y="-10"/>
      <point x="255" y="-4"/>
      <point x="276" y="3" type="curve"/>
      <point x="276" y="28" type="line"/>
      <point x="256" y="20"/>
      <point x="233" y="15"/>
    </contour>
  </outline>
</glyph>
<glyph name="t.serif" format="2">
  <advance width="286"/>
  <unicode hex="0074"/>
  <anchor x="163" y="0" name="bottom"/>
  <anchor x="143" y="268" name="center"/>
  <anchor x="114" y="657" name="top"/>
  <anchor x="140" y="930" name="topright"/>
  <outline>
    <contour>
      <point x="202" y="-10" type="curve" smooth="yes"/>
      <point x="220" y="-10"/>
      <point x="238" y="-9"/>
      <point x="259" y="-5" type="curve"/>
      <point x="259" y="5" type="line"/>
      <point x="238" y="1"/>
      <point x="223" y="0"/>
      <point x="201" y="0" type="curve" smooth="yes"/>
      <point x="145" y="0"/>
      <point x="123" y="31"/>
      <point x="123" y="132" type="curve" smooth="yes"/>
      <point x="123" y="526" type="line"/>
      <point x="250" y="526" type="line"/>
      <point x="250" y="536" type="line"/>
      <point x="123" y="536" type="line"/>
      <point x="123" y="657" type="line"/>
      <point x="113" y="657" type="line"/>
      <point x="113" y="602"/>
      <point x="109" y="570"/>
      <point x="91" y="553" type="curve" smooth="yes"/>
      <point x="77" y="540"/>
      <point x="54" y="536"/>
      <point x="17" y="536" type="curve"/>
      <point x="17" y="526" type="line"/>
      <point x="95" y="526" type="line"/>
      <point x="95" y="141" type="line" smooth="yes"/>
      <point x="95" y="30"/>
      <point x="125" y="-10"/>
    </contour>
  </outline>
</glyph>
<glyph name="u" format="2">
  <advance width="540"/>
  <unicode hex="0075"/>
  <anchor x="270" y="0" name="bottom"/>
  <anchor x="271" y="528" name="top"/>
  <anchor x="520" y="528" name="topright"/>
  <outline>
    <contour>
      <point x="454" y="528" type="line"/>
      <point x="427" y="528" type="line"/>
      <point x="427" y="226" type="line" smooth="yes"/>
      <point x="427" y="82"/>
      <point x="356" y="15"/>
      <point x="247" y="15" type="curve" smooth="yes"/>
      <point x="155" y="15"/>
      <point x="104" y="68"/>
      <point x="104" y="186" type="curve" smooth="yes"/>
      <point x="104" y="528" type="line"/>
      <point x="77" y="528" type="line"/>
      <point x="77" y="182" type="line" smooth="yes"/>
      <point x="77" y="57"/>
      <point x="135" y="-10"/>
      <point x="247" y="-10" type="curve" smooth="yes"/>
      <point x="350" y="-10"/>
      <point x="404" y="50"/>
      <point x="426" y="111" type="curve"/>
      <point x="428" y="111" type="line"/>
      <point x="432" y="0" type="line"/>
      <point x="454" y="0" type="line"/>
    </contour>
  </outline>
</glyph>
<glyph name="u.serif" format="2">
  <advance width="597"/>
  <unicode hex="0075"/>
  <anchor x="299" y="0" name="bottom"/>
  <anchor x="299" y="536" name="top"/>
  <anchor x="517" y="536" name="topright"/>
  <outline>
    <contour>
      <point x="281" y="-10" type="curve" smooth="yes"/>
      <point x="370" y="-10"/>
      <point x="425" y="49"/>
      <point x="448" y="123" type="curve"/>
      <point x="450" y="123" type="line"/>
      <point x="450" y="0" type="line"/>
      <point x="576" y="0" type="line"/>
      <point x="576" y="10" type="line"/>
      <point x="544" y="10" type="line" smooth="yes"/>
      <point x="484" y="10"/>
      <point x="477" y="15"/>
      <point x="477" y="84" type="curve" smooth="yes"/>
      <point x="477" y="536" type="line"/>
      <point x="354" y="536" type="line"/>
      <point x="354" y="526" type="line"/>
      <point x="372" y="526" type="line" smooth="yes"/>
      <point x="445" y="526"/>
      <point x="449" y="522"/>
      <point x="449" y="452" type="curve" smooth="yes"/>
      <point x="449" y="202" type="line" smooth="yes"/>
      <point x="449" y="94"/>
      <point x="392" y="5"/>
      <point x="281" y="5" type="curve" smooth="yes"/>
      <point x="172" y="5"/>
      <point x="146" y="76"/>
      <point x="146" y="181" type="curve" smooth="yes"/>
      <point x="146" y="536" type="line"/>
      <point x="15" y="536" type="line"/>
      <point x="15" y="526" type="line"/>
      <point x="41" y="526" type="line" smooth="yes"/>
      <point x="114" y="526"/>
      <point x="118" y="522"/>
      <point x="118" y="452" type="curve" smooth="yes"/>
      <point x="118" y="184" type="line" smooth="yes"/>
      <point x="118" y="52"/>
      <point x="171" y="-10"/>
    </contour>
  </outline>
</glyph>
<glyph name="v" format="2">
  <advance width="408"/>
  <unicode hex="0076"/>
  <anchor x="204" y="0" name="bottom"/>
  <anchor x="204" y="528" name="top"/>
  <anchor x="389" y="528" name="topright"/>
  <outline>
    <contour>
      <point x="192" y="0" type="line"/>
      <point x="216" y="0" type="line"/>
      <point x="408" y="528" type="line"/>
      <point x="380" y="528" type="line"/>
      <point x="240" y="138" type="line" smooth="yes"/>
      <point x="225" y="95"/>
      <point x="216" y="69"/>
      <point x="205" y="36" type="curve"/>
      <point x="203" y="36" type="line"/>
      <point x="193" y="69"/>
      <point x="183" y="95"/>
      <point x="168" y="138" type="curve" smooth="yes"/>
      <point x="28" y="528" type="line"/>
      <point x="0" y="528" type="line"/>
    </contour>
  </outline>
</glyph>
<glyph name="v.serif" format="2">
  <advance width="545"/>
  <unicode hex="0076"/>
  <anchor x="273" y="0" name="bottom"/>
  <anchor x="273" y="536" name="top"/>
  <anchor x="535" y="536" name="topright"/>
  <outline>
    <contour>
      <point x="83" y="478" type="curve" smooth="yes"/>
      <point x="259" y="0" type="line"/>
      <point x="274" y="0" type="line"/>
      <point x="454" y="478" type="line" smooth="yes"/>
      <point x="471" y="524"/>
      <point x="474" y="526"/>
      <point x="524" y="526" type="curve" smooth="yes"/>
      <point x="538" y="526" type="line"/>
      <point x="538" y="536" type="line"/>
      <point x="364" y="536" type="line"/>
      <point x="364" y="526" type="line"/>
      <point x="400" y="526" type="line" smooth="yes"/>
      <point x="441" y="526"/>
      <point x="446" y="519"/>
      <point x="446" y="505" type="curve" smooth="yes"/>
      <point x="446" y="482"/>
      <point x="430" y="446"/>
      <point x="404" y="376" type="curve" smooth="yes"/>
      <point x="340" y="206" type="line" smooth="yes"/>
      <point x="304" y="110"/>
      <point x="283" y="54"/>
      <point x="274" y="29" type="curve"/>
      <point x="263" y="66"/>
      <point x="235" y="140"/>
      <point x="214" y="199" type="curve" smooth="yes"/>
      <point x="135" y="417" type="line" smooth="yes"/>
      <point x="124" y="447"/>
      <point x="107" y="488"/>
      <point x="107" y="505" type="curve" smooth="yes"/>
      <point x="107" y="519"/>
      <point x="112" y="526"/>
      <point x="153" y="526" type="curve" smooth="yes"/>
      <point x="180" y="526" type="line"/>
      <point x="180" y="536" type="line"/>
      <point x="8" y="536" type="line"/>
      <point x="8" y="526" type="line"/>
      <point x="63" y="526"/>
      <point x="66" y="525"/>
    </contour>
  </outline>
</glyph>
<glyph name="w" format="2">
  <advance width="649"/>
  <unicode hex="0077"/>
  <anchor x="325" y="0" name="bottom"/>
  <anchor x="325" y="528" name="top"/>
  <anchor x="629" y="528" name="topright"/>
  <outline>
    <contour>
      <point x="359" y="388" type="curve" smooth="yes"/>
      <point x="476" y="-1" type="line"/>
      <point x="501" y="-1" type="line"/>
      <point x="634" y="527" type="line"/>
      <point x="606" y="527" type="line"/>
      <point x="514" y="156" type="line" smooth="yes"/>
      <point x="500" y="99"/>
      <point x="492" y="72"/>
      <point x="489" y="41" type="curve"/>
      <point x="487" y="41" type="line"/>
      <point x="479" y="72"/>
      <point x="469" y="106"/>
      <point x="454" y="157" type="curve" smooth="yes"/>
      <point x="344" y="527" type="line"/>
      <point x="321" y="527" type="line"/>
      <point x="205" y="156" type="line" smooth="yes"/>
      <point x="186" y="95"/>
      <point x="180" y="72"/>
      <point x="173" y="41" type="curve"/>
      <point x="171" y="41" type="line"/>
      <point x="164" y="72"/>
      <point x="158" y="95"/>
      <point x="142" y="156" type="curve" smooth="yes"/>
      <point x="45" y="527" type="line"/>
      <point x="15" y="527" type="line"/>
      <point x="159" y="-1" type="line"/>
      <point x="182" y="-1" type="line"/>
      <point x="303" y="388" type="line" smooth="yes"/>
      <point x="313" y="420"/>
      <point x="321" y="446"/>
      <point x="330" y="482" type="curve"/>
      <point x="332" y="482" type="line"/>
      <point x="341" y="446"/>
      <point x="349" y="423"/>
    </contour>
  </outline>
</glyph>
<glyph name="w.serif" format="2">
  <advance width="870"/>
  <unicode hex="0077"/>
  <anchor x="435" y="0" name="bottom"/>
  <anchor x="435" y="536" name="top"/>
  <anchor x="860" y="536" name="topright"/>
  <outline>
    <contour>
      <point x="86" y="473" type="curve" smooth="yes"/>
      <point x="221" y="0" type="line"/>
      <point x="239" y="0" type="line"/>
      <point x="413" y="511" type="line"/>
      <point x="590" y="0" type="line"/>
      <point x="611" y="0" type="line"/>
      <point x="760" y="477" type="line" smooth="yes"/>
      <point x="773" y="520"/>
      <point x="777" y="526"/>
      <point x="818" y="526" type="curve" smooth="yes"/>
      <point x="837" y="526" type="line"/>
      <point x="837" y="536" type="line"/>
      <point x="676" y="536" type="line"/>
      <point x="676" y="526" type="line"/>
      <point x="716" y="526" type="line" smooth="yes"/>
      <point x="750" y="526"/>
      <point x="754" y="519"/>
      <point x="754" y="506" type="curve" smooth="yes"/>
      <point x="754" y="491"/>
      <point x="746" y="466"/>
      <point x="737" y="438" type="curve" smooth="yes"/>
      <point x="664" y="205" type="line" smooth="yes"/>
      <point x="639" y="124"/>
      <point x="618" y="56"/>
      <point x="608" y="23" type="curve"/>
      <point x="606" y="23" type="line"/>
      <point x="595" y="61"/>
      <point x="556" y="175"/>
      <point x="539" y="223" type="curve" smooth="yes"/>
      <point x="431" y="536" type="line"/>
      <point x="411" y="536" type="line"/>
      <point x="297" y="206" type="line" smooth="yes"/>
      <point x="280" y="157"/>
      <point x="247" y="61"/>
      <point x="238" y="32" type="curve"/>
      <point x="236" y="32" type="line"/>
      <point x="230" y="62"/>
      <point x="205" y="152"/>
      <point x="192" y="200" type="curve" smooth="yes"/>
      <point x="126" y="435" type="line" smooth="yes"/>
      <point x="120" y="455"/>
      <point x="109" y="495"/>
      <point x="109" y="506" type="curve" smooth="yes"/>
      <point x="109" y="519"/>
      <point x="113" y="526"/>
      <point x="147" y="526" type="curve" smooth="yes"/>
      <point x="177" y="526" type="line"/>
      <point x="177" y="536" type="line"/>
      <point x="7" y="536" type="line"/>
      <point x="7" y="526" type="line"/>
      <point x="27" y="526" type="line" smooth="yes"/>
      <point x="68" y="526"/>
      <point x="73" y="520"/>
    </contour>
  </outline>
</glyph>
<glyph name="x" format="2">
  <advance width="453"/>
  <unicode hex="0078"/>
  <anchor x="227" y="0" name="bottom"/>
  <anchor x="227" y="528" name="top"/>
  <anchor x="434" y="528" name="topright"/>
  <outline>
    <contour>
      <point x="205" y="272" type="line"/>
      <point x="24" y="0" type="line"/>
      <point x="56" y="0" type="line"/>
      <point x="223" y="253" type="line"/>
      <point x="392" y="0" type="line"/>
      <point x="425" y="0" type="line"/>
      <point x="241" y="272" type="line"/>
      <point x="413" y="528" type="line"/>
      <point x="380" y="528" type="line"/>
      <point x="223" y="290" type="line"/>
      <point x="66" y="528" type="line"/>
      <point x="32" y="528" type="line"/>
    </contour>
  </outline>
</glyph>
<glyph name="x.serif" format="2">
  <advance width="492"/>
  <unicode hex="0078"/>
  <anchor x="246" y="0" name="bottom"/>
  <anchor x="246" y="536" name="top"/>
  <anchor x="472" y="536" name="topright"/>
  <outline>
    <contour>
      <point x="-3" y="0" type="line"/>
      <point x="194" y="0" type="line"/>
      <point x="194" y="10" type="line"/>
      <point x="132" y="10" type="line" smooth="yes"/>
      <point x="94" y="10"/>
      <point x="90" y="15"/>
      <point x="90" y="24" type="curve" smooth="yes"/>
      <point x="90" y="34"/>
      <point x="103" y="54"/>
      <point x="121" y="82" type="curve" smooth="yes"/>
      <point x="243" y="277" type="line"/>
      <point x="368" y="82" type="line" smooth="yes"/>
      <point x="386" y="54"/>
      <point x="399" y="34"/>
      <point x="399" y="24" type="curve" smooth="yes"/>
      <point x="399" y="15"/>
      <point x="395" y="10"/>
      <point x="357" y="10" type="curve" smooth="yes"/>
      <point x="307" y="10" type="line"/>
      <point x="307" y="0" type="line"/>
      <point x="497" y="0" type="line"/>
      <point x="497" y="10" type="line"/>
      <point x="490" y="10" type="line" smooth="yes"/>
      <point x="448" y="10"/>
      <point x="442" y="17"/>
      <point x="416" y="58" type="curve" smooth="yes"/>
      <point x="259" y="303" type="line"/>
      <point x="367" y="478" type="line" smooth="yes"/>
      <point x="394" y="522"/>
      <point x="399" y="526"/>
      <point x="441" y="526" type="curve" smooth="yes"/>
      <point x="451" y="526" type="line"/>
      <point x="451" y="536" type="line"/>
      <point x="275" y="536" type="line"/>
      <point x="275" y="526" type="line"/>
      <point x="328" y="526" type="line" smooth="yes"/>
      <point x="366" y="526"/>
      <point x="370" y="521"/>
      <point x="370" y="512" type="curve" smooth="yes"/>
      <point x="370" y="502"/>
      <point x="358" y="484"/>
      <point x="339" y="454" type="curve" smooth="yes"/>
      <point x="252" y="313" type="line"/>
      <point x="162" y="454" type="line" smooth="yes"/>
      <point x="143" y="484"/>
      <point x="131" y="502"/>
      <point x="131" y="512" type="curve" smooth="yes"/>
      <point x="131" y="521"/>
      <point x="135" y="526"/>
      <point x="173" y="526" type="curve" smooth="yes"/>
      <point x="200" y="526" type="line"/>
      <point x="200" y="536" type="line"/>
      <point x="22" y="536" type="line"/>
      <point x="22" y="526" type="line"/>
      <point x="40" y="526" type="line" smooth="yes"/>
      <point x="82" y="526"/>
      <point x="86" y="522"/>
      <point x="114" y="478" type="curve" smooth="yes"/>
      <point x="236" y="288" type="line"/>
      <point x="93" y="58" type="line" smooth="yes"/>
      <point x="66" y="15"/>
      <point x="61" y="10"/>
      <point x="19" y="10" type="curve" smooth="yes"/>
      <point x="-3" y="10" type="line"/>
    </contour>
  </outline>
</glyph>
<glyph name="y" format="2">
  <advance width="406"/>
  <unicode hex="0079"/>
  <anchor x="49" y="-243" name="bottom"/>
  <anchor x="203" y="528" name="top"/>
  <anchor x="387" y="528" name="topright"/>
  <outline>
    <contour>
      <point x="0" y="528" type="line"/>
      <point x="190" y="6" type="line"/>
      <point x="152" y="-102" type="line" smooth="yes"/>
      <point x="122" y="-187"/>
      <point x="94" y="-218"/>
      <point x="46" y="-218" type="curve" smooth="yes"/>
      <point x="26" y="-218"/>
      <point x="13" y="-214"/>
      <point x="-5" y="-207" type="curve"/>
      <point x="-5" y="-233" type="line"/>
      <point x="13" y="-240"/>
      <point x="28" y="-243"/>
      <point x="47" y="-243" type="curve" smooth="yes"/>
      <point x="109" y="-243"/>
      <point x="143" y="-202"/>
      <point x="175" y="-115" type="curve" smooth="yes"/>
      <point x="408" y="528" type="line"/>
      <point x="379" y="528" type="line"/>
      <point x="250" y="168" type="line" smooth="yes"/>
      <point x="228" y="108"/>
      <point x="214" y="66"/>
      <point x="205" y="37" type="curve"/>
      <point x="203" y="37" type="line"/>
      <point x="194" y="65"/>
      <point x="179" y="108"/>
      <point x="156" y="172" type="curve" smooth="yes"/>
      <point x="29" y="528" type="line"/>
    </contour>
  </outline>
</glyph>
<glyph name="y.serif" format="2">
  <advance width="547"/>
  <unicode hex="0079"/>
  <anchor x="154" y="-240" name="bottom"/>
  <anchor x="274" y="536" name="top"/>
  <anchor x="537" y="536" name="topright"/>
  <outline>
    <contour>
      <point x="52" y="-230" type="curve"/>
      <point x="52" y="-240" type="line"/>
      <point x="53" y="-240" type="line"/>
      <point x="216" y="-240"/>
      <point x="228" y="-193"/>
      <point x="300" y="16" type="curve" smooth="yes"/>
      <point x="460" y="478" type="line" smooth="yes"/>
      <point x="476" y="525"/>
      <point x="481" y="526"/>
      <point x="533" y="526" type="curve" smooth="yes"/>
      <point x="537" y="526" type="line"/>
      <point x="537" y="536" type="line"/>
      <point x="366" y="536" type="line"/>
      <point x="366" y="526" type="line"/>
      <point x="407" y="526" type="line" smooth="yes"/>
      <point x="448" y="526"/>
      <point x="453" y="519"/>
      <point x="453" y="505" type="curve" smooth="yes"/>
      <point x="453" y="492"/>
      <point x="444" y="465"/>
      <point x="433" y="433" type="curve" smooth="yes"/>
      <point x="343" y="171" type="line" smooth="yes"/>
      <point x="322" y="110"/>
      <point x="307" y="68"/>
      <point x="294" y="29" type="curve"/>
      <point x="277" y="73"/>
      <point x="236" y="171"/>
      <point x="212" y="234" type="curve" smooth="yes"/>
      <point x="141" y="417" type="line" smooth="yes"/>
      <point x="119" y="473"/>
      <point x="110" y="492"/>
      <point x="110" y="505" type="curve" smooth="yes"/>
      <point x="110" y="519"/>
      <point x="115" y="526"/>
      <point x="156" y="526" type="curve" smooth="yes"/>
      <point x="184" y="526" type="line"/>
      <point x="184" y="536" type="line"/>
      <point x="10" y="536" type="line"/>
      <point x="10" y="526" type="line"/>
      <point x="13" y="526" type="line" smooth="yes"/>
      <point x="66" y="526"/>
      <point x="68" y="525"/>
      <point x="87" y="478" type="curve" smooth="yes"/>
      <point x="282" y="-6" type="line"/>
      <point x="214" y="-204"/>
      <point x="194" y="-228"/>
    </contour>
  </outline>
</glyph>
<glyph name="z" format="2">
  <advance width="429"/>
  <unicode hex="007A"/>
  <anchor x="214" y="0" name="bottom"/>
  <anchor x="214" y="528" name="top"/>
  <anchor x="409" y="528" name="topright"/>
  <outline>
    <contour>
      <point x="388" y="0" type="line"/>
      <point x="388" y="25" type="line"/>
      <point x="75" y="25" type="line"/>
      <point x="390" y="513" type="line"/>
      <point x="390" y="528" type="line"/>
      <point x="63" y="528" type="line"/>
      <point x="63" y="503" type="line"/>
      <point x="352" y="503" type="line"/>
      <point x="38" y="17" type="line"/>
      <point x="38" y="0" type="line"/>
    </contour>
  </outline>
</glyph>
